<svg width="19" height="20" viewBox="0 0 19 20" fill="none" xmlns="http://www.w3.org/2000/svg">
<path d="M3.57324 0H5.28747V17.1423H3.57324V0ZM9.57304 3.42845H15.5728V5.14268H9.57304V3.42845ZM9.57304 6.85691H15.5728V8.57113H9.57304V6.85691Z" fill="#40A94C"/>
<path d="M17.286 0H6.14355V17.1423H17.286C18.2314 17.1423 19.0003 16.3734 19.0003 15.428V1.71423C19.0003 0.768831 18.2314 0 17.286 0ZM17.286 15.428H7.85778V1.71423H17.286V15.428Z" fill="#40A94C"/>
<path d="M7.68932 7.22852C8.45056 7.22852 9.20434 7.37845 9.90764 7.66977C10.6109 7.96108 11.25 8.38806 11.7882 8.92634C12.3265 9.46462 12.7535 10.1036 13.0448 10.8069C13.3361 11.5102 13.4861 12.264 13.4861 13.0253C13.4861 14.5626 12.8753 16.0371 11.7882 17.1242C10.7011 18.2113 9.22671 18.822 7.68932 18.822C4.48372 18.822 1.89258 16.2135 1.89258 13.0253C1.89258 11.4879 2.5033 10.0134 3.5904 8.92634C4.6775 7.83924 6.15193 7.22852 7.68932 7.22852Z" fill="white"/>
<path d="M8.1562 9.68021V9.54699H8.02297H7.01969H6.88647V9.68021V13.6933V13.7688L6.95115 13.8076L10.4626 15.9145L10.5761 15.9825L10.6449 15.8696L11.1466 15.0469L11.2168 14.9318L11.1008 14.863L8.1562 13.1158V9.68021ZM11.378 16.7139C10.3995 17.6924 9.07234 18.2421 7.68855 18.2421C6.30475 18.2421 4.97763 17.6924 3.99914 16.7139C3.02064 15.7354 2.47093 14.4083 2.47093 13.0245C2.47093 11.6407 3.02064 10.3136 3.99914 9.33507C4.97763 8.35658 6.30475 7.80687 7.68855 7.80687C9.07234 7.80687 10.3995 8.35658 11.378 9.33507C12.3564 10.3136 12.9062 11.6407 12.9062 13.0245C12.9062 14.4083 12.3564 15.7354 11.378 16.7139ZM10.2991 6.72199C9.47147 6.37916 8.58439 6.20271 7.68855 6.20271C5.8793 6.20271 4.14416 6.92143 2.86483 8.20076C1.5855 9.48009 0.866777 11.2152 0.866777 13.0245C0.866777 16.7765 3.91594 19.8463 7.68855 19.8463C9.49779 19.8463 11.2329 19.1275 12.5123 17.8482C13.7916 16.5689 14.5103 14.8337 14.5103 13.0245C14.5103 12.1286 14.3339 11.2416 13.991 10.4139C13.6482 9.58625 13.1457 8.83422 12.5123 8.20076C11.8788 7.5673 11.1268 7.06482 10.2991 6.72199Z" fill="#40A94C" stroke="#40A94C" stroke-width="0.266446"/>
</svg>
