<svg width="24" height="26" viewBox="0 0 24 26" fill="none" xmlns="http://www.w3.org/2000/svg">
<path d="M3.95898 0.197266H6.12793V21.8867H3.95898V0.197266ZM11.5503 4.53515H19.1416V6.70409H11.5503V4.53515ZM11.5503 8.87304H19.1416V11.042H11.5503V8.87304Z" fill="#3F3D3D"/>
<path d="M21.3091 0.197266H7.21094V21.8867H21.3091C22.5052 21.8867 23.478 20.9139 23.478 19.7178V2.36621C23.478 1.17004 22.5052 0.197266 21.3091 0.197266ZM21.3091 19.7178H9.37988V2.36621H21.3091V19.7178Z" fill="#3F3D3D"/>
<path d="M9.16739 9.34375C10.1306 9.34375 11.0843 9.53346 11.9741 9.90205C12.864 10.2706 13.6725 10.8109 14.3536 11.4919C15.0346 12.173 15.5749 12.9815 15.9435 13.8714C16.3121 14.7612 16.5018 15.715 16.5018 16.6781C16.5018 18.6233 15.7291 20.4889 14.3536 21.8643C12.9781 23.2398 11.1126 24.0125 9.16739 24.0125C5.11148 24.0125 1.83301 20.712 1.83301 16.6781C1.83301 14.7329 2.60574 12.8674 3.9812 11.4919C5.35666 10.1165 7.22219 9.34375 9.16739 9.34375Z" fill="white"/>
<path d="M9.71094 12.4462V12.3253H9.58999H8.32058H8.19963V12.4462V17.5239V17.5924L8.25835 17.6276L12.7013 20.2934L12.8043 20.3551L12.8668 20.2526L13.5015 19.2117L13.5652 19.1072L13.4599 19.0447L9.71094 16.8203V12.4462ZM13.8686 21.3793C12.6216 22.6263 10.9303 23.3268 9.16685 23.3268C7.40336 23.3268 5.7121 22.6263 4.46512 21.3793C3.21815 20.1323 2.5176 18.4411 2.5176 16.6776C2.5176 14.9141 3.21815 13.2228 4.46512 11.9759C5.7121 10.7289 7.40336 10.0283 9.16685 10.0283C10.9303 10.0283 12.6216 10.7289 13.8686 11.9759C15.1156 13.2228 15.8161 14.9141 15.8161 16.6776C15.8161 18.4411 15.1156 20.1323 13.8686 21.3793ZM12.4517 8.74729C11.4103 8.31592 10.2941 8.09389 9.16685 8.09389C6.89031 8.09389 4.70702 8.99824 3.09726 10.608C1.4875 12.2178 0.58315 14.4011 0.58315 16.6776C0.58315 21.3987 4.41992 25.2613 9.16685 25.2613C11.4434 25.2613 13.6267 24.3569 15.2364 22.7472C16.8462 21.1374 17.7506 18.9541 17.7506 16.6776C17.7506 15.5504 17.5285 14.4342 17.0972 13.3928C16.6658 12.3513 16.0335 11.4051 15.2364 10.608C14.4394 9.81093 13.4931 9.17866 12.4517 8.74729Z" fill="#3F3D3D" stroke="#3F3D3D" stroke-width="0.241903"/>
</svg>
