<svg width="16" height="18" viewBox="0 0 16 18" fill="none" xmlns="http://www.w3.org/2000/svg">
<path d="M7.55556 6.22222C7.55556 5.63285 7.78968 5.06762 8.20643 4.65087C8.62318 4.23413 9.18841 4 9.77778 4C10.7556 4 11.5822 4.63111 11.8844 5.50222C11.9556 5.73333 12 5.97333 12 6.22222C12 6.51405 11.9425 6.80302 11.8308 7.07263C11.7192 7.34224 11.5555 7.58722 11.3491 7.79357C11.1428 7.99992 10.8978 8.16361 10.6282 8.27529C10.3586 8.38697 10.0696 8.44444 9.77778 8.44444C8.80889 8.44444 8 7.83111 7.68 6.96889C7.6 6.73778 7.55556 6.48 7.55556 6.22222ZM1.77778 6.22222C1.77778 10.2222 6.29333 15.6978 7.11111 16.72L6.22222 17.7778C6.22222 17.7778 0 10.8889 0 6.22222C0 3.40444 1.87556 1.02222 4.44444 0.257778C2.80889 1.72444 1.77778 3.84889 1.77778 6.22222ZM9.77778 0C13.2089 0 16 2.78222 16 6.22222C16 10.8889 9.77778 17.7778 9.77778 17.7778C9.77778 17.7778 3.55556 10.8889 3.55556 6.22222C3.55556 2.78222 6.34667 0 9.77778 0ZM9.77778 1.77778C7.32444 1.77778 5.33333 3.76889 5.33333 6.22222C5.33333 7.11111 5.33333 8.88889 9.77778 14.8533C14.2222 8.88889 14.2222 7.11111 14.2222 6.22222C14.2222 3.76889 12.2311 1.77778 9.77778 1.77778Z" fill="#40A94C"/>
</svg>
