<svg width="47" height="47" viewBox="0 0 47 47" fill="none" xmlns="http://www.w3.org/2000/svg">
<mask id="path-1-inside-1_6_8294" fill="white">
<path d="M46.9992 18.9514C46.9992 16.6711 46.3176 14.5502 45.1578 12.7678L46.3064 11.6192C46.7528 11.1728 46.9992 10.5785 46.9992 9.94635C46.9992 8.64172 45.9379 7.58044 44.6333 7.58044C44.0011 7.58044 43.4069 7.82681 42.9602 8.27318L41.8116 9.42179C40.6379 8.65764 39.3198 8.09826 37.9022 7.8096L37.9025 6.06433C38.7387 6.06433 39.4186 5.38445 39.4186 4.54822V3.03211C39.4186 2.19588 38.7387 1.51599 37.9025 1.51599H33.3542C32.5179 1.51599 31.838 2.19588 31.838 3.03211V4.54822C31.838 5.38445 32.5179 6.06433 33.3542 6.06433V7.80717C31.6969 8.13983 30.1538 8.84714 28.8014 9.87047C28.8014 9.82411 28.8058 9.77808 28.8058 9.73172C28.8058 4.36546 24.4402 0 19.0741 0H15.7962C10.4299 0 6.06444 4.36563 6.06444 9.73172C6.06444 11.015 6.23128 12.2915 6.54567 13.5348C6.24481 14.0056 6.06444 14.5613 6.06444 15.161C6.06444 16.8331 7.42452 18.1932 9.09666 18.1932H9.89635C10.6152 19.9678 11.8006 21.53 13.357 22.725L12.3404 25.7738H4.54837C2.04002 25.7738 2.57779e-05 27.8138 2.57779e-05 30.3221C2.57779e-05 32.3962 0.483623 34.4724 1.39936 36.3321L1.1046 36.7747C0.382078 37.8587 0 39.1199 0 40.4225C0 44.0489 2.95036 46.9993 6.57681 46.9993H20.4679C21.4547 46.9993 22.2886 46.3634 22.6027 45.4832H47V43.9671H33.8228C34.4952 42.9163 34.8712 41.6892 34.8712 40.4225C34.8712 39.1203 34.4891 37.8586 33.7666 36.774L33.4719 36.3314C34.3876 34.4724 34.8712 32.3962 34.8712 30.3221C34.8712 30.3123 34.8698 30.3032 34.8698 30.2933C35.123 30.3099 35.3761 30.3221 35.6292 30.3221C41.8991 30.3221 46.9992 25.2212 46.9992 18.9514ZM44.0323 9.34528C44.193 9.18521 44.4059 9.09654 44.6333 9.09654C45.1017 9.09654 45.4831 9.47794 45.4831 9.94631C45.4831 10.1737 45.3944 10.3866 45.2343 10.5473L44.2373 11.5443C43.8668 11.1146 43.4647 10.7128 43.0349 10.3419L44.0323 9.34528ZM33.3545 3.0321H37.9028L37.9035 4.54821H33.3545L33.3545 3.0321ZM34.8706 6.06432H36.3867V7.61899C36.1349 7.60241 35.8848 7.58041 35.6287 7.58041C35.3732 7.58041 35.1224 7.60241 34.8706 7.61831V6.06432ZM36.3867 12.1735C39.5432 12.5244 42.0556 15.0365 42.4065 18.1932H36.3867V12.1735ZM42.4065 19.7093C42.0274 23.1151 39.134 25.7738 35.6287 25.7738C31.8671 25.7738 28.8062 22.7128 28.8062 18.9513C28.8062 15.4459 31.4648 12.5525 34.8706 12.1735V19.7093H42.4065ZM30.9057 25.8154C30.7138 25.7903 30.5206 25.7738 30.3226 25.7738H28.532C26.7567 23.9294 25.7742 21.5226 25.7742 18.9513C25.7742 18.6974 25.7857 18.4433 25.8054 18.1901C26.3898 18.1841 26.932 18.0091 27.3929 17.7164C27.332 18.1204 27.2903 18.5306 27.2903 18.9513C27.2903 21.7963 28.7246 24.3101 30.9057 25.8154ZM28.8065 43.9672H22.7421V43.2091C22.7421 41.9552 21.7217 40.9349 20.4679 40.9349H19.7098V33.3544H21.2259C21.2259 34.1906 21.9058 34.8705 22.7421 34.8705H25.7743C26.6105 34.8705 27.2904 34.1906 27.2904 33.3544H28.8065V43.9672ZM18.2032 33.2677C17.9515 33.3192 17.697 33.354 17.436 33.354C15.346 33.354 13.6458 31.6538 13.6458 29.5637V26.6544L14.6728 23.5728C15.5273 24.0134 16.4688 24.2574 17.436 24.2574C18.4033 24.2574 19.3447 24.0134 20.1993 23.5728L21.2263 26.6544V29.5637C21.2263 30.3922 20.9434 31.183 20.4486 31.8379H19.7102C18.9038 31.8379 18.2486 32.4724 18.2032 33.2677ZM25.7747 14.0737V13.6446C26.6109 13.6446 27.2908 14.3245 27.2908 15.1607C27.2908 15.997 26.6109 16.6768 25.7747 16.6768H25.461C25.6647 15.8369 25.7747 14.9651 25.7747 14.0737ZM24.2897 19.5808C24.4125 21.8475 25.1949 23.9812 26.5473 25.7735H22.531L21.5144 22.7247C22.6501 21.853 23.5868 20.7848 24.2897 19.5808ZM22.7425 33.354V31.8379H25.7747V33.354H22.7425ZM25.7747 30.3218H22.7425C22.7222 30.3218 22.7022 30.3272 22.6819 30.3279C22.7181 30.0761 22.7425 29.8216 22.7425 29.5637V27.2896H25.7747V30.3218ZM15.7969 1.51564H19.0749C23.6049 1.51564 27.2906 5.20135 27.2906 9.73141C27.2906 10.6306 27.1996 11.5264 27.0284 12.4073C26.6449 12.2324 26.2226 12.1284 25.7745 12.1284H25.2395C24.6367 11.7721 24.2584 11.1423 24.2584 10.4333V10.0384C24.2584 7.84681 22.4756 6.06403 20.284 6.06403C19.2228 6.06403 18.2245 6.47724 17.4738 7.22849L17.4359 7.26639L17.398 7.22849C16.6467 6.4772 15.649 6.06403 14.5877 6.06403C12.3961 6.06403 10.6133 7.84681 10.6133 10.0384V10.4333C10.6133 11.1413 10.235 11.7721 9.63225 12.1284H9.09721C8.64914 12.1284 8.22679 12.2323 7.84334 12.4073C7.6721 11.5264 7.58107 10.6306 7.58107 9.73141C7.58107 5.20135 11.2669 1.51564 15.7969 1.51564ZM9.09729 16.6768C8.26106 16.6768 7.58117 15.9969 7.58117 15.1607C7.58117 14.3244 8.26106 13.6445 9.09729 13.6445V14.0737C9.09729 14.965 9.20727 15.8369 9.411 16.6768L9.09729 16.6768ZM10.6134 14.0736V13.318C11.5596 12.6706 12.1295 11.6039 12.1295 10.4336V10.0387C12.1295 8.68302 13.2324 7.58007 14.5878 7.58007C15.2443 7.58007 15.8612 7.83557 16.3259 8.30022L17.4358 9.40993L18.5455 8.30022C19.0102 7.83625 19.6271 7.58007 20.2836 7.58007C21.6393 7.58007 22.7422 8.68293 22.7422 10.0383V10.4333C22.7422 11.6039 23.3121 12.6702 24.2583 13.3176V14.0733C24.2583 17.339 22.6052 20.3219 19.8359 22.0526C18.3963 22.9531 16.477 22.9531 15.0358 22.0526C12.2665 20.3222 10.6134 17.3394 10.6134 14.0736ZM12.1295 27.2898V29.564C12.1295 32.4899 14.51 34.8704 17.4359 34.8704C17.6914 34.8704 17.9439 34.8423 18.194 34.8068V39.481C18.043 39.4438 17.8877 39.4187 17.7256 39.4187C17.4193 39.4187 17.1124 39.4915 16.8379 39.6279L14.2247 40.9348H9.09727V27.2898L12.1295 27.2898ZM21.2262 44.7251C21.2262 45.1427 20.8857 45.4832 20.4681 45.4832H6.57708C3.78682 45.4832 1.51637 43.2127 1.51637 40.4225C1.51637 39.4205 1.81046 38.4492 2.36614 37.6153L3.14925 36.441L2.79289 35.7269C1.95768 34.0585 1.51641 32.1891 1.51641 30.322C1.51641 28.6499 2.87649 27.2898 4.54864 27.2898H7.58086V40.9348H6.06475V42.4509H14.5824L17.5161 40.9842C17.8122 40.8346 18.1936 41.0736 18.1936 41.4032V42.4509H20.4678C20.8854 42.4509 21.2258 42.7914 21.2258 43.209L21.2262 44.7251ZM30.3229 43.9671V33.3543C30.3229 32.5181 29.643 31.8382 28.8068 31.8382H27.2906V27.2898H30.3229C31.995 27.2898 33.3551 28.6499 33.3551 30.3221C33.3551 32.1891 32.9138 34.0585 32.0786 35.7277L31.7223 36.441L32.5054 37.6154C33.0611 38.4499 33.3551 39.4202 33.3551 40.4225C33.3551 41.7498 32.8231 43.0243 31.8966 43.9671L30.3229 43.9671ZM33.3937 26.9771C34.1064 27.1757 34.8536 27.2901 35.6293 27.2901C40.227 27.2901 43.9679 23.5492 43.9679 18.9515C43.9679 14.3538 40.227 10.6129 35.6293 10.6129C32.7321 10.6129 30.1773 12.1002 28.6825 14.3493C28.6013 14.059 28.4846 13.7839 28.3255 13.5351C28.4514 13.0363 28.5553 12.5331 28.6311 12.0251C30.4957 10.139 32.9686 9.09672 35.6292 9.09672C41.0629 9.09672 45.4839 13.5178 45.4839 18.9515C45.4839 24.3851 41.0629 28.8062 35.6292 28.8062C35.2796 28.8062 34.9304 28.7812 34.5832 28.7449C34.33 28.0634 33.9192 27.46 33.3937 26.9771Z"/>
</mask>
<path d="M46.9992 18.9514C46.9992 16.6711 46.3176 14.5502 45.1578 12.7678L46.3064 11.6192C46.7528 11.1728 46.9992 10.5785 46.9992 9.94635C46.9992 8.64172 45.9379 7.58044 44.6333 7.58044C44.0011 7.58044 43.4069 7.82681 42.9602 8.27318L41.8116 9.42179C40.6379 8.65764 39.3198 8.09826 37.9022 7.8096L37.9025 6.06433C38.7387 6.06433 39.4186 5.38445 39.4186 4.54822V3.03211C39.4186 2.19588 38.7387 1.51599 37.9025 1.51599H33.3542C32.5179 1.51599 31.838 2.19588 31.838 3.03211V4.54822C31.838 5.38445 32.5179 6.06433 33.3542 6.06433V7.80717C31.6969 8.13983 30.1538 8.84714 28.8014 9.87047C28.8014 9.82411 28.8058 9.77808 28.8058 9.73172C28.8058 4.36546 24.4402 0 19.0741 0H15.7962C10.4299 0 6.06444 4.36563 6.06444 9.73172C6.06444 11.015 6.23128 12.2915 6.54567 13.5348C6.24481 14.0056 6.06444 14.5613 6.06444 15.161C6.06444 16.8331 7.42452 18.1932 9.09666 18.1932H9.89635C10.6152 19.9678 11.8006 21.53 13.357 22.725L12.3404 25.7738H4.54837C2.04002 25.7738 2.57779e-05 27.8138 2.57779e-05 30.3221C2.57779e-05 32.3962 0.483623 34.4724 1.39936 36.3321L1.1046 36.7747C0.382078 37.8587 0 39.1199 0 40.4225C0 44.0489 2.95036 46.9993 6.57681 46.9993H20.4679C21.4547 46.9993 22.2886 46.3634 22.6027 45.4832H47V43.9671H33.8228C34.4952 42.9163 34.8712 41.6892 34.8712 40.4225C34.8712 39.1203 34.4891 37.8586 33.7666 36.774L33.4719 36.3314C34.3876 34.4724 34.8712 32.3962 34.8712 30.3221C34.8712 30.3123 34.8698 30.3032 34.8698 30.2933C35.123 30.3099 35.3761 30.3221 35.6292 30.3221C41.8991 30.3221 46.9992 25.2212 46.9992 18.9514ZM44.0323 9.34528C44.193 9.18521 44.4059 9.09654 44.6333 9.09654C45.1017 9.09654 45.4831 9.47794 45.4831 9.94631C45.4831 10.1737 45.3944 10.3866 45.2343 10.5473L44.2373 11.5443C43.8668 11.1146 43.4647 10.7128 43.0349 10.3419L44.0323 9.34528ZM33.3545 3.0321H37.9028L37.9035 4.54821H33.3545L33.3545 3.0321ZM34.8706 6.06432H36.3867V7.61899C36.1349 7.60241 35.8848 7.58041 35.6287 7.58041C35.3732 7.58041 35.1224 7.60241 34.8706 7.61831V6.06432ZM36.3867 12.1735C39.5432 12.5244 42.0556 15.0365 42.4065 18.1932H36.3867V12.1735ZM42.4065 19.7093C42.0274 23.1151 39.134 25.7738 35.6287 25.7738C31.8671 25.7738 28.8062 22.7128 28.8062 18.9513C28.8062 15.4459 31.4648 12.5525 34.8706 12.1735V19.7093H42.4065ZM30.9057 25.8154C30.7138 25.7903 30.5206 25.7738 30.3226 25.7738H28.532C26.7567 23.9294 25.7742 21.5226 25.7742 18.9513C25.7742 18.6974 25.7857 18.4433 25.8054 18.1901C26.3898 18.1841 26.932 18.0091 27.3929 17.7164C27.332 18.1204 27.2903 18.5306 27.2903 18.9513C27.2903 21.7963 28.7246 24.3101 30.9057 25.8154ZM28.8065 43.9672H22.7421V43.2091C22.7421 41.9552 21.7217 40.9349 20.4679 40.9349H19.7098V33.3544H21.2259C21.2259 34.1906 21.9058 34.8705 22.7421 34.8705H25.7743C26.6105 34.8705 27.2904 34.1906 27.2904 33.3544H28.8065V43.9672ZM18.2032 33.2677C17.9515 33.3192 17.697 33.354 17.436 33.354C15.346 33.354 13.6458 31.6538 13.6458 29.5637V26.6544L14.6728 23.5728C15.5273 24.0134 16.4688 24.2574 17.436 24.2574C18.4033 24.2574 19.3447 24.0134 20.1993 23.5728L21.2263 26.6544V29.5637C21.2263 30.3922 20.9434 31.183 20.4486 31.8379H19.7102C18.9038 31.8379 18.2486 32.4724 18.2032 33.2677ZM25.7747 14.0737V13.6446C26.6109 13.6446 27.2908 14.3245 27.2908 15.1607C27.2908 15.997 26.6109 16.6768 25.7747 16.6768H25.461C25.6647 15.8369 25.7747 14.9651 25.7747 14.0737ZM24.2897 19.5808C24.4125 21.8475 25.1949 23.9812 26.5473 25.7735H22.531L21.5144 22.7247C22.6501 21.853 23.5868 20.7848 24.2897 19.5808ZM22.7425 33.354V31.8379H25.7747V33.354H22.7425ZM25.7747 30.3218H22.7425C22.7222 30.3218 22.7022 30.3272 22.6819 30.3279C22.7181 30.0761 22.7425 29.8216 22.7425 29.5637V27.2896H25.7747V30.3218ZM15.7969 1.51564H19.0749C23.6049 1.51564 27.2906 5.20135 27.2906 9.73141C27.2906 10.6306 27.1996 11.5264 27.0284 12.4073C26.6449 12.2324 26.2226 12.1284 25.7745 12.1284H25.2395C24.6367 11.7721 24.2584 11.1423 24.2584 10.4333V10.0384C24.2584 7.84681 22.4756 6.06403 20.284 6.06403C19.2228 6.06403 18.2245 6.47724 17.4738 7.22849L17.4359 7.26639L17.398 7.22849C16.6467 6.4772 15.649 6.06403 14.5877 6.06403C12.3961 6.06403 10.6133 7.84681 10.6133 10.0384V10.4333C10.6133 11.1413 10.235 11.7721 9.63225 12.1284H9.09721C8.64914 12.1284 8.22679 12.2323 7.84334 12.4073C7.6721 11.5264 7.58107 10.6306 7.58107 9.73141C7.58107 5.20135 11.2669 1.51564 15.7969 1.51564ZM9.09729 16.6768C8.26106 16.6768 7.58117 15.9969 7.58117 15.1607C7.58117 14.3244 8.26106 13.6445 9.09729 13.6445V14.0737C9.09729 14.965 9.20727 15.8369 9.411 16.6768L9.09729 16.6768ZM10.6134 14.0736V13.318C11.5596 12.6706 12.1295 11.6039 12.1295 10.4336V10.0387C12.1295 8.68302 13.2324 7.58007 14.5878 7.58007C15.2443 7.58007 15.8612 7.83557 16.3259 8.30022L17.4358 9.40993L18.5455 8.30022C19.0102 7.83625 19.6271 7.58007 20.2836 7.58007C21.6393 7.58007 22.7422 8.68293 22.7422 10.0383V10.4333C22.7422 11.6039 23.3121 12.6702 24.2583 13.3176V14.0733C24.2583 17.339 22.6052 20.3219 19.8359 22.0526C18.3963 22.9531 16.477 22.9531 15.0358 22.0526C12.2665 20.3222 10.6134 17.3394 10.6134 14.0736ZM12.1295 27.2898V29.564C12.1295 32.4899 14.51 34.8704 17.4359 34.8704C17.6914 34.8704 17.9439 34.8423 18.194 34.8068V39.481C18.043 39.4438 17.8877 39.4187 17.7256 39.4187C17.4193 39.4187 17.1124 39.4915 16.8379 39.6279L14.2247 40.9348H9.09727V27.2898L12.1295 27.2898ZM21.2262 44.7251C21.2262 45.1427 20.8857 45.4832 20.4681 45.4832H6.57708C3.78682 45.4832 1.51637 43.2127 1.51637 40.4225C1.51637 39.4205 1.81046 38.4492 2.36614 37.6153L3.14925 36.441L2.79289 35.7269C1.95768 34.0585 1.51641 32.1891 1.51641 30.322C1.51641 28.6499 2.87649 27.2898 4.54864 27.2898H7.58086V40.9348H6.06475V42.4509H14.5824L17.5161 40.9842C17.8122 40.8346 18.1936 41.0736 18.1936 41.4032V42.4509H20.4678C20.8854 42.4509 21.2258 42.7914 21.2258 43.209L21.2262 44.7251ZM30.3229 43.9671V33.3543C30.3229 32.5181 29.643 31.8382 28.8068 31.8382H27.2906V27.2898H30.3229C31.995 27.2898 33.3551 28.6499 33.3551 30.3221C33.3551 32.1891 32.9138 34.0585 32.0786 35.7277L31.7223 36.441L32.5054 37.6154C33.0611 38.4499 33.3551 39.4202 33.3551 40.4225C33.3551 41.7498 32.8231 43.0243 31.8966 43.9671L30.3229 43.9671ZM33.3937 26.9771C34.1064 27.1757 34.8536 27.2901 35.6293 27.2901C40.227 27.2901 43.9679 23.5492 43.9679 18.9515C43.9679 14.3538 40.227 10.6129 35.6293 10.6129C32.7321 10.6129 30.1773 12.1002 28.6825 14.3493C28.6013 14.059 28.4846 13.7839 28.3255 13.5351C28.4514 13.0363 28.5553 12.5331 28.6311 12.0251C30.4957 10.139 32.9686 9.09672 35.6292 9.09672C41.0629 9.09672 45.4839 13.5178 45.4839 18.9515C45.4839 24.3851 41.0629 28.8062 35.6292 28.8062C35.2796 28.8062 34.9304 28.7812 34.5832 28.7449C34.33 28.0634 33.9192 27.46 33.3937 26.9771Z" fill="#40A94C" stroke="#40A94C" stroke-width="1.28767" mask="url(#path-1-inside-1_6_8294)"/>
</svg>
