<svg width="23" height="21" viewBox="0 0 23 21" fill="none" xmlns="http://www.w3.org/2000/svg">
<path d="M2.09091 20.9091C1.51591 20.9091 1.0235 20.7042 0.613683 20.2944C0.203865 19.8845 -0.000695195 19.3925 1.77496e-06 18.8182V6.27273C1.77496e-06 5.69773 0.204911 5.20532 0.614729 4.7955C1.02455 4.38568 1.51661 4.18112 2.09091 4.18182H5.38409L6.69091 2.77046C6.88258 2.56137 7.11362 2.39584 7.38405 2.27387C7.65447 2.1519 7.93709 2.09091 8.23191 2.09091H12.5455C12.8417 2.09091 13.0901 2.19128 13.2909 2.392C13.4916 2.59273 13.5916 2.84085 13.5909 3.13637V5.22727C13.5909 5.52349 13.6913 5.77196 13.892 5.97268C14.0927 6.17341 14.3408 6.27343 14.6364 6.27273H16.7273V8.36364C16.7273 8.65985 16.8276 8.90832 17.0284 9.10905C17.2291 9.30977 17.4772 9.40979 17.7727 9.40909H19.8636C20.1598 9.40909 20.4083 9.50946 20.609 9.71018C20.8098 9.91091 20.9098 10.159 20.9091 10.4545V18.8182C20.9091 19.3932 20.7042 19.8856 20.2944 20.2954C19.8845 20.7052 19.3925 20.9098 18.8182 20.9091H2.09091ZM10.4545 17.25C11.7614 17.25 12.8723 16.7924 13.7875 15.8773C14.7026 14.9622 15.1598 13.8516 15.1591 12.5455C15.1591 11.2386 14.7015 10.1277 13.7864 9.21255C12.8713 8.29743 11.7607 7.84021 10.4545 7.84091C9.14773 7.84091 8.03676 8.29847 7.12164 9.21359C6.20652 10.1287 5.7493 11.2393 5.75 12.5455C5.75 13.8523 6.20756 14.9632 7.12268 15.8784C8.0378 16.7935 9.14842 17.2507 10.4545 17.25ZM18.8182 4.18182H17.7727C17.4765 4.18182 17.228 4.08146 17.0273 3.88073C16.8266 3.68 16.7266 3.43188 16.7273 3.13637C16.7273 2.84015 16.8276 2.59169 17.0284 2.39096C17.2291 2.19023 17.4772 2.09022 17.7727 2.09091H18.8182V1.04546C18.8182 0.749246 18.9185 0.500776 19.1193 0.300049C19.32 0.0993217 19.5681 -0.000693352 19.8636 3.61749e-06C20.1598 3.61749e-06 20.4083 0.100367 20.609 0.301095C20.8098 0.501822 20.9098 0.749943 20.9091 1.04546V2.09091H21.9545C22.2508 2.09091 22.4992 2.19128 22.6999 2.392C22.9007 2.59273 23.0007 2.84085 23 3.13637C23 3.43258 22.8996 3.68105 22.6989 3.88178C22.4982 4.0825 22.2501 4.18252 21.9545 4.18182H20.9091V5.22727C20.9091 5.52349 20.8087 5.77196 20.608 5.97268C20.4073 6.17341 20.1591 6.27343 19.8636 6.27273C19.5674 6.27273 19.319 6.17237 19.1182 5.97164C18.9175 5.77091 18.8175 5.52279 18.8182 5.22727V4.18182Z" fill="#40A94C"/>
</svg>
