<svg width="16" height="16" viewBox="0 0 16 16" fill="none" xmlns="http://www.w3.org/2000/svg">
<path d="M2.50554 9.26637C2.24766 8.93159 2.09129 8.55443 2.03631 8.1354C2.03753 7.9363 2.03876 7.73731 2.03974 7.53833C2.09643 7.14024 2.24533 6.78023 2.48631 6.45843C2.62615 6.31675 2.76587 6.17495 2.90534 6.03327C3.20033 5.80355 3.54883 5.65184 3.91336 5.58547C3.93149 5.48763 3.95586 5.38991 3.98684 5.29257C4.07256 5.11281 4.15815 4.93305 4.24399 4.75366C4.43917 4.45549 4.69045 4.21866 4.99156 4.03645C4.97699 3.83355 4.99449 3.62832 5.04972 3.43069C5.13948 3.11513 5.30259 2.84341 5.53879 2.6154C5.66357 2.52418 5.78823 2.43295 5.91288 2.34209C6.18766 2.19344 6.48094 2.11997 6.79306 2.12192C6.94637 2.14372 7.0992 2.16539 7.25214 2.18707C7.61925 2.28944 7.94472 2.5112 8.17873 2.80876C8.2233 2.48683 8.18987 2.15878 8.07636 1.85743C7.88656 1.35354 7.48087 0.946756 6.96658 0.742751C6.79221 0.698791 6.61759 0.654708 6.44297 0.610748C6.07893 0.568869 5.72271 0.614421 5.37446 0.747404C5.2116 0.834589 5.04911 0.921774 4.88624 1.00908C4.56811 1.23672 4.32713 1.52314 4.16317 1.86857C4.00153 2.21389 3.94423 2.59287 3.98782 2.95765C3.92561 2.76688 3.88887 2.56948 3.87896 2.37025C3.63675 2.34344 3.38805 2.35776 3.14547 2.42046C2.97526 2.48903 2.80481 2.55797 2.63424 2.62679C2.309 2.81145 2.0428 3.06333 1.83573 3.38269C1.75393 3.55253 1.6725 3.72249 1.59095 3.89221C1.46556 4.27144 1.43923 4.65263 1.51184 5.03615C1.58642 5.41795 1.76728 5.76486 2.02271 6.0394C1.57062 5.71307 1.24343 5.22779 1.11976 4.68239C1.11963 4.68165 1.11951 4.68079 1.11926 4.67994C0.959341 4.785 0.81987 4.92374 0.71199 5.08881C0.65652 5.20416 0.601295 5.31938 0.545824 5.43461C0.465006 5.68209 0.446149 5.93654 0.489374 6.19761C0.527089 6.32324 0.564681 6.44888 0.602274 6.57451C0.715664 6.82823 0.880726 7.03677 1.09796 7.19987C1.31531 7.36126 1.57099 7.45506 1.83107 7.47637C1.44547 7.52045 1.04971 7.42421 0.730481 7.20171C0.726562 7.19889 0.723136 7.19547 0.719218 7.19265C0.709789 7.21163 0.698891 7.22963 0.690196 7.24898C0.644277 7.40057 0.598353 7.55241 0.552311 7.70413C0.500514 8.02275 0.52574 8.33794 0.628477 8.6497C0.698275 8.7964 0.768443 8.94309 0.838485 9.08991C1.02547 9.37927 1.26743 9.60311 1.5645 9.76181C1.86144 9.91805 2.19219 9.98418 2.51485 9.96116C2.6493 9.95148 2.78253 9.92797 2.91086 9.88646C2.97968 9.86418 3.04605 9.83601 3.11082 9.80503C2.88037 9.66238 2.67343 9.48176 2.50554 9.26637Z" fill="#65740F"/>
<path d="M11.5176 3.44736C11.7489 3.76953 11.8945 4.14938 11.9381 4.54489C12.1033 4.40003 12.2889 4.2782 12.4902 4.18562C12.8753 4.01137 13.2783 3.94561 13.6987 3.98786C13.7308 3.99558 13.7627 4.00329 13.7948 4.01113C13.8079 3.9499 13.8184 3.88831 13.8235 3.82586C13.8568 3.41185 13.7075 2.99453 13.4158 2.6829C13.3088 2.59473 13.2014 2.50644 13.0941 2.4184C12.8538 2.26938 12.5904 2.18391 12.3035 2.16211C12.1809 2.16835 12.0582 2.17472 11.9355 2.18097C11.9392 2.63489 11.7917 3.0838 11.5176 3.44736Z" fill="#65740F"/>
<path d="M8.27805 2.94726C8.4916 2.78832 8.72952 2.66795 8.99218 2.58774C9.18871 2.55615 9.38538 2.52431 9.58167 2.49272C9.98367 2.48268 10.3633 2.56999 10.7205 2.75464C10.8832 2.86901 11.0462 2.9835 11.209 3.09787C11.3 3.18151 11.3815 3.27384 11.4573 3.37033C11.6385 3.04902 11.7208 2.68166 11.687 2.32031C11.6408 1.8278 11.3797 1.3691 10.9736 1.06383C10.8297 0.982522 10.6857 0.901215 10.5417 0.820029C10.2291 0.694761 9.90261 0.648962 9.56182 0.682514C9.39639 0.720351 9.23133 0.758313 9.06602 0.79615C8.72891 0.920806 8.4458 1.11624 8.21669 1.38245C8.21461 1.3849 8.21302 1.38759 8.21094 1.39004C8.21926 1.41025 8.22943 1.42935 8.23727 1.4498C8.41984 1.92822 8.43331 2.46149 8.27792 2.94738L8.27805 2.94726Z" fill="#65740F"/>
<path d="M5.66627 3.7583C6.26751 3.62201 6.91124 3.73552 7.4286 4.07104C7.43937 4.07802 7.44904 4.08634 7.4597 4.09345C7.56072 3.77764 7.72652 3.48278 7.95269 3.23653C7.99089 3.19551 8.0302 3.1562 8.07036 3.11848C7.86342 2.88166 7.58288 2.7095 7.26696 2.63162C7.12553 2.6157 6.98348 2.59978 6.84156 2.58398C6.55135 2.59035 6.27645 2.66431 6.01734 2.80611C5.89868 2.89207 5.78039 2.97816 5.66211 3.064C5.43667 3.27694 5.2781 3.52772 5.18626 3.81658C5.17279 3.86018 5.16202 3.90414 5.15234 3.94834C5.32353 3.88491 5.49496 3.8216 5.66627 3.7583Z" fill="#65740F"/>
<path d="M15.546 5.3163C15.4402 5.14793 15.3341 4.97944 15.2282 4.81082C14.9702 4.50249 14.654 4.2751 14.2793 4.12889C14.176 4.10379 14.0726 4.07893 13.9694 4.05395C14.0229 3.9064 14.0578 3.75198 14.0698 3.59439C14.1053 3.12993 13.9476 2.66167 13.6395 2.31208C13.5263 2.21326 13.413 2.11431 13.2998 2.01525C13.046 1.8481 12.7675 1.75235 12.4647 1.72786C12.3147 1.73606 12.1645 1.74427 12.0143 1.75247C11.9733 1.76043 11.9329 1.76986 11.8931 1.78027C11.795 1.31152 11.5341 0.882575 11.1582 0.581956C11.0049 0.489382 10.8518 0.396688 10.6984 0.303992C10.3664 0.160234 10.0202 0.10525 9.65997 0.138924C9.48572 0.179456 9.31122 0.220112 9.13685 0.260644C8.78174 0.396442 8.48443 0.612203 8.24504 0.907801C8.18626 0.981395 8.13495 1.05976 8.08707 1.14021C7.84584 0.718611 7.472 0.377706 7.0231 0.183865C6.83574 0.130598 6.64827 0.0772092 6.46055 0.0239427C6.07054 -0.0317728 5.69143 0.00973901 5.32285 0.148599C5.1513 0.241173 4.97962 0.334112 4.80807 0.426563C4.47402 0.671222 4.22385 0.982985 4.05744 1.3621C3.97809 1.54553 3.92666 1.73864 3.89886 1.9348C3.5582 1.85411 3.20015 1.84749 2.85558 1.92549C2.66908 1.99456 2.48222 2.06337 2.2956 2.13244C1.94062 2.32126 1.65285 2.5838 1.43256 2.92029C1.34697 3.09969 1.26125 3.27944 1.17553 3.45908C1.0777 3.76619 1.04427 4.07648 1.07402 4.38947C0.776344 4.50396 0.514788 4.70674 0.330988 4.97038C0.267191 5.09307 0.203639 5.21626 0.139964 5.3392C0.0457988 5.60272 0.0208147 5.87248 0.0655096 6.14885C0.105429 6.28135 0.145715 6.41384 0.185756 6.54645C0.240492 6.66548 0.308821 6.77336 0.386945 6.87303C0.316658 6.9683 0.253353 7.06908 0.200943 7.17622C0.14633 7.33896 0.0915953 7.50182 0.0369819 7.66444C-0.0281624 8.00522 -0.00722772 8.34049 0.0996726 8.67062C0.173878 8.82528 0.248454 8.97994 0.322782 9.13484C0.524215 9.43876 0.788219 9.67191 1.11467 9.83391C1.54803 10.0456 2.05082 10.0884 2.51479 9.96114C2.19213 9.98416 1.86139 9.91804 1.56444 9.76179C1.26738 9.6031 1.02553 9.37925 0.838426 9.0899C0.768384 8.9432 0.698216 8.79651 0.628418 8.64969C0.525681 8.33792 0.500462 8.02273 0.55226 7.70411C0.598301 7.55227 0.644218 7.40055 0.690137 7.24896C0.698831 7.22961 0.709729 7.21149 0.719158 7.19263C0.723077 7.19545 0.726503 7.19888 0.730421 7.20169C1.04965 7.42419 1.44542 7.52044 1.83102 7.47635C1.57093 7.45493 1.31526 7.36125 1.0979 7.19985C0.880797 7.03675 0.715605 6.82821 0.602215 6.57449C0.564622 6.44898 0.52703 6.32335 0.489315 6.19759C0.446089 5.9364 0.464947 5.68207 0.545765 5.43459C0.601235 5.31937 0.65646 5.20414 0.711931 5.08879C0.819811 4.92372 0.959412 4.78499 1.11921 4.67992C1.11946 4.68078 1.11957 4.68164 1.1197 4.68237C1.24337 5.22777 1.57057 5.71305 2.02266 6.03938C1.76722 5.76484 1.58636 5.41794 1.51179 5.03614C1.43905 4.65262 1.46538 4.27142 1.59089 3.89219C1.67245 3.72247 1.75387 3.55251 1.83567 3.38267C2.04274 3.06332 2.30895 2.81143 2.63418 2.62678C2.80475 2.55796 2.97521 2.48914 3.14542 2.42045C3.388 2.35775 3.63669 2.34342 3.8789 2.37024C3.88882 2.56947 3.92555 2.76686 3.98776 2.95764C3.94417 2.59286 4.00135 2.21387 4.16311 1.86855C4.32707 1.52312 4.56818 1.23671 4.88619 1.00907C5.04905 0.921883 5.21155 0.834694 5.37441 0.747386C5.72266 0.614403 6.07887 0.568852 6.44291 0.61073C6.61765 0.65469 6.79215 0.698773 6.96652 0.742734C7.48069 0.94686 7.8865 1.35364 8.0763 1.85741C8.18981 2.15889 8.22324 2.48681 8.17867 2.80874C7.94466 2.51118 7.61919 2.28942 7.25208 2.18705C7.09914 2.16538 6.94631 2.14358 6.79301 2.12191C6.48088 2.11995 6.18773 2.1933 5.91282 2.34208C5.78817 2.43306 5.66351 2.52428 5.53873 2.61539C5.30253 2.84339 5.13942 3.11524 5.04966 3.43067C4.99456 3.62831 4.97693 3.83354 4.9915 4.03644C4.69039 4.21865 4.43899 4.45547 4.24393 4.75364C4.15821 4.93315 4.07262 5.11291 3.98678 5.29255C3.9558 5.3899 3.93156 5.48749 3.91331 5.58545C3.54877 5.65182 3.2004 5.80354 2.90529 6.03326C2.76582 6.17494 2.62609 6.31673 2.48625 6.45841C2.24515 6.78021 2.09625 7.1401 2.03968 7.53831C2.03857 7.7373 2.03735 7.93628 2.03625 8.13539C2.09123 8.55442 2.24772 8.93157 2.50548 9.26635C2.67337 9.48186 2.88031 9.66236 3.11052 9.80489C3.15717 9.83367 3.20468 9.86061 3.2533 9.88608L6.24981 13.2617L6.06491 15.5812H9.48731L9.31355 13.4045L12.3764 9.97412C12.413 9.96004 12.4497 9.94571 12.4855 9.92967C12.6613 10.0235 12.8504 10.086 13.054 10.1165C13.4986 10.1808 13.9591 10.0653 14.3219 9.80097C14.697 9.52803 14.9504 9.10606 15.0166 8.64687C15.0185 8.49699 15.0202 8.34723 15.0221 8.19747C15.0138 8.12914 15.0006 8.06277 14.9849 7.99751C15.2567 7.75432 15.4713 7.44819 15.6035 7.10508C15.8252 6.5298 15.8034 5.87652 15.546 5.3163ZM12.3039 2.16293C12.5908 2.1846 12.8542 2.2702 13.0946 2.41922C13.2019 2.50739 13.3093 2.59555 13.4163 2.68372C13.708 2.99536 13.8574 3.41267 13.8239 3.82668C13.8189 3.88913 13.8084 3.95084 13.7953 4.01195C13.7632 4.00411 13.7312 3.99652 13.6992 3.98868C13.2787 3.94631 12.8757 4.01207 12.4907 4.18644C12.2895 4.27889 12.1037 4.40073 11.9385 4.54572C11.8951 4.15032 11.7494 3.77035 11.5181 3.44818C11.7921 3.08462 11.9395 2.63572 11.936 2.18179C12.0587 2.17554 12.1812 2.16918 12.3039 2.16293ZM8.23659 1.44952C8.22887 1.42908 8.21871 1.40997 8.21027 1.38977C8.21235 1.38732 8.21394 1.38475 8.21602 1.38218C8.445 1.11597 8.72823 0.920413 9.06534 0.79588C9.23065 0.758043 9.39572 0.720081 9.56115 0.682244C9.90193 0.648692 10.2284 0.694487 10.541 0.819755C10.6851 0.901063 10.8291 0.982248 10.9729 1.06356C11.3791 1.36895 11.6401 1.82753 11.6863 2.32004C11.7201 2.68139 11.6378 3.04875 11.4566 3.37006C11.3808 3.27357 11.2993 3.18124 11.2084 3.0976C11.0455 2.98323 10.8825 2.86886 10.7198 2.75437C10.3626 2.56971 9.98299 2.48228 9.58099 2.49245C9.38457 2.52404 9.18804 2.55588 8.9915 2.58747C8.72872 2.6678 8.49092 2.78817 8.27736 2.94699V2.94686C8.43251 2.46122 8.41916 1.92794 8.23659 1.44952ZM5.6629 3.06479C5.78131 2.97895 5.8996 2.89286 6.01813 2.8069C6.27724 2.6651 6.55214 2.59114 6.84236 2.58477C6.98415 2.60057 7.1262 2.61649 7.26775 2.63241C7.58368 2.71029 7.86421 2.88246 8.07115 3.11928C8.03099 3.15712 7.99168 3.1963 7.95348 3.23732C7.72719 3.48357 7.56151 3.77843 7.46049 4.09424C7.44983 4.08713 7.44017 4.07881 7.42939 4.07183C6.91203 3.73643 6.2683 3.6228 5.66706 3.75909C5.49575 3.82239 5.32432 3.8857 5.15314 3.94889C5.16281 3.90468 5.17358 3.86072 5.18705 3.81713C5.27889 3.52851 5.43746 3.27761 5.6629 3.06479ZM4.34997 10.2347C3.82294 10.1599 3.33644 9.86502 3.01096 9.42027C2.78222 9.10398 2.64422 8.74765 2.59646 8.35127C2.59818 8.16282 2.59977 7.97436 2.60173 7.78591C2.65329 7.40888 2.78724 7.06773 3.00337 6.76222C3.12839 6.62752 3.25342 6.49282 3.37844 6.35825C3.81339 5.99799 4.37667 5.83415 4.92097 5.91166C5.44739 5.98661 5.93425 6.28159 6.25985 6.72609C6.27148 6.74213 6.28189 6.75878 6.29303 6.77507C5.84523 6.74862 5.39424 6.88614 5.03888 7.16288C4.92623 7.27725 4.81345 7.39161 4.70068 7.50598C4.5061 7.7657 4.38585 8.05628 4.3403 8.37747C4.3392 8.53801 4.33822 8.69866 4.33748 8.85944C4.38193 9.19753 4.50806 9.50183 4.71623 9.7722C4.84027 9.93139 4.99076 10.0667 5.15767 10.1769C4.89562 10.252 4.62035 10.2733 4.34997 10.2347ZM9.16355 11.8409V10.4844C9.21179 10.4732 9.25979 10.4621 9.30804 10.4511C9.35567 10.4332 9.40012 10.4105 9.44555 10.3894C9.68923 10.2752 9.90205 10.1171 10.08 9.90922C10.1672 9.7744 10.2541 9.63934 10.3412 9.50427C10.4853 9.1952 10.5422 8.87059 10.5119 8.53091C10.4689 8.08175 10.2572 7.65966 9.92887 7.35194C10.105 7.59795 10.2141 7.89403 10.2344 8.20751C10.253 8.52172 10.1926 8.8243 10.0535 9.11488C9.9705 9.24247 9.88773 9.37007 9.80471 9.49766C9.60634 9.73179 9.36719 9.90616 9.08763 10.0205C8.94424 10.0581 8.8006 10.0956 8.65709 10.1331C8.205 10.1899 7.75045 10.0574 7.41359 9.76865C7.08762 9.48946 6.88386 9.07765 6.85496 8.63413C6.84455 8.46086 6.85913 8.29127 6.89697 8.12535C6.81627 8.36964 6.78725 8.62299 6.81064 8.88553C6.85594 9.36517 7.09289 9.81567 7.46012 10.1271C7.46943 10.135 7.47984 10.1416 7.48927 10.1495C7.4758 10.1639 7.4622 10.1785 7.44873 10.1931C7.20101 10.3983 6.90125 10.5227 6.59206 10.5571V11.9974L5.59041 10.3901C5.67196 10.4178 5.75608 10.4381 5.84119 10.454C5.56016 10.341 5.30901 10.1496 5.12362 9.896C4.93896 9.64069 4.82765 9.35305 4.7892 9.03308C4.79067 8.88099 4.7919 8.72903 4.79337 8.5767C4.83512 8.27253 4.94337 7.99726 5.11762 7.75064C5.21852 7.64191 5.31942 7.53329 5.42045 7.42468C5.77139 7.13398 6.22605 7.00161 6.66516 7.0643C6.89648 7.09724 7.11738 7.18431 7.31392 7.31325C7.34147 7.28215 7.37 7.25276 7.3989 7.22386C7.12791 6.9901 6.79068 6.83593 6.43336 6.78695C6.40912 6.78364 6.38488 6.78303 6.36051 6.78071C6.349 6.75903 6.33761 6.73736 6.32561 6.71593C6.35169 6.4889 6.42994 6.27804 6.56292 6.08457C6.63982 5.99885 6.7166 5.91326 6.7935 5.82742C6.96958 5.67558 7.16856 5.57309 7.39094 5.52019C7.50261 5.50892 7.61429 5.49766 7.72584 5.48639C8.07066 5.4968 8.39516 5.649 8.61325 5.90419C8.65427 5.9522 8.69003 6.00412 8.72284 6.05787C8.60701 6.14567 8.49092 6.23347 8.37508 6.32139C8.22128 6.47519 8.09296 6.64381 7.98961 6.82663C7.99377 6.82479 7.99756 6.82246 8.00185 6.82075C8.14548 6.7834 8.28876 6.74593 8.43252 6.70834C8.55582 6.69291 8.67913 6.69266 8.80024 6.70466C8.86587 6.65532 8.93138 6.60597 8.99689 6.55662C9.32726 6.36804 9.67956 6.26653 10.0535 6.25208C10.2365 6.26922 10.4194 6.28649 10.6024 6.30363C11.1529 6.42927 11.6257 6.7763 11.8958 7.25521C12.1568 7.71856 12.2192 8.28441 12.0648 8.81316C12.0033 9.019 11.9145 9.2099 11.8004 9.38721C11.9978 9.13716 12.1391 8.85467 12.2232 8.53923C12.3735 7.96151 12.289 7.33663 11.9935 6.8183C11.7152 6.32984 11.2575 5.95918 10.7266 5.77966C10.9474 5.74537 11.1754 5.74464 11.4018 5.78431C11.786 5.85362 12.133 6.01501 12.4427 6.268C12.5722 6.40515 12.7014 6.54217 12.8313 6.67944C13.0554 6.98728 13.1954 7.32635 13.2516 7.69677C13.2548 7.88069 13.258 8.06461 13.2612 8.24841C13.1972 8.80997 12.9047 9.31925 12.4584 9.64081C12.0938 9.90359 11.641 10.0317 11.1822 10.0089C11.1272 10.0503 11.0723 10.0917 11.0173 10.1331C10.7188 10.3034 10.4024 10.402 10.0686 10.4304L9.16355 11.8409ZM14.5834 8.30253C14.586 8.4409 14.5883 8.57915 14.5907 8.71752C14.5426 9.13961 14.3227 9.52252 13.987 9.76448C13.6623 9.99849 13.2443 10.0925 12.8358 10.0213C12.7203 10.0003 12.6104 9.9653 12.5039 9.92232C12.644 9.8584 12.7782 9.78138 12.9035 9.69004C13.4025 9.32697 13.7392 8.76577 13.8274 8.15486C13.8299 7.95587 13.832 7.75652 13.8348 7.55742C13.8133 7.3828 13.7727 7.21565 13.7157 7.055C13.8054 7.10508 13.8928 7.1608 13.9754 7.22827C14.0728 7.33137 14.17 7.43448 14.2675 7.53758C14.436 7.76901 14.5413 8.02408 14.5834 8.30253ZM15.2034 7.30578C15.1347 7.48174 15.0388 7.6457 14.9227 7.79461C14.8681 7.6484 14.7952 7.50942 14.7011 7.37864C14.5981 7.27002 14.4947 7.14059 14.3914 7.03185C14.143 6.83336 13.8614 6.76466 13.547 6.64221C13.5465 6.64221 13.546 6.64221 13.5455 6.64221C13.5035 6.64221 13.4581 6.51756 13.4076 6.44751C13.2705 6.30302 13.1333 6.1693 12.9958 6.02456C12.6654 5.76056 12.2908 5.60198 11.8727 5.53941C11.4329 5.4761 10.9821 5.54774 10.581 5.73142C10.578 5.73056 10.5749 5.73068 10.5719 5.72983C10.3745 5.70534 10.1768 5.68146 9.97945 5.65684C9.57719 5.66137 9.20114 5.76276 8.85093 5.9604C8.8464 5.96371 8.84187 5.96738 8.83734 5.97093C8.78187 5.84824 8.70901 5.73337 8.62023 5.63076C8.37422 5.34581 8.01593 5.16936 7.64013 5.14671C7.5189 5.1554 7.39755 5.16397 7.2762 5.17254C7.03582 5.22275 6.8224 5.32769 6.63566 5.48737C6.55472 5.57811 6.4739 5.66884 6.39308 5.7597C6.25189 5.9702 6.17242 6.20188 6.15344 6.45401C6.1483 6.44727 6.14377 6.44017 6.13862 6.43343C5.77213 5.96236 5.22477 5.649 4.63382 5.56794C4.58422 5.56108 4.53414 5.55864 4.4843 5.55509C4.53855 5.44219 4.59291 5.32916 4.64728 5.21626C4.8541 4.89691 5.12044 4.6449 5.44579 4.46025C5.61624 4.39143 5.7867 4.32261 5.95703 4.25404C6.44133 4.12889 6.95109 4.18681 7.38077 4.41078C7.36155 4.52319 7.35273 4.63743 7.35052 4.75192C7.43098 4.38555 7.61355 4.0395 7.88527 3.76092C8.15944 3.48308 8.48811 3.28801 8.87138 3.17548C9.05751 3.14609 9.24351 3.1167 9.42988 3.08732C9.81009 3.07593 10.1689 3.15173 10.5057 3.31434C10.6593 3.41549 10.8128 3.51651 10.966 3.61765C11.3389 3.94007 11.5803 4.38359 11.6445 4.8565C11.5258 5.00724 11.4274 5.17328 11.3492 5.34961C11.5652 5.04312 11.8673 4.79478 12.2255 4.64294C12.5855 4.49282 12.9641 4.43992 13.3609 4.48437C13.5439 4.52918 13.727 4.574 13.9101 4.61894C14.2651 4.7556 14.5666 4.96413 14.8144 5.24442C14.9168 5.397 15.0194 5.54945 15.1218 5.70203C15.3728 6.20812 15.4033 6.79381 15.2034 7.30578Z" fill="#869B14"/>
<path d="M14.8145 5.24416C14.5668 4.96387 14.2653 4.75533 13.9102 4.61868C13.727 4.57386 13.544 4.52904 13.361 4.4841C12.9642 4.43978 12.5855 4.49255 12.2255 4.64268C11.8672 4.79452 11.5651 5.04285 11.3493 5.34935C11.4275 5.17302 11.5258 5.00697 11.6446 4.85623C11.5803 4.38333 11.339 3.93981 10.9661 3.61739C10.8129 3.51625 10.6594 3.41522 10.5058 3.31408C10.169 3.15146 9.81017 3.07567 9.42995 3.08705C9.24358 3.11632 9.05758 3.14583 8.87145 3.17522C8.48818 3.28775 8.15964 3.48294 7.88535 3.76066C7.6135 4.03924 7.43105 4.38529 7.3506 4.75166C7.35293 4.63705 7.36162 4.52292 7.38085 4.41051C6.95116 4.18643 6.4414 4.1285 5.95711 4.25377C5.78678 4.32247 5.61632 4.39116 5.44586 4.45998C5.12051 4.64464 4.85418 4.89652 4.64736 5.216C4.59299 5.32902 4.53862 5.44192 4.48438 5.55482C4.53421 5.55825 4.58417 5.56082 4.63389 5.56768C5.22484 5.64874 5.7722 5.96209 6.1387 6.43317C6.14384 6.4399 6.14838 6.447 6.15352 6.45374C6.1725 6.20149 6.25197 5.96993 6.39315 5.75944C6.47397 5.66858 6.55479 5.57784 6.63573 5.48711C6.82235 5.32731 7.0359 5.22249 7.27627 5.17228C7.39762 5.16371 7.51885 5.15514 7.6402 5.14644C8.01601 5.1691 8.3743 5.34555 8.6203 5.6305C8.70908 5.73311 8.78182 5.84809 8.83741 5.97079C8.84194 5.96736 8.84648 5.96381 8.85101 5.9605C9.2011 5.76287 9.57727 5.66185 9.97952 5.65719C10.1769 5.68181 10.3745 5.70629 10.5719 5.73078C10.575 5.73164 10.5781 5.73287 10.5811 5.73373C10.982 5.55005 11.433 5.48098 11.8727 5.54429C12.2909 5.60686 12.6655 5.7707 12.9959 6.03471C13.1334 6.17932 13.2705 6.30276 13.4077 6.44713C13.4581 6.51717 13.5036 6.64183 13.5456 6.64183C13.546 6.64183 13.5465 6.64183 13.547 6.64183C13.8615 6.76428 14.1431 6.83297 14.3915 7.03147C14.4949 7.1402 14.5981 7.25922 14.7011 7.36784C14.7954 7.4985 14.8682 7.64287 14.9228 7.78895C15.0389 7.64005 15.1347 7.47878 15.2034 7.30282C15.4034 6.79085 15.3729 6.20639 15.1219 5.70054C15.0195 5.54784 14.9169 5.39674 14.8145 5.24416Z" fill="#65740F"/>
<path d="M14.2675 7.53727C14.17 7.43404 14.0728 7.33094 13.9754 7.22796C13.8927 7.16049 13.8053 7.10477 13.7157 7.05469C13.7728 7.21534 13.8133 7.38249 13.8348 7.55711C13.8321 7.75621 13.8301 7.95556 13.8274 8.15455C13.7392 8.76546 13.4025 9.32666 12.9035 9.68973C12.7783 9.78095 12.644 9.85809 12.5039 9.92201C12.6104 9.96499 12.7203 10 12.8357 10.021C13.2442 10.0922 13.6623 9.99818 13.987 9.76417C14.3227 9.52221 14.5426 9.1393 14.5907 8.71721C14.5883 8.57884 14.586 8.44059 14.5834 8.30222C14.5414 8.02377 14.4361 7.7687 14.2675 7.53727Z" fill="#65740F"/>
<path d="M11.182 10.0088C11.6408 10.0316 12.0937 9.90353 12.4582 9.64075C12.9044 9.31919 13.1971 8.80991 13.261 8.24835C13.2578 8.06455 13.2546 7.88063 13.2515 7.69671C13.1953 7.32641 13.0553 6.98722 12.8312 6.67938C12.7013 6.54199 12.5721 6.40509 12.4425 6.26794C12.1329 6.01496 11.7858 5.85356 11.4017 5.78425C11.1753 5.74458 10.9473 5.74532 10.7265 5.7796C11.2573 5.95912 11.7151 6.32978 11.9934 6.81824C12.2889 7.33657 12.3734 7.96144 12.2231 8.53917C12.1389 8.85461 11.9977 9.1371 11.8003 9.38715C11.9145 9.20996 12.0032 9.01894 12.0647 8.8131C12.2191 8.28435 12.1566 7.7185 11.8957 7.25514C11.6257 6.77623 11.1529 6.42921 10.6022 6.30357C10.4193 6.28643 10.2363 6.26916 10.0534 6.25202C9.67942 6.26659 9.32712 6.36798 8.99675 6.55656C8.93124 6.60591 8.86573 6.65525 8.8001 6.7046C8.67899 6.6926 8.55568 6.69272 8.43237 6.70827C8.28861 6.74574 8.14534 6.78334 8.00171 6.82068C7.99754 6.8224 7.99374 6.82485 7.98946 6.82656C8.09293 6.64362 8.22126 6.475 8.37494 6.32133C8.49078 6.23341 8.60674 6.14561 8.7227 6.05781C8.68989 6.00406 8.65413 5.95214 8.61311 5.90414C8.39502 5.64895 8.07052 5.49674 7.7257 5.48633C7.61414 5.49759 7.50247 5.50886 7.39079 5.52012C7.16842 5.57302 6.96944 5.67552 6.79336 5.82736C6.71646 5.9132 6.63967 5.99879 6.56277 6.08451C6.42979 6.2781 6.35155 6.48884 6.32546 6.71587C6.33759 6.7373 6.34886 6.75897 6.36037 6.78064C6.38461 6.78297 6.40885 6.78346 6.43322 6.78689C6.79054 6.83587 7.12777 6.99004 7.39875 7.2238C7.36986 7.2527 7.34121 7.28208 7.31378 7.31319C7.11736 7.18424 6.89633 7.09718 6.66502 7.06424C6.22591 7.00167 5.77125 7.13392 5.4203 7.42462C5.3194 7.53323 5.2185 7.64184 5.11748 7.75058C4.94323 7.9972 4.83498 8.27247 4.79323 8.57664C4.79176 8.72885 4.79053 8.88081 4.78906 9.03302C4.82751 9.35299 4.93895 9.64063 5.12348 9.89594C5.30899 10.1494 5.56002 10.3409 5.84105 10.454C5.95786 10.5008 6.07921 10.5356 6.20424 10.5535C6.33318 10.5717 6.46322 10.5714 6.59192 10.5571C6.90111 10.5226 7.20099 10.3982 7.44859 10.193C7.46206 10.1784 7.47565 10.1639 7.48912 10.1494C7.47969 10.1416 7.46929 10.1351 7.45998 10.127C7.09275 9.81561 6.8558 9.36511 6.81049 8.88546C6.78711 8.62293 6.81613 8.36958 6.89682 8.12529C6.85899 8.29121 6.84441 8.4608 6.85482 8.63407C6.8836 9.07747 7.08736 9.48927 7.41345 9.76859C7.75031 10.0572 8.20486 10.1898 8.65695 10.133C8.80046 10.0955 8.9441 10.0581 9.08749 10.0205C9.36692 9.9061 9.60606 9.73185 9.80456 9.4976C9.8877 9.37001 9.97036 9.24241 10.0534 9.11482C10.1926 8.82424 10.253 8.52166 10.2342 8.20745C10.2139 7.89398 10.1048 7.59789 9.92873 7.35188C10.257 7.65972 10.4687 8.08169 10.5117 8.53084C10.542 8.87053 10.485 9.19515 10.341 9.50421C10.254 9.63928 10.167 9.77434 10.0798 9.90916C9.90191 10.1171 9.68921 10.2752 9.44541 10.3893C9.61709 10.4056 9.78877 10.4219 9.96032 10.4378C9.99657 10.4363 10.0323 10.4335 10.0682 10.4304C10.402 10.4022 10.7184 10.3035 11.017 10.1331C11.0722 10.0916 11.127 10.0502 11.182 10.0088Z" fill="#65740F"/>
<path d="M4.71547 9.77197C4.5073 9.50159 4.38117 9.1973 4.33672 8.85921C4.33758 8.69843 4.33856 8.53778 4.33954 8.37724C4.38509 8.05605 4.50534 7.76547 4.69992 7.50575C4.81269 7.39138 4.92547 7.27701 5.03813 7.16264C5.39348 6.8859 5.84447 6.74839 6.29228 6.77484C6.28114 6.75855 6.27072 6.7419 6.25909 6.72586C5.93349 6.28136 5.44663 5.98637 4.92021 5.91143C4.37603 5.83392 3.81263 5.99788 3.37769 6.35801C3.25278 6.49259 3.12763 6.62728 3.00261 6.76198C2.78636 7.0675 2.65252 7.40865 2.60097 7.78568C2.59901 7.97413 2.59742 8.16258 2.5957 8.35104C2.64346 8.74741 2.78146 9.10375 3.0102 9.42004C3.33568 9.86491 3.8223 10.1596 4.34921 10.2345C4.61959 10.273 4.89486 10.2519 5.15666 10.1764C4.99 10.0665 4.83939 9.93103 4.71547 9.77197Z" fill="#65740F"/>
</svg>
