<svg width="21" height="12" viewBox="0 0 21 12" fill="none" xmlns="http://www.w3.org/2000/svg">
<path d="M20.9064 9.24543C20.8646 9.16925 20.8099 9.09618 20.7431 9.02612C20.5184 8.79036 20.5752 8.96377 20.3983 8.78103C20.2751 8.65372 20.38 8.51416 20.4833 8.28419C20.5283 8.1841 20.573 8.06712 20.5984 7.92619C20.6822 7.46147 20.511 7.42906 20.1704 7.24543C19.9907 7.14859 19.9122 7.02612 19.807 6.95318C19.7129 6.88785 19.5974 6.86217 19.368 6.93195C18.8823 7.07962 18.6756 7.71687 18.4399 8.04193C18.331 8.19214 18.0423 8.25266 17.7632 8.27441C17.6341 7.6743 17.48 7.27198 17.1656 6.83634C16.9278 6.50669 16.5984 6.15769 16.1176 5.6885C14.7576 4.36122 13.1678 3.56722 12.5607 2.63773C11.3574 0.795403 7.64667 -0.347367 4.64627 0.0952546V0.0953017C4.5718 0.0899521 4.496 0.0854388 4.41818 0.0822219C4.41818 0.0822219 2.98843 0.0822222 2.4505 1.30381C2.03231 2.25342 2.03094 3.56796 1.54126 4.55933C0.808946 6.04191 0.218586 6.37817 0.0442426 8.06204C-0.130111 9.74589 0.233562 10.1656 0.73922 10.9778C1.06759 11.5053 2.02947 11.9089 3.75563 11.9287C4.11565 11.9328 4.58237 11.9511 5.08047 11.9632V11.9632C5.08047 11.9632 5.0819 11.9632 5.08227 11.9632C5.34914 11.9697 5.62475 11.9742 5.89818 11.9739C6.05504 11.9758 6.23047 11.9777 6.42131 11.9798C8.74693 12.0044 13.3381 12.0335 13.9208 11.8876C14.7054 11.691 15.612 11.9543 16.292 11.8297C16.2976 11.8286 16.3034 11.8271 16.309 11.826C16.505 11.7867 16.7428 11.68 16.9761 11.5086C17.4324 11.1733 17.87 10.5901 17.9396 9.77617C18.1306 9.81852 18.3647 9.93362 18.6073 10.2042C19.1921 10.8563 19.7206 10.5752 20.2387 10.5021C20.7568 10.429 20.8615 10.1557 20.9608 9.84328C20.9711 9.81071 20.9789 9.77873 20.9852 9.7471C21.021 9.56537 20.9907 9.39888 20.9064 9.24543Z" fill="#DDD0BF"/>
<path d="M17.9401 9.3279C17.9339 9.24876 17.9248 9.16805 17.9116 9.08536C17.9105 9.07876 17.9099 9.07238 17.9088 9.06575C17.8926 8.96789 17.8769 8.87491 17.8612 8.78549C17.8429 8.68024 17.8247 8.58025 17.8063 8.48536C17.8007 8.45637 17.7951 8.42827 17.7894 8.40015C17.7808 8.35728 17.772 8.31536 17.7632 8.27441C17.6341 7.6743 17.48 7.27198 17.1656 6.83634C16.9278 6.50669 16.5984 6.15768 16.1176 5.68849C14.7576 4.36121 13.1678 3.56722 12.5607 2.63773C11.3574 0.795403 7.64667 -0.347379 4.64627 0.0952428V0.0952899C4.5718 0.0899402 4.496 0.0854388 4.41818 0.0822219C4.41818 0.0822219 2.98843 0.0822222 2.4505 1.30381C2.03231 2.25342 2.03094 3.56796 1.54126 4.55933C0.808946 6.04191 0.218586 6.37817 0.0442426 8.06204C-0.130111 9.74589 0.233562 10.1656 0.73922 10.9778C1.06759 11.5053 2.02947 11.9089 3.75563 11.9287C4.11565 11.9328 4.58237 11.9511 5.08047 11.9632C5.08107 11.9632 5.08167 11.9632 5.08227 11.9632C5.34914 11.9697 5.62475 11.9742 5.89818 11.9739C6.07404 11.9737 6.24863 11.9714 6.41937 11.9662C6.42 11.9707 6.42046 11.9753 6.42131 11.9797C8.74693 12.0044 13.3381 12.0335 13.9208 11.8875C14.7054 11.691 15.612 11.9542 16.292 11.8296C16.2976 11.8286 16.3034 11.8271 16.309 11.826C16.505 11.7866 16.7428 11.68 16.9761 11.5085C17.4324 11.1732 17.87 10.59 17.9396 9.77615C17.9518 9.63378 17.9524 9.48425 17.9401 9.3279Z" fill="#7C3939"/>
<path d="M8.86432 7.88741C8.5679 6.0419 8.00995 5.49038 8.00995 4.91589C8.00995 4.34139 8.14678 4.10485 8.00995 3.03393C7.91901 2.32207 7.69325 1.4838 6.95946 0.88161C6.61419 0.598266 6.15614 0.367358 5.54695 0.226322C5.27746 0.16394 4.97838 0.119151 4.64626 0.095278C4.57179 0.0899284 4.49599 0.0854155 4.41817 0.0821986C4.41817 0.0821986 2.98842 0.0821985 2.45049 1.30379C2.0323 2.25339 2.03093 3.56794 1.54125 4.5593C0.808936 6.04188 0.218575 6.37815 0.0442323 8.06201C-0.130121 9.74587 0.233552 10.1656 0.739209 10.9778C1.06758 11.5053 2.02946 11.9089 3.75562 11.9287C4.11564 11.9328 4.58236 11.9511 5.08046 11.9632C5.08106 11.9632 5.08166 11.9632 5.08226 11.9632C5.34913 11.9696 5.62474 11.9742 5.89817 11.9739C6.07403 11.9737 6.24862 11.9713 6.41936 11.9662C7.28952 11.9401 8.05389 11.8392 8.30639 11.5523C8.82945 10.958 9.13727 9.58691 8.86432 7.88741Z" fill="#F7B9B3"/>
<path d="M6.41457 3.09336C6.6238 2.78631 6.43816 2.62836 6.39714 2.37029C6.31119 1.82945 5.86949 1.43126 5.66094 1.2703C5.63891 1.26753 5.61691 1.26447 5.59509 1.26093C5.28996 1.21141 5.17663 1.30056 5.17663 1.30056C5.17663 1.30056 4.90638 1.59771 4.60126 1.5878C4.29612 1.57789 4.19151 1.61752 3.82535 1.78591C3.79285 1.80085 3.76524 1.81734 3.73974 1.83448C3.92713 2.17813 4.32704 2.8634 5.53406 2.74675C6.14978 2.68723 6.20535 3.40041 6.41457 3.09336Z" fill="#CF5651"/>
<path d="M6.33611 4.20273C6.23765 4.79007 6.30946 5.31601 6.85612 5.88764C6.89027 5.92333 6.92589 5.95916 6.96381 5.99526C7.4439 6.45204 7.75004 6.08661 7.87532 5.86971C7.78891 5.6456 7.70441 5.4499 7.62637 5.29228C7.31253 4.65836 7.52175 4.59892 7.57405 3.84615C7.59732 3.51145 7.6528 2.86739 7.41224 2.23084C7.24018 1.77553 6.91646 1.3242 6.32087 0.99254C6.31302 1.03562 6.30131 1.08723 6.28381 1.14207C6.25363 1.2366 6.09861 1.27924 5.90974 1.28376C6.06147 1.46607 6.39137 1.89316 6.53662 2.32077C6.72842 2.88536 6.44074 3.57871 6.33611 4.20273Z" fill="#CF5651"/>
<path d="M1.51393 9.77323C1.586 9.76454 1.66713 9.75592 1.75919 9.73966C2.1515 9.67032 2.0992 9.35336 2.25612 8.78877C2.41304 8.22419 2.43919 8.00628 2.26484 7.81807C2.09048 7.62988 1.95972 8.23409 1.83766 8.51143C1.71561 8.78877 1.71561 8.79869 1.39304 8.80859C1.1464 8.81616 1.11845 8.737 0.963283 8.69483C0.915512 8.68186 0.856136 8.67225 0.774078 8.66992C0.539726 8.66327 0.392369 8.77274 0.320671 8.84539C0.328989 9.61609 0.480142 10.2132 0.782375 10.6338C0.872585 10.5434 1.00902 10.3736 1.07048 10.126C1.14387 9.83031 1.27891 9.80153 1.51393 9.77323Z" fill="#CF5651"/>
<path d="M0.953368 8.49111C1.08465 8.51609 1.21014 8.56363 1.30587 8.63028C1.57612 8.81849 1.63714 8.4817 1.88124 8.0855C2.12535 7.6893 2.0033 7.78834 2.3433 7.46148C2.6833 7.13462 3.09305 7.38224 3.43305 7.19405C3.77305 7.00585 3.71201 6.61954 3.43305 6.24316C3.15407 5.86676 2.84024 5.9262 2.76659 5.42104C2.69295 4.91588 2.82279 5.03474 2.89254 4.49987C2.92857 4.22348 2.8575 4.00589 2.78041 3.85954C2.74738 3.79682 2.71351 3.74719 2.6862 3.71195C2.65975 3.73615 2.63275 3.76373 2.60484 3.79661C2.36945 4.07396 2.48279 4.34139 2.2997 4.62864C2.18946 4.80161 2.07636 4.84141 2.00358 4.84594C1.94643 4.97679 1.8806 5.09974 1.80278 5.21304C1.25595 6.00907 0.375588 7.10649 0.323461 8.60776C0.459098 8.47589 0.715728 8.4459 0.953368 8.49111Z" fill="#CF5651"/>
<path d="M4.94124 10.2448C5.36843 10.2052 5.47304 10.225 5.69098 9.96748C5.90894 9.70995 6.06585 9.57127 6.45816 9.48213C6.85047 9.39299 7.06843 9.40289 7.3474 9.09583C7.62637 8.78877 7.51304 8.43219 7.81816 7.89732C8.12329 7.36244 8.08842 7.56055 8.25406 7.34263C8.28102 7.30718 8.29998 7.26815 8.31384 7.22792C8.22374 6.89469 8.12619 6.57778 8.02754 6.28989C7.92896 6.50907 7.64504 6.59181 7.41714 6.60967C7.30615 6.61837 7.13465 6.5277 6.96464 6.38562C6.74741 6.20407 6.53259 5.93853 6.44946 5.6885C6.30124 5.24277 6.17048 5.3022 6.11817 4.84668C6.06586 4.39115 6.16176 4.30179 6.23151 4.00463C6.30124 3.70748 6.30998 3.69757 6.10946 3.28156C5.90895 2.86554 5.72587 3.02403 5.38586 2.88536C5.04587 2.74669 4.92382 2.85564 4.56638 2.82593C4.2425 2.799 3.70389 2.1052 3.60561 1.97517C3.51283 2.14113 3.56116 2.3467 3.55511 2.51886C3.54638 2.76649 3.55511 2.84573 3.28485 3.22212C3.16784 3.38508 3.06882 3.46255 2.97503 3.52061C2.93207 3.5472 2.89018 3.56987 2.84821 3.59462C2.86524 3.62077 2.88243 3.65148 2.89916 3.68621C3.00141 3.89835 3.08656 4.25699 3.0146 4.59892C2.9187 5.05455 2.92742 5.19323 2.97101 5.47056C3.0146 5.74791 3.43307 5.89649 3.64617 6.17382C3.85928 6.45116 3.87768 6.60965 3.77306 7.09499C3.66845 7.58034 3.41562 7.43178 3.02332 7.44167C2.63101 7.45158 2.58742 7.51101 2.47409 7.67939C2.36076 7.84778 2.53512 7.88739 2.53512 8.30341C2.53512 8.71942 2.44795 8.78876 2.40436 9.20477C2.36077 9.62079 2.16897 9.70003 1.96711 9.79908C1.88229 9.8407 1.79666 9.86305 1.71099 9.88457C1.59275 9.91426 1.47447 9.94232 1.35821 10.017C1.15769 10.1458 1.21 10.2448 1.07924 10.542C1.01795 10.6812 0.96068 10.7569 0.916923 10.7986C1.17658 11.0785 1.52264 11.258 1.95975 11.3344C2.29449 11.3929 2.91986 11.4462 3.64653 11.4795C3.64678 11.44 3.66302 11.3867 3.71203 11.3146C3.86025 11.0967 3.99102 10.9382 4.1305 10.6014C4.26995 10.2646 4.51406 10.2844 4.94124 10.2448Z" fill="#CF5651"/>
<path d="M3.02083 3.30551C3.02745 3.30081 3.03429 3.29634 3.04073 3.29147C3.27611 3.11318 3.32842 2.7665 3.34585 2.32077C3.3633 1.87504 3.6074 1.68684 3.86022 1.54816C4.11303 1.4095 4.35714 1.46892 4.59251 1.45902C4.8279 1.44911 4.85406 1.26092 5.05457 1.12225C5.25508 0.983584 5.41201 1.15197 5.63868 1.08264C5.77689 1.04036 5.82416 0.887797 5.84014 0.775006C5.46952 0.640156 5.02257 0.542778 4.48294 0.498237C4.48294 0.498237 3.61462 0.319835 3.0463 0.961797C2.88227 1.14708 2.74306 1.40019 2.65714 1.74628C2.44927 2.58363 2.38479 3.39404 2.23662 4.08307C2.29634 3.9497 2.35895 3.80354 2.38688 3.7174C2.44625 3.53433 2.78569 3.47278 3.02083 3.30551Z" fill="#CF5651"/>
<path d="M1.51393 9.77323C1.16978 9.5625 0.937095 9.32688 0.965866 9.15526C0.988268 9.02161 0.974702 8.86741 0.963283 8.69483C0.915512 8.68186 0.856136 8.67225 0.774078 8.66992C0.539726 8.66327 0.392369 8.77274 0.320671 8.84539C0.328989 9.61609 0.480142 10.2132 0.782375 10.6338C0.872585 10.5434 1.00902 10.3736 1.07048 10.126C1.14387 9.83031 1.27891 9.80153 1.51393 9.77323Z" fill="#C04B4B"/>
<path d="M0.953368 8.49111C0.94588 8.16807 0.988268 7.79176 1.2797 7.37234C1.80279 6.61956 2.18638 6.73842 2.32587 5.86677C2.46535 4.99513 2.22125 4.95551 2.4828 4.34139C2.57599 4.12255 2.68462 3.98677 2.78041 3.85956C2.74738 3.79683 2.71351 3.74719 2.6862 3.71195C2.65975 3.73615 2.63275 3.76373 2.60484 3.79661C2.36945 4.07396 2.48279 4.34139 2.2997 4.62864C2.18946 4.80161 2.07636 4.84142 2.00358 4.84595C1.94643 4.9768 1.8806 5.09975 1.80278 5.21305C1.25595 6.00908 0.375588 7.10651 0.323461 8.60778C0.459098 8.4759 0.715728 8.4459 0.953368 8.49111Z" fill="#C04B4B"/>
<path d="M3.712 11.3146C3.86022 11.0967 3.99098 10.9382 4.13047 10.6014C4.26995 10.2646 4.51404 10.2844 4.94123 10.2448C5.36842 10.2052 5.47302 10.225 5.69097 9.96748C5.90892 9.70995 6.06584 9.57127 6.45815 9.48213C6.85046 9.39299 7.06842 9.40289 7.34739 9.09583C7.62636 8.78877 7.51303 8.43219 7.81815 7.89732C8.12328 7.36244 8.08841 7.56055 8.25405 7.34263C8.28101 7.30718 8.29998 7.26815 8.31384 7.22792C8.22374 6.89469 8.12618 6.57778 8.02753 6.28989C7.92895 6.50907 7.64503 6.59181 7.41713 6.60967C7.30614 6.61837 7.13464 6.5277 6.96463 6.38562C7.12243 7.07646 7.2879 7.80954 7.05099 8.4421C6.70227 9.37318 5.67356 9.21469 4.94124 9.37318C4.20893 9.53167 4.10432 10.1656 3.23252 10.2646C2.78549 10.3154 2.18294 10.1316 1.71096 9.88459C1.59272 9.91429 1.47444 9.94234 1.35817 10.017C1.15766 10.1458 1.20997 10.2448 1.0792 10.542C1.01792 10.6812 0.960649 10.7569 0.916892 10.7986C1.17655 11.0785 1.52261 11.258 1.95972 11.3344C2.29446 11.3929 2.91983 11.4462 3.6465 11.4796C3.64675 11.44 3.66299 11.3867 3.712 11.3146Z" fill="#C04B4B"/>
<path d="M2.84819 3.59463C2.86522 3.62078 2.88241 3.6515 2.89914 3.68622C2.92852 3.63584 2.95432 3.5819 2.97501 3.52062C2.93205 3.5472 2.89017 3.56988 2.84819 3.59463Z" fill="#C04B4B"/>
<path d="M3.00586 2.81603C2.88388 1.86569 2.90749 1.46859 3.0463 0.961797C2.88227 1.14708 2.74306 1.40019 2.65714 1.74628C2.44927 2.58363 2.38479 3.39404 2.23662 4.08307C2.29634 3.9497 2.35895 3.80354 2.38688 3.7174C2.44624 3.53435 2.78569 3.4728 3.02082 3.30552C3.03478 3.17677 3.03193 3.01911 3.00586 2.81603Z" fill="#C04B4B"/>
<path d="M6.14432 9.84862C5.93508 9.79909 5.9438 10.017 5.81303 10.1854C5.68227 10.3538 5.57765 10.4132 5.1592 10.4132C4.74073 10.4132 4.68843 10.3538 4.37458 10.4726C4.06073 10.5915 4.14791 10.9184 4.13048 11.2254C4.12291 11.3588 4.10381 11.4435 4.08465 11.4967C4.64289 11.515 5.23558 11.521 5.78812 11.5086C5.91774 11.2811 6.19271 10.7835 6.33612 10.4132C6.5279 9.91794 6.35355 9.89813 6.14432 9.84862Z" fill="#C04B4B"/>
<path d="M7.87047 8.17465C7.68739 8.55105 7.77456 8.82839 7.63508 9.20477C7.49559 9.58117 7.29508 9.49202 7.02482 9.49202C6.75457 9.49202 6.64123 9.59108 6.5279 9.69012C6.41457 9.78917 6.64995 10.0962 6.48432 10.4231C6.31868 10.75 6.22277 10.8886 6.12688 11.2353C6.09308 11.3575 6.06688 11.4422 6.04695 11.5014C7.02544 11.4682 7.83083 11.3716 8.00995 11.1759C8.4633 10.6806 8.812 9.67031 8.58534 8.42228C8.53769 8.15997 8.48123 7.89801 8.41939 7.64139C8.2959 7.78621 8.0247 7.85756 7.87047 8.17465Z" fill="#C04B4B"/>
<path d="M7.13816 4.02443C6.94637 4.5395 6.70226 4.5395 6.78945 5.45076C6.80289 5.59127 6.82674 5.73748 6.85612 5.88764C6.89027 5.92333 6.92589 5.95916 6.96381 5.99526C7.4439 6.45204 7.75004 6.08661 7.87532 5.86971C7.78891 5.6456 7.70441 5.4499 7.62637 5.29228C7.31253 4.65836 7.52175 4.59892 7.57405 3.84615C7.59732 3.51145 7.6528 2.86739 7.41224 2.23084C7.34492 2.32117 7.28035 2.48469 7.24278 2.7764C7.13816 3.58862 7.32996 3.50938 7.13816 4.02443Z" fill="#C04B4B"/>
<path d="M17.9401 9.3279C17.9339 9.24876 17.9248 9.16805 17.9116 9.08536C17.9105 9.07876 17.9099 9.07238 17.9088 9.06575C17.8926 8.96789 17.8769 8.87491 17.8612 8.78549C17.8429 8.68024 17.8247 8.58025 17.8063 8.48536C17.8007 8.45637 17.7951 8.42827 17.7894 8.40015C17.7808 8.35728 17.772 8.31536 17.7632 8.27441C17.6341 7.6743 17.48 7.27198 17.1656 6.83634C17.3275 7.31406 17.3864 7.90359 17.373 8.28361C17.3556 8.77886 17.2161 8.79868 16.6407 8.8383C16.0653 8.87792 15.7515 8.54114 14.4961 8.48172C13.2407 8.42228 12.892 8.89773 12.212 9.09583C11.532 9.29394 10.7997 8.99678 10.4859 8.71944C10.172 8.4421 10.2243 7.70912 9.94533 6.61024C9.66636 5.51136 9.492 5.23286 8.96588 4.30179C8.43976 3.37071 8.65507 3.3509 8.56789 2.74675C8.48072 2.14259 7.92277 1.44912 7.48687 0.953878C7.05097 0.45862 5.54693 0.226345 5.54693 0.226345C6.15613 0.36737 6.61418 0.598278 6.95944 0.881634C7.69323 1.48382 7.91898 2.32209 8.00993 3.03395C8.14676 4.10488 8.00993 4.34142 8.00993 4.91592C8.00993 5.49041 8.56788 6.04192 8.8643 7.88743C9.13725 9.58694 8.82943 10.958 8.30635 11.5523C8.05384 11.8392 7.28948 11.9401 6.41932 11.9662C6.41994 11.9708 6.42041 11.9753 6.42126 11.9798C8.74688 12.0044 13.3381 12.0335 13.9207 11.8875C14.7053 11.691 15.612 11.9542 16.292 11.8297C16.2975 11.8286 16.3034 11.8271 16.309 11.826C16.505 11.7867 16.7428 11.68 16.9761 11.5085C17.4323 11.1733 17.8699 10.5901 17.9396 9.77616C17.9518 9.63378 17.9524 9.48425 17.9401 9.3279Z" fill="#6D3232"/>
<path d="M8.0665 1.11235C8.3761 1.64723 8.20444 1.92456 8.65642 2.22172C9.10842 2.51887 9.35251 2.49905 9.98021 2.5585C10.6079 2.61794 10.8373 2.49906 11.298 2.85566C11.7587 3.21223 12.0028 3.27167 12.0028 3.27167C12.0028 3.27167 12.7572 3.46395 12.5258 2.87547C12.2945 2.28699 12.0551 2.47928 11.6366 2.02363C11.2182 1.56801 10.5232 1.21142 9.92916 0.973698C9.33508 0.735979 8.23662 0.280337 7.52175 0.220913C7.52175 0.220913 7.10328 0.175052 7.31253 0.47533C7.52175 0.775572 7.7569 0.57748 8.0665 1.11235Z" fill="#8D4243"/>
<path d="M13.3802 5.64886C13.6766 6.16393 13.5197 6.54031 14.0951 6.46108C14.6705 6.38184 14.7228 6.34352 15.211 6.47164C15.6992 6.59976 15.7515 6.74833 16.3269 7.18911C16.9023 7.62988 17.094 7.56055 17.0069 7.18911C16.9197 6.81766 16.5361 6.44069 16.1176 5.99526C15.6992 5.54982 15.5793 5.27271 14.8982 4.84668C14.2171 4.42065 13.4325 3.44995 12.9618 3.41032C12.9618 3.41032 12.6479 3.58862 12.8223 4.10369C12.9966 4.61874 13.0838 5.13381 13.3802 5.64886Z" fill="#8D4243"/>
<path d="M20.9064 9.24543C20.8646 9.16925 20.8099 9.09618 20.7431 9.02612C20.5184 8.79036 20.5752 8.96377 20.3983 8.78103C20.2751 8.65372 20.38 8.51416 20.4833 8.28419C20.5283 8.1841 20.573 8.06712 20.5984 7.92619C20.6822 7.46147 20.511 7.42906 20.1704 7.24543C19.9907 7.14859 19.9122 7.02612 19.807 6.95318C19.8039 7.0345 19.7495 7.08277 19.8728 7.30777C20.0554 7.64081 20.3014 7.54911 20.2508 7.90236C20.2002 8.25562 20.0555 8.38408 20.0555 8.38408C20.0555 8.38408 19.5186 8.58114 19.628 8.91952C19.7374 9.2579 20.09 9.30274 19.9477 9.58251C19.8055 9.86228 19.0503 9.68645 18.8346 9.46487C18.6188 9.24329 18.4471 9.08253 18.0627 9.09144C18.0106 9.09264 17.9601 9.08984 17.9116 9.08535C17.9247 9.16804 17.9339 9.24875 17.9401 9.32788C17.9523 9.48424 17.9518 9.63376 17.9396 9.77612C18.1306 9.81847 18.3647 9.93357 18.6073 10.2041C19.1921 10.8562 19.7206 10.5751 20.2387 10.502C20.7567 10.429 20.8615 10.1557 20.9608 9.84322C20.9711 9.81065 20.9789 9.77867 20.9851 9.74705C21.021 9.56537 20.9907 9.39888 20.9064 9.24543Z" fill="#C6BAAC"/>
<path d="M20.1105 8.63216C20.012 8.97172 20.0066 9.07474 20.3564 9.17108C20.6093 9.24075 20.7835 9.18035 20.9064 9.24543C20.8646 9.16925 20.8099 9.09618 20.7431 9.02612C20.5184 8.79036 20.5752 8.96377 20.3983 8.78103C20.2751 8.65372 20.38 8.51416 20.4833 8.28419C20.314 8.3509 20.1777 8.40032 20.1105 8.63216Z" fill="#A69484"/>
<path d="M19.7415 10.2218C19.1969 10.1825 19.1563 10.2624 18.7609 9.90962C18.4818 9.66051 18.2174 9.38006 17.9401 9.3279C17.9524 9.48425 17.9518 9.63377 17.9396 9.77613C18.1306 9.81848 18.3647 9.93358 18.6073 10.2041C19.1921 10.8562 19.7206 10.5751 20.2387 10.502C20.7568 10.429 20.8615 10.1557 20.9608 9.84323C20.9711 9.81066 20.9789 9.77868 20.9851 9.74706C20.9317 9.79132 20.8558 9.84224 20.7543 9.91381C20.4228 10.1476 20.286 10.2611 19.7415 10.2218Z" fill="#A69484"/>
<path d="M18.6018 8.79234C19.0253 8.44395 19.0152 8.27474 19.2919 7.87131C19.5686 7.46786 19.7742 7.39408 19.5711 7.16302C19.5711 7.16302 19.5687 6.88822 19.1844 7.16237C18.8 7.43651 18.9784 7.61355 18.7011 7.95127C18.4238 8.289 18.4664 8.34363 18.0529 8.41869C17.9542 8.43661 17.8715 8.45952 17.8063 8.48536C17.8247 8.58025 17.8429 8.68026 17.8612 8.78551C18.1243 8.9034 18.2044 9.11931 18.6018 8.79234Z" fill="#F2EBE4"/>
<path d="M17.9401 9.3279C17.9339 9.24876 17.9248 9.16805 17.9116 9.08536C17.9105 9.07876 17.9099 9.07238 17.9088 9.06575C17.8926 8.96789 17.8769 8.87491 17.8612 8.78549C17.8429 8.68024 17.8247 8.58025 17.8063 8.48536C17.8007 8.45637 17.7951 8.42827 17.7894 8.40015C17.7706 8.52069 17.7383 8.64222 17.6869 8.75905C17.4079 9.39298 17.4428 9.17505 17.251 9.78917C17.0592 10.4033 16.7453 10.5816 16.7453 10.5816H15.7341L14.6879 10.7401C14.6879 10.7401 12.8746 9.98729 12.2992 10.4231C11.7238 10.8589 11.0264 11.0372 10.3115 10.849C9.59662 10.6608 9.1956 10.2844 9.26535 9.74956C9.33508 9.21468 9.59663 8.8581 9.45714 8.08551C9.31766 7.31292 9.21304 6.95634 8.84689 6.14412C8.48074 5.33191 8.42843 5.35172 8.39355 4.59893C8.35868 3.84615 8.66691 3.47466 8.20175 2.3604C7.7366 1.24613 6.95946 0.881634 6.95946 0.881634C7.69325 1.48382 7.919 2.32209 8.00995 3.03395C8.14678 4.10488 8.00995 4.34142 8.00995 4.91592C8.00995 5.49041 8.5679 6.04192 8.86432 7.88743C9.13727 9.58694 8.82945 10.958 8.30637 11.5523C8.05386 11.8392 7.2895 11.9401 6.41934 11.9662C6.41996 11.9708 6.42043 11.9753 6.42128 11.9798C8.7469 12.0044 13.3381 12.0335 13.9207 11.8875C14.7053 11.691 15.612 11.9542 16.292 11.8297C16.2975 11.8286 16.3034 11.8271 16.309 11.826C16.505 11.7867 16.7428 11.68 16.9761 11.5085C17.4324 11.1733 17.87 10.5901 17.9396 9.77616C17.9518 9.63378 17.9524 9.48425 17.9401 9.3279Z" fill="#5E2D2D"/>
</svg>
