<svg width="18" height="18" viewBox="0 0 18 18" fill="none" xmlns="http://www.w3.org/2000/svg">
<path d="M1.43696 7.90725L1.36304 8.42172H1.8828H2.7C2.81924 8.42172 2.93359 8.46909 3.0179 8.5534C3.10221 8.63771 3.14958 8.75206 3.14958 8.8713V13.5C3.14958 13.6192 3.10221 13.7336 3.0179 13.8179C2.93359 13.9022 2.81924 13.9496 2.7 13.9496H1.8C1.02403 13.9496 0.45042 13.3707 0.45042 12.7287V9C0.45042 4.28616 4.28616 0.45042 9 0.45042C13.7138 0.45042 17.5496 4.28616 17.5496 9V12.7287C17.5496 13.3707 16.976 13.9496 16.2 13.9496H15.7496V14.4C15.7496 16.1366 14.3366 17.5496 12.6 17.5496H7.65042V15.7504H10.3496V16.2V16.6504H10.8H12.6C13.8415 16.6504 14.8504 15.6415 14.8504 14.4V8.8713C14.8504 8.75206 14.8978 8.63771 14.9821 8.5534C15.0664 8.46909 15.1808 8.42172 15.3 8.42172H16.1172H16.637L16.563 7.90725C16.0314 4.20671 12.848 1.34958 9 1.34958C5.15197 1.34958 1.96861 4.20671 1.43696 7.90725Z" stroke="#858585" stroke-width="0.90084"/>
</svg>
