<svg width="19" height="19" viewBox="0 0 19 19" fill="none" xmlns="http://www.w3.org/2000/svg">
<path d="M9.5 0C7.62108 0 5.78435 0.530634 4.22209 1.5248C2.65982 2.51896 1.44218 3.93201 0.723149 5.58524C0.0041162 7.23848 -0.184015 9.05765 0.182544 10.8127C0.549104 12.5678 1.45389 14.1799 2.78249 15.4452C4.11109 16.7106 5.80383 17.5723 7.64665 17.9214C9.48946 18.2705 11.3996 18.0913 13.1355 17.4065C14.8714 16.7217 16.3551 15.5621 17.399 14.0742C18.4428 12.5863 19 10.8371 19 9.04762C18.9976 6.64875 17.9959 4.34879 16.2148 2.65253C14.4338 0.956271 12.0188 0.00230329 9.5 0ZM9.5 16.7033C7.91015 16.7033 6.35599 16.2543 5.03407 15.4131C3.71216 14.5719 2.68185 13.3762 2.07343 11.9773C1.46502 10.5784 1.30583 9.03912 1.616 7.55407C1.92616 6.06901 2.69175 4.7049 3.81595 3.63424C4.94015 2.56357 6.37247 1.83444 7.93178 1.53904C9.49109 1.24365 11.1074 1.39525 12.5762 1.97469C14.045 2.55413 15.3005 3.53538 16.1837 4.79435C17.067 6.05332 17.5385 7.53347 17.5385 9.04762C17.536 11.0773 16.6884 13.0232 15.1814 14.4585C13.6744 15.8937 11.6312 16.701 9.5 16.7033ZM10.5962 13.5714C10.5962 13.7779 10.5319 13.9797 10.4114 14.1514C10.291 14.3231 10.1198 14.4569 9.91948 14.5359C9.71919 14.6149 9.49879 14.6356 9.28615 14.5953C9.07352 14.555 8.8782 14.4556 8.72491 14.3096C8.5716 14.1636 8.46721 13.9776 8.42491 13.7751C8.38262 13.5726 8.40432 13.3627 8.48729 13.1719C8.57025 12.9812 8.71075 12.8181 8.89101 12.7034C9.07127 12.5887 9.2832 12.5275 9.5 12.5275C9.79072 12.5275 10.0695 12.6375 10.2751 12.8332C10.4807 13.029 10.5962 13.2946 10.5962 13.5714ZM12.7885 7.30769C12.7885 8.01736 12.5354 8.70599 12.0707 9.26076C11.606 9.81553 10.9573 10.2036 10.2308 10.3613V10.4396C10.2308 10.6241 10.1538 10.8012 10.0167 10.9317C9.87969 11.0622 9.69381 11.1355 9.5 11.1355C9.30619 11.1355 9.12032 11.0622 8.98327 10.9317C8.84622 10.8012 8.76923 10.6241 8.76923 10.4396V9.74359C8.76923 9.559 8.84622 9.38198 8.98327 9.25146C9.12032 9.12094 9.30619 9.04762 9.5 9.04762C9.86133 9.04762 10.2146 8.94557 10.515 8.75439C10.8154 8.5632 11.0496 8.29146 11.1879 7.97353C11.3261 7.6556 11.3623 7.30576 11.2918 6.96825C11.2213 6.63073 11.0473 6.32071 10.7918 6.07738C10.5363 5.83404 10.2108 5.66833 9.85642 5.6012C9.50203 5.53406 9.1347 5.56852 8.80087 5.70021C8.46704 5.8319 8.18172 6.05491 7.98097 6.34104C7.78023 6.62717 7.67308 6.96357 7.67308 7.30769C7.67308 7.49227 7.59609 7.6693 7.45904 7.79982C7.322 7.93034 7.13612 8.00366 6.94231 8.00366C6.7485 8.00366 6.56262 7.93034 6.42558 7.79982C6.28853 7.6693 6.21154 7.49227 6.21154 7.30769C6.21154 6.47707 6.558 5.68047 7.17471 5.09313C7.79142 4.50579 8.62785 4.17582 9.5 4.17582C10.3722 4.17582 11.2086 4.50579 11.8253 5.09313C12.442 5.68047 12.7885 6.47707 12.7885 7.30769Z" fill="#444444" fill-opacity="0.65"/>
</svg>
