<svg width="66" height="66" viewBox="0 0 66 66" fill="none" xmlns="http://www.w3.org/2000/svg">
<path d="M16.3192 54.3778C16.6588 54.5492 17.0099 54.6828 17.3697 54.7777C17.6124 56.1709 18.6064 57.4629 20.042 58.1909C20.6537 58.5005 21.3024 58.6875 21.9539 58.7439C22.1292 60.2027 23.1341 61.5787 24.6567 62.3493C25.8692 62.9645 27.2397 63.0934 28.4176 62.6998C28.8367 62.5605 29.2184 62.3591 29.5499 62.1041C29.9639 62.8787 30.6627 63.7932 31.7974 64.3532C33.4661 65.1732 35.5618 64.9965 38.0238 63.8226C43.5334 61.1967 47.71 62.8615 48.6458 63.3064L48.749 63.3576C48.8119 63.3915 48.8522 63.4111 48.8678 63.4186C48.8695 63.4191 48.8718 63.4203 48.8736 63.4209L53.7858 65.9081L53.7899 65.9104C53.9098 65.972 54.0378 66.0008 54.1635 66.0008C54.465 66.0008 54.755 65.8356 54.9015 65.5484C55.1079 65.1427 54.9453 64.6461 54.5388 64.4395L49.6156 61.9465C49.5868 61.931 49.5418 61.908 49.4824 61.878C48.7168 61.4597 44.746 59.0203 43.4765 52.7912C42.9212 50.0664 41.7888 48.2571 40.1094 47.4128C38.977 46.8437 37.8319 46.8414 36.9769 46.9795C36.944 45.4154 35.9247 43.819 34.2487 42.9707C32.7542 42.2139 31.084 42.2116 29.8264 42.9074C29.3882 42.405 28.8451 41.9832 28.2236 41.6684C26.5649 40.8276 24.6553 40.9381 23.381 41.8761C23.1689 41.7254 22.9452 41.5907 22.7122 41.4733C21.4997 40.8587 20.1286 40.7332 18.9514 41.1228C18.271 41.349 17.6916 41.7392 17.2627 42.2508C16.1661 41.8128 14.9795 41.7547 13.9423 42.0988C12.9835 42.4182 12.2247 43.0616 11.805 43.9116C10.9056 45.733 11.7704 48.0521 13.7336 49.2907C13.1847 51.1466 14.2525 53.3293 16.3195 54.3778L16.3192 54.3778ZM13.2871 44.6424C13.5731 44.0635 14.0856 43.7919 14.4638 43.6647C15.2249 43.4115 16.1325 43.5047 16.95 43.9196C17.0013 43.945 17.0492 43.9743 17.1345 44.0244C17.3323 44.1389 17.5687 44.1688 17.7866 44.1021C18.0057 44.037 18.1873 43.8845 18.29 43.6802C18.2957 43.6687 18.3015 43.6572 18.3073 43.644C18.595 43.0794 19.0989 42.813 19.4736 42.6887C20.2341 42.4361 21.1423 42.5293 21.9632 42.9454C22.2832 43.1071 22.579 43.3165 22.8425 43.5669C23.0079 43.7234 23.2328 43.8103 23.4582 43.7919C23.6854 43.7792 23.8982 43.6733 24.044 43.5001C24.7624 42.6472 26.2044 42.4976 27.474 43.1399C28.0955 43.4535 28.5982 43.9162 28.9286 44.4755C29.0566 44.6925 29.2769 44.8393 29.5259 44.8738C29.775 44.9123 30.0275 44.8283 30.2103 44.6545C30.9696 43.9334 32.3228 43.8454 33.5002 44.4416C34.9698 45.1857 35.7055 46.7251 35.1393 47.8708C34.9375 48.28 35.1053 48.7749 35.5152 48.9763C35.8525 49.1414 36.2474 49.0586 36.489 48.7939C36.9681 48.6304 38.2142 48.3081 39.3654 48.8854C40.5687 49.489 41.407 50.914 41.8556 53.1185C42.3918 55.7519 43.3754 57.7862 44.4386 59.3233L37.917 56.02L36.3972 51.4001C36.2542 50.9685 35.7889 50.7309 35.3542 50.8736C34.9201 51.0163 34.6837 51.4819 34.8267 51.9158L35.8293 54.9624L32.0758 53.0616L30.556 48.4406C30.413 48.009 29.9477 47.7707 29.513 47.914C29.0788 48.0567 28.8424 48.5223 28.9854 48.9562L29.9881 52.0028L25.996 49.9805L24.4749 45.3595C24.3325 44.9279 23.8655 44.6896 23.4319 44.8329C22.9978 44.9757 22.7614 45.4412 22.9044 45.8751L23.907 48.9229L19.7685 46.8265C19.3603 46.6176 18.8633 46.7828 18.6575 47.1885C18.4511 47.5942 18.6136 48.0908 19.0201 48.2974L23.1362 50.3823L20.1951 51.375C19.7627 51.5212 19.5304 51.9891 19.6768 52.4213C19.7933 52.7654 20.115 52.9823 20.4598 52.9823C20.5474 52.9823 20.6368 52.9685 20.7244 52.9386L25.1997 51.428L29.2166 53.4623L26.2755 54.455C25.8431 54.6012 25.6108 55.0691 25.7572 55.5013C25.8737 55.8454 26.1954 56.0623 26.5402 56.0623C26.6278 56.0623 26.7172 56.0485 26.8048 56.0186L31.2806 54.5092L35.0589 56.4226L32.1178 57.4153C31.6854 57.5614 31.4531 58.0293 31.5995 58.4615C31.716 58.8056 32.0377 59.0226 32.3825 59.0226C32.4701 59.0226 32.5595 59.0088 32.6471 58.9788L37.1223 57.4682L43.5753 60.7358C41.7666 60.8008 39.6385 61.2227 37.311 62.3322C35.3362 63.2742 33.7323 63.4567 32.5411 62.8777C31.0352 62.1446 30.6253 60.3641 30.6218 60.3497C30.5491 60.0056 30.2654 59.746 29.916 59.7023C29.8815 59.6983 29.8474 59.696 29.8128 59.696C29.5015 59.696 29.2121 59.8726 29.072 60.1563C28.786 60.7353 28.2746 61.0075 27.8952 61.1341C27.1341 61.3896 26.2266 61.2923 25.4056 60.8774C24.2024 60.2686 23.4591 59.0945 23.5969 58.0219C23.6292 57.7721 23.5456 57.5218 23.3698 57.3411C23.1945 57.1609 22.9483 57.0764 22.6946 57.0953C22.0621 57.1604 21.4025 57.0292 20.7903 56.719C19.6902 56.1613 18.9568 55.1076 18.9655 54.0971C18.969 53.6799 18.6605 53.3259 18.2465 53.2719C17.8418 53.2189 17.4445 53.0952 17.0669 52.9047C15.5972 52.1606 14.8626 50.6212 15.4278 49.4761C15.4474 49.4358 15.4716 49.3984 15.5045 49.3431C15.6279 49.14 15.6417 48.8862 15.569 48.6601C15.497 48.4339 15.3142 48.2428 15.0963 48.1479C15.0403 48.1237 14.9838 48.1001 14.9268 48.0713C13.456 47.3278 12.7209 45.789 13.2871 44.6427V44.6424Z" fill="#444444"/>
<path d="M43.6687 12.0131C42.9077 13.1997 42.763 14.8277 43.3234 16.3488C43.5632 16.9996 43.9144 17.5855 44.3566 18.078C43.501 19.2652 43.3067 20.9658 43.9011 22.5777C44.3791 23.8754 45.3062 24.9182 46.446 25.4378C46.8392 25.6168 47.2463 25.7272 47.651 25.767C47.4296 26.6192 47.3207 27.7725 47.7733 28.9678C48.438 30.7179 50.0876 32.0329 52.6786 32.8736C58.4495 34.7474 60.3976 38.8194 60.7996 39.8237L60.8549 39.9744C60.8739 40.028 60.8872 40.0619 60.8924 40.0769C60.893 40.0786 60.893 40.0803 60.8941 40.0821L62.8153 45.2987C62.9375 45.6331 63.254 45.8391 63.5907 45.8391C63.6859 45.8391 63.7816 45.8224 63.8761 45.7879C64.3045 45.6314 64.5242 45.1566 64.3662 44.7296L62.4486 39.5215C62.4388 39.4915 62.4204 39.4374 62.3927 39.3632C62.1131 38.5259 60.8486 33.9951 64.1137 28.5604C65.5395 26.1878 65.9299 24.0873 65.2743 22.317C64.8281 21.1126 63.984 20.3191 63.2633 19.8298C64.2965 18.6633 64.6286 16.7913 63.9747 15.0141C63.3918 13.4316 62.17 12.2796 60.7799 11.9227C60.8007 11.2494 60.6871 10.5629 60.4438 9.90045C59.7963 8.14408 58.3261 6.91144 56.7625 6.71977C56.7078 6.45909 56.6345 6.20243 56.5429 5.95325C56.0649 4.65612 55.1378 3.61333 53.9985 3.09491C53.3597 2.80313 52.6851 2.69553 52.0365 2.76919C51.5251 1.67693 50.6827 0.809074 49.6761 0.349282C48.7691 -0.0656349 47.7902 -0.112822 46.9189 0.218075C45.0295 0.932247 44.096 3.22786 44.7003 5.48881C43.0507 6.47115 42.3612 8.8012 43.1672 10.988C43.2992 11.3494 43.4682 11.693 43.6688 12.013L43.6687 12.0131ZM45.8193 6.77343C45.8539 6.76019 45.8885 6.75214 45.9617 6.73027C46.19 6.66524 46.371 6.48511 46.4725 6.26989C46.574 6.05524 46.5699 5.78879 46.4748 5.57011C46.4506 5.51544 46.4258 5.45962 46.4056 5.40265C45.8302 3.83912 46.3232 2.20591 47.504 1.75938C48.0892 1.53839 48.6346 1.68514 48.9891 1.84685C49.73 2.18523 50.3423 2.88788 50.6699 3.7775C50.6883 3.82872 50.7039 3.87879 50.7344 3.9795C50.8065 4.21141 50.9806 4.39671 51.2037 4.49282C51.4027 4.57684 51.6292 4.57857 51.8305 4.50203C52.4122 4.28335 52.9576 4.43125 53.3116 4.59181C54.0525 4.93019 54.6648 5.63227 54.9912 6.51907C55.1169 6.85975 55.193 7.21943 55.2178 7.58658C55.2328 7.81159 55.3394 8.02164 55.5135 8.16551C55.6871 8.31053 55.9137 8.37901 56.1374 8.35139C57.2334 8.22939 58.3929 9.1139 58.8916 10.4658C59.1355 11.1281 59.1926 11.817 59.0571 12.4575C59.0058 12.7015 59.0669 12.9559 59.2249 13.1487C59.3817 13.3409 59.6175 13.4531 59.866 13.4531C59.8683 13.4525 59.8695 13.4525 59.8723 13.4531C60.913 13.4531 61.9618 14.3278 62.423 15.579C62.9984 17.1425 62.5055 18.7769 61.3247 19.2222L61.3241 19.2228C60.8974 19.3845 60.6835 19.8604 60.845 20.2863C60.9781 20.6345 61.331 20.8497 61.6723 20.8175C62.1359 21.0292 63.2694 21.6571 63.7237 22.8851C64.197 24.1633 63.8511 25.786 62.6962 27.7082C61.3252 29.9911 60.6743 32.1433 60.4148 33.9923L57.8717 27.0842L59.8712 22.6513C60.0586 22.2364 59.8729 21.7473 59.4572 21.5608C59.0415 21.3744 58.5514 21.5585 58.3646 21.9752L57.0576 24.8727L55.5896 20.8869L57.5892 16.4534C57.7766 16.0385 57.5909 15.5493 57.1752 15.3629C56.7583 15.177 56.27 15.3611 56.0815 15.7772L54.7744 18.6747L53.2137 14.4358L55.2132 10.0029C55.4006 9.58801 55.2149 9.09886 54.7992 8.91241C54.3824 8.72595 53.8935 8.9101 53.7067 9.32675L52.3996 12.2243L50.7847 7.83806C50.6279 7.40932 50.1522 7.1918 49.7244 7.34776C49.2954 7.50429 49.0763 7.97906 49.2332 8.40606L50.8377 12.763L48.0437 11.471C47.6297 11.2782 47.1379 11.4578 46.9459 11.8727C46.7539 12.2859 46.9344 12.7762 47.3483 12.9673L51.6438 14.9538L53.2126 19.2134L50.4186 17.9209C50.0034 17.7281 49.5128 17.9094 49.3208 18.322C49.1288 18.7352 49.3092 19.2261 49.7232 19.4177L54.0187 21.4054L55.4941 25.4118L52.7 24.1199C52.2849 23.9259 51.7943 24.1072 51.6023 24.5216C51.4103 24.9347 51.5907 25.4251 52.0047 25.6161L56.3002 27.6026L58.8145 34.4313C57.4515 33.2406 55.6209 32.0908 53.1896 31.3013C51.106 30.6257 49.8058 29.6473 49.3238 28.3946C48.7144 26.8121 49.6139 25.2242 49.6214 25.2127C49.7989 24.9106 49.7666 24.5302 49.5412 24.2621C49.3809 24.0733 49.148 23.9691 48.9087 23.9691C48.8101 23.9691 48.711 23.9864 48.6164 24.0221C48.0318 24.2448 47.4863 24.0969 47.1312 23.9346C46.3904 23.5974 45.778 22.8936 45.4505 22.0068C44.9795 20.7258 45.2239 19.3504 46.0455 18.6633C46.2375 18.5033 46.3453 18.2651 46.3407 18.0147C46.3355 17.765 46.2173 17.5313 46.0202 17.3788C45.5111 16.9852 45.1144 16.4327 44.874 15.7791C44.4427 14.6068 44.6134 13.3253 45.3006 12.5926C45.5831 12.2905 45.5993 11.8261 45.3364 11.5067C45.0746 11.1873 44.8659 10.8213 44.7171 10.4185C44.1423 8.85497 44.6341 7.22058 45.8195 6.77346L45.8193 6.77343Z" fill="#444444"/>
<path d="M6.21653 52.1055C3.02926 52.1055 0.436523 54.7268 0.436523 57.9471C0.436523 61.168 3.02926 63.7881 6.21653 63.7881C9.4038 63.7881 11.9965 61.168 11.9965 57.9471C11.9965 54.7262 9.4038 52.1055 6.21653 52.1055ZM6.21653 62.1384C3.94084 62.1384 2.08949 60.2583 2.08949 57.9472C2.08949 55.6356 3.94084 53.7555 6.21653 53.7555C8.49223 53.7555 10.3436 55.6356 10.3436 57.9472C10.3436 60.2584 8.49223 62.1384 6.21653 62.1384Z" fill="#444444"/>
<path d="M38.923 25.9517C35.753 26.2751 33.4336 29.1438 33.7519 32.3481C34.009 34.9343 35.8875 36.9715 38.312 37.4802C38.0981 38.1938 38.015 38.9603 38.094 39.7476C38.2497 41.3135 39.0033 42.7212 40.2152 43.7103C41.2524 44.5557 42.5196 45.0063 43.8354 45.0063C44.0314 45.0063 44.228 44.9965 44.4246 44.9763C47.5946 44.6523 49.9146 41.7836 49.5958 38.5799C49.4401 37.014 48.6865 35.6064 47.4746 34.6172C46.7505 34.0268 45.9121 33.6303 45.0247 33.4439C45.2421 32.7147 45.3303 31.9505 45.2548 31.1794C45.0985 29.6129 44.345 28.2058 43.1324 27.2161C41.9407 26.2464 40.4503 25.797 38.9229 25.9518L38.923 25.9517ZM47.9502 38.7416C48.1791 41.0423 46.5221 43.102 44.2562 43.3327C43.1711 43.4455 42.1091 43.1221 41.2598 42.4303C40.3904 41.7219 39.8496 40.7102 39.7372 39.5835C39.6253 38.4596 39.9684 37.3972 40.6084 36.5731C40.6372 36.5357 40.666 36.4995 40.696 36.4632C40.8482 36.2802 41.0137 36.107 41.1941 35.9516C41.2114 35.9366 41.2305 35.9251 41.2478 35.9102C41.4178 35.7692 41.6023 35.6443 41.7949 35.5315C41.8335 35.5091 41.8716 35.4843 41.9114 35.463C42.1155 35.3525 42.3311 35.2599 42.556 35.1851C42.6033 35.1695 42.6511 35.1569 42.699 35.1431C42.9354 35.074 43.1781 35.0176 43.4324 34.9911C44.5151 34.8755 45.5795 35.2018 46.4276 35.8935C47.2982 36.6042 47.8379 37.6148 47.9503 38.7415L47.9502 38.7416ZM42.0861 28.4952C42.9567 29.2036 43.4969 30.2153 43.6093 31.342C43.6779 32.0291 43.5793 32.7134 43.3256 33.3453C43.306 33.347 43.2853 33.3493 43.2645 33.3511C43.0552 33.3723 42.8506 33.4063 42.6488 33.4495C42.5911 33.4621 42.5358 33.48 42.4787 33.4938C42.3357 33.5283 42.1933 33.5657 42.0555 33.6112C41.9869 33.6336 41.9206 33.6612 41.8537 33.686C41.7314 33.7314 41.611 33.7775 41.4928 33.831C41.4178 33.865 41.344 33.9029 41.2702 33.9398C41.167 33.9916 41.0644 34.0457 40.9652 34.1038C40.8851 34.151 40.8067 34.1993 40.7288 34.2505C40.6429 34.3063 40.5576 34.365 40.4751 34.4255C40.3927 34.4859 40.3114 34.5469 40.2324 34.6113C40.1603 34.67 40.0917 34.7299 40.0231 34.7921C39.9412 34.8657 39.8593 34.9382 39.7815 35.0159C39.7221 35.0763 39.6668 35.1396 39.6097 35.2018C39.5319 35.287 39.4529 35.3698 39.3796 35.4602C39.3278 35.5246 39.2822 35.5931 39.2326 35.6587C39.1657 35.7485 39.0948 35.8354 39.0325 35.9292C37.1219 35.7122 35.5951 34.1746 35.3973 32.1851C35.1684 29.8844 36.8255 27.8241 39.0913 27.594C39.232 27.579 39.3715 27.5727 39.5104 27.5727C40.445 27.571 41.3467 27.8921 42.0859 28.4952L42.0861 28.4952Z" fill="#444444"/>
<path d="M7.69005 56.4543C7.3643 56.1343 6.84135 56.1383 6.52021 56.4623L6.2152 56.7719L5.91021 56.4623C5.58963 56.1383 5.06611 56.1349 4.74036 56.4543C4.41576 56.7742 4.41114 57.2968 4.73228 57.6208L5.05401 57.9465L4.73228 58.2722C4.41171 58.5973 4.41576 59.1187 4.74036 59.4387C4.9018 59.5969 5.11166 59.6764 5.32038 59.6764C5.53371 59.6764 5.74761 59.5941 5.90905 59.4306L6.21405 59.121L6.51905 59.4306C6.68108 59.5941 6.8944 59.6764 7.10773 59.6764C7.31702 59.6764 7.52688 59.597 7.68775 59.4387C8.01235 59.1187 8.01697 58.5962 7.69582 58.2722L7.3741 57.9465L7.69582 57.6208C8.0187 57.2968 8.01467 56.7742 7.69006 56.4543H7.69005Z" fill="#444444"/>
<path d="M60.2204 50.1602C57.0332 50.1602 54.4404 52.7815 54.4404 56.0018C54.4404 59.2227 57.0332 61.8428 60.2204 61.8428C63.4077 61.8428 66.0005 59.2227 66.0005 56.0018C66.0005 52.7809 63.4077 50.1602 60.2204 50.1602ZM60.2204 60.1931C57.9447 60.1931 56.0934 58.3129 56.0934 56.0019C56.0934 53.6903 57.9447 51.8102 60.2204 51.8102C62.4961 51.8102 64.3475 53.6903 64.3475 56.0019C64.3475 58.3131 62.4961 60.1931 60.2204 60.1931Z" fill="#444444"/>
<path d="M61.6959 54.5074C61.3702 54.1875 60.8472 54.1904 60.5261 54.5155L60.2211 54.8251L59.9161 54.5155C59.5955 54.1904 59.072 54.188 58.7462 54.5074C58.4216 54.8274 58.417 55.3499 58.7381 55.6739L59.0599 55.9996L58.7381 56.3254C58.4176 56.6505 58.4216 57.1719 58.7462 57.4919C58.9077 57.6501 59.1175 57.7295 59.3262 57.7295C59.5396 57.7295 59.7535 57.6472 59.9149 57.4838L60.2199 57.1742L60.5249 57.4838C60.6869 57.6472 60.9003 57.7295 61.1136 57.7295C61.3229 57.7295 61.5327 57.6501 61.6936 57.4919C62.0182 57.1719 62.0228 56.6494 61.7017 56.3254L61.38 55.9996L61.7017 55.6739C62.0245 55.3488 62.0205 54.8268 61.6959 54.5074Z" fill="#444444"/>
<path d="M39.0662 30.3392C38.7179 30.0457 38.1956 30.0906 37.9015 30.4381C37.6075 30.7863 37.6519 31.3071 38.0007 31.6006L38.3495 31.8941L38.0578 32.2498C37.7683 32.6031 37.8208 33.1227 38.1742 33.4105C38.3282 33.5359 38.5133 33.5975 38.6972 33.5975C38.937 33.5975 39.174 33.4945 39.3372 33.2954L39.6139 32.9582L39.9454 33.2372C40.1011 33.3679 40.2902 33.4312 40.4776 33.4312C40.7134 33.4312 40.9464 33.3316 41.1101 33.1383C41.4041 32.7901 41.3598 32.2693 41.0109 31.9758L40.6615 31.6823L40.9533 31.3267C41.2427 30.9733 41.1903 30.4537 40.8368 30.1659C40.4845 29.8753 39.9622 29.9294 39.6739 30.2816L39.3971 30.6188L39.0662 30.3392Z" fill="#444444"/>
<path d="M43.7356 37.9931L43.4041 37.714C43.0552 37.4206 42.5335 37.4654 42.2394 37.813C41.9454 38.1612 41.9898 38.682 42.3386 38.9755L42.6874 39.269L42.3957 39.6246C42.1062 39.978 42.1587 40.4976 42.5121 40.7854C42.6661 40.9108 42.8511 40.9724 43.0351 40.9724C43.2749 40.9724 43.5119 40.8694 43.6751 40.6703L43.9518 40.333L44.2833 40.6121C44.439 40.7428 44.6281 40.8061 44.8155 40.8061C45.0513 40.8061 45.2842 40.7065 45.448 40.5131C45.742 40.165 45.6976 39.6442 45.3488 39.3507L45 39.0572L45.2917 38.7015C45.5812 38.3482 45.5287 37.8285 45.1753 37.5408C44.8224 37.2514 44.3006 37.3031 44.0124 37.6565L43.7356 37.9931Z" fill="#444444"/>
<path d="M0.266376 31.4234C0.895402 33.3817 2.53809 34.791 4.55371 35.1013L4.79529 35.1387C5.99857 35.3246 7.03526 36.098 7.56854 37.2103L7.67578 37.4342C8.57176 39.3038 10.4052 40.4727 12.4601 40.486H12.4947C14.5357 40.486 16.368 39.3425 17.2819 37.4964L17.3909 37.2754C17.9381 36.1705 18.9845 35.4103 20.1919 35.241L20.4323 35.2065C22.4509 34.9228 24.1114 33.5358 24.7657 31.5862C25.4293 29.6094 24.9295 27.4703 23.4615 26.0018C22.482 25.0218 22.0415 23.6159 22.283 22.2417C22.4162 21.4861 22.422 20.8036 22.3015 20.1717C22.7287 20.5164 23.0856 20.9538 23.3312 21.4671L23.4379 21.6898C24.3339 23.5595 26.1673 24.7289 28.2228 24.7416H28.2585C30.2984 24.7416 32.1307 23.5987 33.0452 21.7537L33.1553 21.5316C33.7025 20.4261 34.749 19.6653 35.954 19.4962L36.1967 19.4622C38.2153 19.1785 39.8752 17.7922 40.5295 15.842C41.1931 13.8652 40.6938 11.7251 39.2253 10.257C38.2457 9.27696 37.8052 7.87111 38.0474 6.49689C38.4112 4.43203 37.5902 2.38735 35.9066 1.15986C34.2582 -0.0411508 32.1151 -0.199994 30.3099 0.746667L30.0931 0.860612C29.0138 1.4263 27.7298 1.41767 26.6557 0.836443L26.4418 0.721924C24.6503 -0.248324 22.5032 -0.117119 20.8411 1.06088C19.1419 2.26593 18.2944 4.29961 18.6317 6.3708L18.6714 6.61422C18.8704 7.83941 18.4639 9.08363 17.5812 9.94223L17.4059 10.1137C15.9196 11.5622 15.3925 13.695 16.0296 15.6797C16.0602 15.7764 16.1046 15.8644 16.1403 15.9576C15.5949 16.0509 15.0599 16.2206 14.5473 16.49L14.3282 16.6039C13.2477 17.1708 11.9642 17.161 10.8925 16.5826L10.6769 16.4652C8.88547 15.4961 6.73893 15.6267 5.07621 16.8053C3.37704 18.0104 2.5307 20.0441 2.86738 22.1141L2.90716 22.3581C3.10608 23.5821 2.69961 24.8263 1.81804 25.6855L1.64103 25.857C0.155885 27.306 -0.371784 29.4387 0.266512 31.4235L0.266376 31.4234ZM18.5629 11.2933L18.7381 11.1218C20.0043 9.88859 20.5907 8.10468 20.3052 6.34831L20.2654 6.10489C20.0267 4.63973 20.6004 3.25627 21.8002 2.40637C22.443 1.95001 23.1712 1.71982 23.9069 1.71982C24.5001 1.71982 25.098 1.87059 25.6572 2.17329L25.8711 2.28781C27.4301 3.13032 29.2953 3.14355 30.8642 2.32062L31.0809 2.20667C32.3407 1.5443 33.7816 1.65134 34.9336 2.49211C36.1225 3.3582 36.6782 4.74849 36.4211 6.2114C36.0861 8.11568 36.6979 10.0625 38.0568 11.4211C39.0952 12.4599 39.4336 13.9153 38.9637 15.3165C38.5025 16.6901 37.3828 17.6281 35.9691 17.8267L35.7264 17.8607C33.9788 18.1058 32.4647 19.2038 31.6755 20.7984L31.5654 21.0205C30.9231 22.3182 29.6892 23.0905 28.2616 23.0905H28.2363C26.7972 23.0813 25.5622 22.2912 24.9314 20.9768L24.8247 20.7541C24.0561 19.1514 22.5565 18.0326 20.8117 17.7633L20.5702 17.7259C19.1576 17.5083 18.0495 16.5554 17.6061 15.1759C17.1523 13.7694 17.5104 12.3181 18.5626 11.2932L18.5629 11.2933ZM2.79624 27.0376L2.97324 26.8661C4.23937 25.6317 4.82577 23.8472 4.53972 22.0926L4.49994 21.8486C4.26124 20.3834 4.83491 19.0018 6.03424 18.1511C7.19658 17.3259 8.63864 17.2384 9.89028 17.9157L10.1059 18.0331C11.6621 18.8756 13.5295 18.8872 15.0966 18.0659L15.3157 17.952C15.8738 17.6591 16.4613 17.5164 17.0597 17.529C17.8455 18.4578 18.9319 19.0983 20.169 19.3246C20.6989 20.0727 20.8482 20.8634 20.6557 21.9574C20.3207 23.8599 20.9324 25.8079 22.2914 27.1671C23.3298 28.2059 23.6682 29.6613 23.1983 31.062C22.737 32.4357 21.6173 33.3736 20.2002 33.5722L19.9598 33.6068C18.2134 33.8519 16.6982 34.9499 15.9078 36.5445L15.7988 36.7655C15.1559 38.0632 13.9215 38.8361 12.4939 38.8361H12.4685C11.0306 38.8263 9.79562 38.0368 9.16478 36.7223L9.05754 36.4985C8.28783 34.8946 6.7876 33.776 5.04459 33.5089L4.80301 33.4715C3.39044 33.2539 2.2823 32.2998 1.83891 30.9204C1.38862 29.5128 1.74551 28.0615 2.79601 27.0378L2.79624 27.0376Z" fill="#444444"/>
<path d="M9.81489 32.6239C10.6313 33.0463 11.5175 33.2598 12.4094 33.2598C12.9929 33.2598 13.5793 33.1689 14.1495 32.9853C17.1481 32.0208 18.8139 28.7694 17.8625 25.7366C17.3972 24.2543 16.3865 23.048 15.0166 22.3407C13.6669 21.6427 12.1281 21.5155 10.682 21.9793C7.6834 22.9444 6.01715 26.1952 6.96902 29.2268C7.4343 30.7098 8.44444 31.916 9.81489 32.6239ZM11.1894 23.551C11.593 23.4203 12.0076 23.3565 12.4204 23.3565C13.0517 23.3565 13.6784 23.5084 14.2567 23.8059C15.2328 24.31 15.9529 25.1715 16.2856 26.2298C16.9665 28.401 15.7816 30.7271 13.6432 31.4142C12.6216 31.7439 11.5312 31.6524 10.576 31.1587C9.59984 30.6557 8.87974 29.7942 8.54764 28.7348C7.865 26.5641 9.0504 24.2381 11.1894 23.5508L11.1894 23.551Z" fill="#444444"/>
<path d="M25.5787 16.8784C26.3951 17.3008 27.2825 17.5143 28.175 17.5143C28.7579 17.5143 29.3437 17.4234 29.9139 17.2398C32.9125 16.2736 34.5783 13.0233 33.6269 9.99114C33.1622 8.50878 32.1515 7.30251 30.781 6.59463C29.4313 5.89658 27.8925 5.76939 26.4465 6.23324C23.4484 7.19946 21.782 10.4509 22.7334 13.4819C23.1982 14.9649 24.2094 16.1705 25.5787 16.8784ZM26.9544 7.80546C27.358 7.67482 27.7726 7.61095 28.1854 7.61095C28.8167 7.61095 29.4434 7.76286 30.0216 8.06154C30.9972 8.56452 31.7179 9.426 32.05 10.4854C32.7309 12.6561 31.546 14.9817 29.4065 15.6698C28.3842 16.0007 27.2944 15.9081 26.3392 15.4143C25.3636 14.9102 24.6441 14.0487 24.3115 12.9904C23.6305 10.8198 24.8159 8.49314 26.9544 7.80544L26.9544 7.80546Z" fill="#444444"/>
</svg>
