<svg width="65" height="63" viewBox="0 0 65 63" fill="none" xmlns="http://www.w3.org/2000/svg">
<path d="M32.4196 11.8867C27.2604 11.8867 22.313 13.9361 18.6649 17.5838C15.0172 21.232 12.9678 26.1795 12.9678 31.3385C12.9678 36.4975 15.0172 41.4451 18.6649 45.0932C22.3131 48.7409 27.2605 50.7903 32.4196 50.7903C37.5786 50.7903 42.5262 48.7409 46.1742 45.0932C49.8219 41.445 51.8713 36.4975 51.8713 31.3385C51.8713 26.1795 49.8219 21.2319 46.1742 17.5838C42.526 13.9361 37.5786 11.8867 32.4196 11.8867ZM32.4196 48.6292C27.834 48.6292 23.4361 46.8075 20.1931 43.5651C16.9507 40.3221 15.129 35.9242 15.129 31.3386C15.129 26.753 16.9507 22.3552 20.1931 19.1122C23.4361 15.8697 27.834 14.048 32.4196 14.048C37.0051 14.048 41.403 15.8697 44.646 19.1122C47.8885 22.3552 49.7101 26.753 49.7101 31.3386C49.7101 35.9242 47.8885 40.3221 44.646 43.5651C41.403 46.8075 37.0051 48.6292 32.4196 48.6292Z" fill="#464646"/>
<path d="M32.4203 16.2109C28.4079 16.2109 24.5595 17.8049 21.7222 20.6421C18.885 23.4794 17.291 27.3278 17.291 31.3402C17.291 35.3526 18.885 39.201 21.7222 42.0383C24.5595 44.8755 28.4079 46.4695 32.4203 46.4695C36.4327 46.4695 40.2811 44.8755 43.1183 42.0383C45.9556 39.201 47.5495 35.3526 47.5495 31.3402C47.5495 27.3278 45.9556 23.4794 43.1183 20.6421C40.2811 17.8049 36.4327 16.2109 32.4203 16.2109ZM32.4203 44.3081C28.9809 44.3081 25.6825 42.9419 23.2506 40.5099C20.8187 38.0779 19.4523 34.7795 19.4523 31.3402C19.4523 27.9009 20.8185 24.6024 23.2506 22.1705C25.6826 19.7386 28.9809 18.3723 32.4203 18.3723C35.8596 18.3723 39.1581 19.7385 41.59 22.1705C44.0219 24.6026 45.3882 27.9009 45.3882 31.3402C45.3882 34.7795 44.022 38.078 41.59 40.5099C39.1579 42.9418 35.8596 44.3081 32.4203 44.3081Z" fill="#464646"/>
<path d="M57.2756 0C55.2691 0 53.3452 0.796985 51.9267 2.21579C50.5079 3.63411 49.7109 5.55806 49.7109 7.56463V14.0486C49.7124 15.5987 50.1895 17.1111 51.0786 18.3809C51.9678 19.6511 53.2255 20.6169 54.682 21.1486L52.0778 57.2748C51.9847 58.7115 52.4907 60.1227 53.4758 61.1729C54.4605 62.2231 55.8359 62.8189 57.2756 62.8189C58.7153 62.8189 60.0906 62.2231 61.0753 61.1729C62.0604 60.1226 62.5665 58.7114 62.4734 57.2748L59.8692 21.1486C61.3256 20.617 62.5834 19.6511 63.4725 18.3809C64.3617 17.1111 64.8387 15.5987 64.8402 14.0486V7.56463C64.8402 5.55818 64.0432 3.63423 62.6244 2.21579C61.2061 0.796973 59.2821 0 57.2756 0ZM60.312 57.3294C60.3497 58.1655 60.0318 58.978 59.4369 59.5664C58.8532 60.1521 58.0596 60.4816 57.2321 60.4816C56.4052 60.4816 55.6116 60.1521 55.0278 59.5664C54.4662 58.9899 54.1657 58.2089 54.1956 57.4051L56.8109 21.6136H57.7401L60.312 57.3294ZM57.2756 19.4519C55.5749 19.4519 53.9733 18.6511 52.9529 17.2906H61.5982C60.5779 18.6511 58.9762 19.4519 57.2756 19.4519ZM62.6789 14.0486C62.676 14.4114 62.6398 14.7732 62.5708 15.1293H51.9803C51.9113 14.7732 51.8752 14.4114 51.8723 14.0486V7.56463C51.8723 5.63439 52.9023 3.85037 54.5739 2.88543C56.2455 1.92007 58.3056 1.92007 59.9772 2.88543C61.6489 3.85031 62.6789 5.63439 62.6789 7.56463V14.0486Z" fill="#464646"/>
<path d="M4.97104 21.149L2.36683 57.2752C2.31377 58.6882 2.83769 60.0617 3.81801 61.0806C4.79832 62.1 6.15063 62.6765 7.56463 62.6785C8.99222 62.6775 10.3569 62.0904 11.3397 61.0547C12.3224 60.0189 12.8367 58.6256 12.7624 57.1995L10.1582 21.1486C11.6147 20.617 12.8725 19.6511 13.7616 18.3809C14.6507 17.1111 15.1278 15.5987 15.1293 14.0486V0H12.9679V14.0486C12.965 14.4114 12.9289 14.7732 12.8599 15.1293H8.64529V0H6.48397V15.1293H2.26939C2.2004 14.7732 2.16422 14.4114 2.16132 14.0486V0H0V14.0486C0.00144735 15.5987 0.478578 17.1111 1.36769 18.3809C2.25682 19.6511 3.51456 20.6169 4.97104 21.1486V21.149ZM10.6011 57.3295C10.6387 58.1656 10.3208 58.9781 9.72597 59.5666C9.14221 60.1523 8.34865 60.4818 7.52117 60.4818C6.69427 60.4818 5.90067 60.1523 5.31687 59.5666C4.75531 58.9901 4.45475 58.209 4.48466 57.4052L7.09998 21.6137H8.02916L10.6011 57.3295ZM11.8873 17.2907C10.8833 18.6763 9.27578 19.4964 7.56463 19.4964C5.85348 19.4964 4.24595 18.6762 3.24199 17.2907H11.8873Z" fill="#464646"/>
<path d="M31.4053 32.1758L26.2963 33.9349L27 35.9785L33.1307 33.8675C33.4017 33.7742 33.6246 33.5771 33.7502 33.3195C33.8758 33.062 33.894 32.7649 33.8007 32.4939L30.6342 23.2979L28.5906 24.0015L31.4053 32.1758Z" fill="#464646"/>
</svg>
