<svg width="82" height="64" viewBox="0 0 82 64" fill="none" xmlns="http://www.w3.org/2000/svg">
<path d="M15.144 54.5088H14.5466C14.316 54.5088 14.0916 54.4278 13.9156 54.2782C12.8786 53.4027 11.9295 52.4028 11.0959 51.3063C9.15405 48.7523 8.09252 45.8062 8.024 42.7874C7.95552 39.7554 8.894 36.7708 10.7381 34.156C12.8456 31.1666 15.8449 28.929 19.1815 27.8537C23.3518 26.5106 27.8339 26.9495 32.5019 29.1569C33.7206 29.7335 35.0455 30.5657 36.7959 31.8542C37.1307 32.1009 37.2732 32.5321 37.1509 32.9297C37.0286 33.3266 36.6688 33.604 36.253 33.6194C35.8666 33.6341 35.4801 33.648 35.0958 33.6606C32.2951 33.7584 29.6495 33.8507 27.567 34.3797C17.93 36.8296 14.9853 44.0816 15.4431 50.0513C15.5263 51.1498 15.7387 52.2162 16.072 53.223C16.1706 53.5214 16.1209 53.8491 15.9372 54.1035C15.7534 54.3586 15.4578 54.5088 15.144 54.5088ZM24.02 29.0671C18.7707 29.0671 14.7283 31.8923 12.3369 35.2835C9.08323 39.8984 9.20416 45.5851 12.6541 50.1237C12.9574 50.522 13.2774 50.9064 13.6122 51.2739C13.5605 50.9196 13.5213 50.5618 13.4941 50.202C13.2146 46.5557 14.1006 42.9206 15.9887 39.9661C18.3484 36.275 22.0815 33.7581 27.0876 32.4849C28.8925 32.0258 30.984 31.8693 33.216 31.7749C32.659 31.4332 32.1517 31.1558 31.6682 30.928C28.9065 29.6206 26.3448 29.0671 24.02 29.0671Z" fill="#444444"/>
<path d="M71.8825 54.5095H66.9462C66.738 54.5095 66.5353 54.4431 66.3669 54.3194L66.3173 54.2831C66.1042 54.1266 65.8848 53.9651 65.6549 53.8135C60.7068 50.5586 54.1158 50.1965 45.5083 52.7101C45.117 52.8247 44.6963 52.6836 44.4517 52.3579C44.2071 52.0323 44.1904 51.5892 44.4084 51.2454C45.4377 49.6284 46.3139 48.1197 47.1624 46.6599C47.7501 45.6481 48.3063 44.6929 48.8654 43.7809C49.569 42.637 50.2455 41.6013 50.9351 40.6133C51.1531 40.3002 51.5347 40.143 51.9106 40.2101C56.0203 40.9487 60.0626 40.4449 63.2925 38.7915C63.7306 38.5672 64.2198 38.1899 64.7376 37.7909C65.6181 37.1116 66.5279 36.4094 67.5592 36.1501C69.4467 35.6756 71.0377 36.1166 72.162 37.4261C73.3849 38.8495 73.6763 40.3862 73.0523 42.1241C72.7595 42.9382 72.3235 43.5063 71.9391 44.008C71.5555 44.5076 71.2536 44.9031 71.0978 45.4873C70.8085 46.5732 71.1558 47.8451 71.9832 48.7256C73.5289 50.3691 73.7937 52.3089 72.7092 54.0476C72.5331 54.3355 72.2193 54.5095 71.8818 54.5095L71.8825 54.5095ZM67.2655 52.5528H71.2836C71.5946 51.7289 71.3563 50.9113 70.5617 50.0671C69.2613 48.6835 68.7442 46.736 69.211 44.9849C69.4674 44.024 69.9573 43.3846 70.3898 42.8199C70.7301 42.3755 71.025 41.9912 71.2144 41.465C71.5987 40.393 71.4443 39.5922 70.6805 38.7033C70.0544 37.9745 69.1907 37.7599 68.039 38.0499C67.4031 38.2106 66.6568 38.7858 65.9349 39.342C65.3696 39.778 64.7847 40.2294 64.1859 40.5355C60.7444 42.2972 56.5068 42.896 52.1918 42.242C51.6433 43.047 51.0968 43.8911 50.5336 44.808C49.9858 45.6989 49.4372 46.6445 48.8551 47.645C48.373 48.4744 47.8817 49.3186 47.3583 50.1935C55.4021 48.2543 61.7568 48.9112 66.7321 52.1822C66.9229 52.3066 67.0976 52.4302 67.266 52.5525L67.2655 52.5528Z" fill="#444444"/>
<path d="M44.0793 54.5099H15.1439C14.7225 54.5099 14.3487 54.2402 14.2152 53.8398C13.8309 52.6826 13.5884 51.4577 13.492 50.2012C13.2124 46.5549 14.0985 42.9198 15.9866 39.9653C18.3463 36.2742 22.0794 33.7573 27.0854 32.4841C29.3718 31.9027 32.1196 31.807 35.0285 31.7056C35.4108 31.6917 35.7944 31.6791 36.1787 31.6644C37.9355 31.5966 39.7943 31.5009 41.4882 31.2535C48.349 30.2514 54.5681 25.8505 56.9622 20.2994C57.1571 19.8487 57.2927 19.247 57.4373 18.609C57.684 17.5238 57.9384 16.4022 58.5673 15.5448C59.7189 13.9767 61.2275 13.3038 62.9284 13.5958C64.7781 13.9144 65.9813 14.9137 66.6068 16.6502C66.9002 17.4629 66.9268 18.1805 66.9492 18.8122C66.9729 19.4411 66.9904 19.938 67.2427 20.4879C67.7115 21.5102 68.7891 22.2684 69.9875 22.4201C72.399 22.7241 73.8902 24.2566 73.9762 26.517C74.037 28.1019 72.8093 29.3401 71.5653 29.865C70.7037 30.229 69.9225 30.2731 69.1679 30.315C68.9009 30.3297 68.6256 30.345 68.3503 30.3758C62.6153 31.0012 57.4443 34.7167 52.5409 41.7346C51.8728 42.6905 51.216 43.6961 50.5332 44.8065C49.9854 45.6974 49.4368 46.643 48.8547 47.6435C47.9966 49.12 47.1092 50.6462 46.0596 52.2961C45.6585 52.9271 45.2748 53.5113 44.8884 54.0808C44.7074 54.3498 44.4041 54.5098 44.0799 54.5098L44.0793 54.5099ZM15.8702 52.5532H43.5588C43.8383 52.1347 44.1185 51.7028 44.4092 51.2465C45.4385 49.6295 46.3162 48.12 47.1637 46.6603C47.7514 45.6485 48.3077 44.6932 48.8667 43.7812C49.5704 42.6373 50.2468 41.6016 50.9365 40.6136C56.1822 33.1058 61.8096 29.1207 68.1371 28.4296C68.4641 28.3933 68.766 28.3765 69.0574 28.3604C69.7268 28.322 70.2558 28.2927 70.8057 28.0614C71.4277 27.7993 72.0454 27.2102 72.0216 26.5918C71.972 25.2963 71.2054 24.5464 69.7429 24.3612C67.8597 24.1244 66.2204 22.9525 65.4635 21.304C65.0484 20.4012 65.0191 19.5948 64.9932 18.8849C64.973 18.3245 64.9548 17.8409 64.7654 17.314C64.3797 16.2421 63.7508 15.7243 62.5957 15.5244C61.6474 15.3623 60.8466 15.7466 60.1444 16.7032C59.7558 17.2322 59.5476 18.1518 59.3449 19.0421C59.1877 19.7373 59.0242 20.4564 58.758 21.0741C57.3932 24.2383 54.9936 27.0633 51.8197 29.245C48.8269 31.3023 45.3511 32.6663 41.7697 33.1897C39.985 33.4511 38.0625 33.551 36.252 33.6202C35.8656 33.6349 35.4791 33.6488 35.0948 33.6614C32.2941 33.7592 29.6485 33.8515 27.566 34.3805C17.9291 36.8304 14.9844 44.0824 15.4421 50.0521C15.5078 50.9095 15.6511 51.7481 15.8698 52.553L15.8702 52.5532Z" fill="#444444"/>
<path d="M25.5675 53.9513C25.1559 53.9513 24.773 53.69 24.6381 53.277C23.4719 49.7187 22.9547 46.018 23.1015 42.276C23.1232 41.7358 23.5781 41.3144 24.1168 41.3368C24.657 41.3584 25.0777 41.812 25.056 42.3521C24.9191 45.86 25.4033 49.3317 26.4969 52.6676C26.6653 53.1812 26.3851 53.734 25.8715 53.9024C25.7716 53.9359 25.6688 53.9513 25.5675 53.9513Z" fill="#444444"/>
<path d="M32.4767 52.6433C32.0854 52.6433 31.7157 52.4064 31.5648 52.0192C30.2126 48.542 29.6306 44.2864 29.9695 40.3438C30.0156 39.8057 30.4887 39.4067 31.0281 39.4528C31.5662 39.499 31.9652 39.9735 31.9191 40.5115C31.6053 44.1662 32.1413 48.1025 33.3886 51.3098C33.5843 51.8137 33.3348 52.3804 32.8317 52.576C32.7143 52.6215 32.5941 52.6433 32.4767 52.6433Z" fill="#444444"/>
<path d="M38.8124 49.8927C38.391 49.8927 38.0011 49.6181 37.8753 49.1925C36.9117 45.9425 36.57 42.4416 36.8879 39.0665C36.9389 38.5284 37.4162 38.1343 37.9536 38.1839C38.4916 38.2349 38.8872 38.7122 38.8362 39.2495C38.542 42.378 38.8578 45.6232 39.7509 48.6357C39.9046 49.1535 39.609 49.6979 39.0912 49.8516C38.9983 49.8789 38.9046 49.8927 38.8124 49.8927Z" fill="#444444"/>
<path d="M17.0594 17.7188C16.8127 17.7188 16.5661 17.6259 16.3753 17.44C15.9889 17.0627 15.9819 16.4429 16.3599 16.0564C18.116 14.2613 18.116 11.3389 16.3599 9.54375C15.144 8.30061 14.4746 6.65844 14.4746 4.91909C14.4746 3.18049 15.1441 1.53843 16.3599 0.294428C16.7373 -0.0920103 17.3571 -0.0989869 17.7435 0.279054C18.13 0.656405 18.137 1.27622 17.7589 1.66266C16.0029 3.45782 16.0029 6.38016 17.7589 8.17532C18.9748 9.41847 19.6442 11.0606 19.6442 12.8C19.6442 14.5386 18.9748 16.1806 17.7589 17.4246C17.5681 17.621 17.3138 17.7188 17.0594 17.7188Z" fill="#444444"/>
<path d="M33.3348 21.3966C33.0881 21.3966 32.8408 21.3036 32.6507 21.1178C32.2643 20.7404 32.2573 20.1206 32.6353 19.7341C34.3914 17.939 34.3914 15.0166 32.6353 13.2215C31.4194 11.9783 30.75 10.3362 30.75 8.59682C30.75 6.85823 31.4194 5.21616 32.6353 3.97216C33.0127 3.58572 33.6325 3.57875 34.0189 3.95679C34.4054 4.33414 34.4123 4.95396 34.0343 5.34039C32.2782 7.13555 32.2782 10.0579 34.0343 11.8531C35.2502 13.0962 35.9196 14.7384 35.9196 16.4777C35.9196 18.2163 35.2502 19.8584 34.0343 21.1024C33.8421 21.2987 33.5892 21.3966 33.3348 21.3966Z" fill="#444444"/>
<path d="M49.6082 17.7188C49.3616 17.7188 49.1149 17.6259 48.9241 17.44C48.5377 17.0627 48.5307 16.4429 48.9088 16.0564C50.6648 14.2613 50.6648 11.3389 48.9088 9.54375C47.6929 8.30061 47.0234 6.65844 47.0234 4.91909C47.0234 3.1798 47.6929 1.53843 48.9088 0.294428C49.2861 -0.0920103 49.9059 -0.0989869 50.2924 0.279054C50.6788 0.656405 50.6858 1.27622 50.3077 1.66266C48.5517 3.45782 48.5517 6.38016 50.3077 8.17532C51.5236 9.41847 52.1931 11.0606 52.1931 12.8C52.1931 14.5393 51.5236 16.1806 50.3077 17.4246C50.1163 17.621 49.8626 17.7188 49.6082 17.7188Z" fill="#444444"/>
<path d="M7.75735 54.5094H0.978314C0.438156 54.5094 0 54.0712 0 53.531C0 52.9909 0.438138 52.5527 0.978314 52.5527H7.75735C8.2975 52.5527 8.73566 52.9909 8.73566 53.531C8.73566 54.0712 8.29752 54.5094 7.75735 54.5094Z" fill="#444444"/>
<path d="M81.022 54.5094H74.243C73.7028 54.5094 73.2646 54.0712 73.2646 53.531C73.2646 52.9909 73.7028 52.5527 74.243 52.5527H81.022C81.5621 52.5527 82.0003 52.9909 82.0003 53.531C82.0003 54.0712 81.5615 54.5094 81.022 54.5094Z" fill="#444444"/>
<path d="M65.1753 63.6371H16.8268C14.2735 63.6371 11.8717 62.2773 10.5579 60.0887L6.92075 54.0329C6.73976 53.7303 6.73416 53.3537 6.90817 53.0476C7.08217 52.7416 7.40711 52.5508 7.75929 52.5508H74.2455C74.5977 52.5508 74.9233 52.7409 75.0966 53.0476C75.2699 53.3551 75.265 53.7303 75.084 54.0329L71.4469 60.0887C70.1317 62.2772 67.7301 63.6371 65.1766 63.6371H65.1753ZM9.48692 54.5075L12.2338 59.081C13.1967 60.6847 14.9556 61.6804 16.8262 61.6804H65.1766C67.0458 61.6804 68.8061 60.6847 69.7691 59.081L72.5159 54.5075H9.48692Z" fill="#444444"/>
<path d="M53.5228 39.771C53.3264 39.771 53.1273 39.7123 52.9554 39.5893C52.5158 39.2755 52.4131 38.6641 52.7276 38.2245C53.5913 37.0142 53.0952 35.799 51.8765 33.9795C50.8912 32.5099 49.2427 30.0495 51.0176 27.5185C51.3279 27.0762 51.9379 26.9686 52.3803 27.2789C52.8226 27.5891 52.9302 28.1991 52.62 28.6415C51.7709 29.8525 52.251 31.0229 53.5025 32.8894C54.4228 34.2632 56.1363 36.8194 54.3215 39.3609C54.128 39.6286 53.8275 39.771 53.5228 39.771Z" fill="#444444"/>
<path d="M51.8961 51.31C51.4314 51.31 51.0199 50.9781 50.9346 50.505C50.8389 49.9725 51.1918 49.4638 51.7242 49.3681C53.212 49.0998 53.7298 47.8622 54.1645 45.673C54.5118 43.9211 55.0939 40.9876 58.1407 40.4118C58.671 40.3112 59.1833 40.6606 59.2832 41.1917C59.3838 41.7227 59.0344 42.2342 58.5033 42.3342C57.0338 42.6123 56.5194 43.8554 56.0828 46.0538C55.7578 47.6918 55.1534 50.7391 52.071 51.2948C52.0116 51.3052 51.9527 51.31 51.8961 51.31Z" fill="#444444"/>
</svg>
