<svg width="19" height="20" viewBox="0 0 19 20" fill="none" xmlns="http://www.w3.org/2000/svg">
<path d="M18.4034 6.72664L9.87558 0.0599633C9.82646 0.0209365 9.76794 0 9.70796 0C9.64798 0 9.58946 0.0209365 9.54034 0.0599633L1.01247 6.72664C0.961209 6.7672 0.922682 6.82523 0.902486 6.89229C0.88229 6.95936 0.881475 7.03197 0.90016 7.0996C0.918844 7.16723 0.956056 7.22634 1.00639 7.26837C1.05673 7.3104 1.11757 7.33314 1.18009 7.33331H2.06228V7.66664C2.06298 7.93162 2.15615 8.18551 2.32144 8.37288C2.48673 8.56024 2.71072 8.66585 2.94448 8.66665V8.99998C2.94541 9.20618 3.00237 9.40704 3.10761 9.57524C3.21284 9.74344 3.36124 9.87079 3.53261 9.93998V14.7267C3.36124 14.7958 3.21284 14.9232 3.10761 15.0914C3.00237 15.2596 2.94541 15.4605 2.94448 15.6667V16C2.71072 16.0008 2.48673 16.1064 2.32144 16.2938C2.15615 16.4811 2.06298 16.735 2.06228 17V17.3933C1.89092 17.4625 1.74252 17.5899 1.63729 17.7581C1.53205 17.9263 1.47509 18.1271 1.47415 18.3333V19.6667C1.47415 19.7551 1.50514 19.8399 1.56028 19.9024C1.61543 19.9649 1.69023 20 1.76822 20H17.6477C17.7257 20 17.8005 19.9649 17.8556 19.9024C17.9108 19.8399 17.9418 19.7551 17.9418 19.6667V18.3333C17.9408 18.1271 17.8839 17.9263 17.7786 17.7581C17.6734 17.5899 17.525 17.4625 17.3536 17.3933V17C17.3529 16.735 17.2598 16.4811 17.0945 16.2938C16.9292 16.1064 16.7052 16.0008 16.4714 16V15.6667C16.4705 15.4605 16.4135 15.2596 16.3083 15.0914C16.2031 14.9232 16.0547 14.7958 15.8833 14.7267V9.93998C16.0547 9.87079 16.2031 9.74344 16.3083 9.57524C16.4135 9.40704 16.4705 9.20618 16.4714 8.99998V8.66665C16.7052 8.66585 16.9292 8.56024 17.0945 8.37288C17.2598 8.18551 17.3529 7.93162 17.3536 7.66664V7.33331H18.2358C18.2983 7.33314 18.3592 7.3104 18.4095 7.26837C18.4599 7.22634 18.4971 7.16723 18.5158 7.0996C18.5344 7.03197 18.5336 6.95936 18.5134 6.89229C18.4932 6.82523 18.4547 6.7672 18.4034 6.72664ZM3.53261 15.6667C3.53261 15.5783 3.56359 15.4935 3.61873 15.431C3.67388 15.3684 3.74868 15.3333 3.82667 15.3333H5.59106C5.66905 15.3333 5.74384 15.3684 5.79899 15.431C5.85414 15.4935 5.88512 15.5783 5.88512 15.6667V16H3.53261V15.6667ZM13.5308 9.93998V14.7267C13.3594 14.7958 13.211 14.9232 13.1058 15.0914C13.0006 15.2596 12.9436 15.4605 12.9427 15.6667V16H6.47325V15.6667C6.47231 15.4605 6.41535 15.2596 6.31012 15.0914C6.20488 14.9232 6.05649 14.7958 5.88512 14.7267V9.93998C6.05649 9.87079 6.20488 9.74344 6.31012 9.57524C6.41535 9.40704 6.47231 9.20618 6.47325 8.99998V8.66665H12.9427V8.99998C12.9436 9.20618 13.0006 9.40704 13.1058 9.57524C13.211 9.74344 13.3594 9.87079 13.5308 9.93998ZM15.5892 15.3333C15.6672 15.3333 15.742 15.3684 15.7972 15.431C15.8523 15.4935 15.8833 15.5783 15.8833 15.6667V16H13.5308V15.6667C13.5308 15.5783 13.5618 15.4935 13.6169 15.431C13.6721 15.3684 13.7469 15.3333 13.8249 15.3333H15.5892ZM14.1189 14.6667V9.99998H15.2952V14.6667H14.1189ZM5.88512 8.99998C5.88512 9.08839 5.85414 9.17317 5.79899 9.23568C5.74384 9.29819 5.66905 9.33331 5.59106 9.33331H3.82667C3.74868 9.33331 3.67388 9.29819 3.61873 9.23568C3.56359 9.17317 3.53261 9.08839 3.53261 8.99998V8.66665H5.88512V8.99998ZM5.29699 9.99998V14.6667H4.12073V9.99998H5.29699ZM17.3536 18.3333V19.3333H2.06228V18.3333C2.06228 18.2449 2.09326 18.1601 2.14841 18.0976C2.20356 18.0351 2.27836 18 2.35635 18H17.0596C17.1376 18 17.2124 18.0351 17.2675 18.0976C17.3227 18.1601 17.3536 18.2449 17.3536 18.3333ZM16.4714 16.6667C16.5494 16.6667 16.6242 16.7018 16.6794 16.7643C16.7345 16.8268 16.7655 16.9116 16.7655 17V17.3333H2.65041V17C2.65041 16.9116 2.68139 16.8268 2.73654 16.7643C2.79169 16.7018 2.86649 16.6667 2.94448 16.6667H16.4714ZM15.8833 8.99998C15.8833 9.08839 15.8523 9.17317 15.7972 9.23568C15.742 9.29819 15.6672 9.33331 15.5892 9.33331H13.8249C13.7469 9.33331 13.6721 9.29819 13.6169 9.23568C13.5618 9.17317 13.5308 9.08839 13.5308 8.99998V8.66665H15.8833V8.99998ZM16.7655 7.66664C16.7655 7.75505 16.7345 7.83983 16.6794 7.90235C16.6242 7.96486 16.5494 7.99998 16.4714 7.99998H2.94448C2.86649 7.99998 2.79169 7.96486 2.73654 7.90235C2.68139 7.83983 2.65041 7.75505 2.65041 7.66664V7.33331H16.7655V7.66664ZM2.12404 6.66664L9.70796 0.736631L17.2919 6.66664H2.12404Z" fill="black"/>
<ellipse cx="9.69135" cy="11.7708" rx="5.42181" ry="6.14584" fill="white"/>
<path d="M12.1487 10.2979L11.8997 11.2451H7.29516L7.54906 10.2979H12.1487ZM9.79028 15.625L7.43676 12.8369L7.43188 12.002H8.57934C8.84626 12.002 9.06599 11.9499 9.23852 11.8457C9.41104 11.7415 9.53962 11.6016 9.62426 11.4258C9.70889 11.2467 9.75121 11.0482 9.75121 10.8301C9.75121 10.6022 9.71215 10.4004 9.63403 10.2246C9.5559 10.0488 9.43057 9.91211 9.25805 9.81445C9.08552 9.71354 8.85603 9.66309 8.56957 9.66309H7.30004L7.58813 8.51562H8.56957C9.15551 8.51562 9.64379 8.60352 10.0344 8.7793C10.425 8.95508 10.718 9.20898 10.9133 9.54102C11.1086 9.86979 11.2063 10.2686 11.2063 10.7373C11.2063 11.1475 11.1412 11.5072 11.011 11.8164C10.8808 12.1257 10.6741 12.3812 10.3909 12.583C10.1077 12.7816 9.73494 12.9215 9.2727 13.0029L11.3918 15.5566V15.625H9.79028ZM12.1584 8.51562L11.9045 9.45801H8.09106L8.34496 8.51562H12.1584Z" fill="#023168"/>
</svg>
