<svg width="24" height="21" viewBox="0 0 24 21" fill="none" xmlns="http://www.w3.org/2000/svg">
<path d="M14.5 14.75V16.875C14.5 17.4386 14.2805 17.9791 13.8898 18.3776C13.4991 18.7761 12.9692 19 12.4167 19H4.08333C3.5308 19 3.00089 18.7761 2.61019 18.3776C2.21949 17.9791 2 17.4386 2 16.875V4.125C2 3.56141 2.21949 3.02091 2.61019 2.6224C3.00089 2.22388 3.5308 2 4.08333 2H12C13.1505 2 14.5 2.95147 14.5 4.125V6.25M17.8333 14.75L22 10.5L17.8333 6.25M7.83333 10.5H21.1667" stroke="#40A94C" stroke-width="2.79834" stroke-linecap="round" stroke-linejoin="round"/>
</svg>
