<svg width="28" height="28" viewBox="0 0 28 28" fill="none" xmlns="http://www.w3.org/2000/svg">
<path d="M13.9995 26.662C14.4894 26.6507 14.9596 26.4665 15.3268 26.142C15.6941 25.8175 15.9347 25.3735 16.0062 24.8887H11.915C11.9885 25.3867 12.2404 25.8411 12.6238 26.1673C13.0073 26.4935 13.4961 26.6693 13.9995 26.662Z" fill="#3F3D3D"/>
<path d="M23.4271 22.317C22.8321 21.6968 22.3009 21.0179 21.8418 20.2904L21.8379 20.2842L21.8345 20.2778C21.0707 18.8457 20.625 17.2657 20.528 15.6456L20.5273 15.6336H20.5276V11.7914V11.7913C20.5279 11.1153 20.426 10.443 20.2255 9.7974L20.0747 9.31176L20.5159 9.56454C21.0389 9.86415 21.6069 10.0772 22.1979 10.1953L22.3324 10.2222L22.3558 10.3573C22.4373 10.828 22.4799 11.3046 22.4832 11.7823L22.4832 11.7836L22.4832 15.6184C22.5792 16.8904 22.9271 18.1306 23.5066 19.2669C24.0413 20.0921 24.6841 20.8418 25.418 21.4962C25.522 21.5877 25.6054 21.7003 25.6626 21.8265C25.7199 21.9529 25.7497 22.0901 25.7498 22.2289V22.2292V23.287C25.7498 23.5463 25.6468 23.795 25.4635 23.9784C25.2801 24.1617 25.0314 24.2648 24.7721 24.2648H3.14985C2.89052 24.2648 2.64182 24.1617 2.45846 23.9784L2.5995 23.8373L2.45845 23.9784C2.27509 23.795 2.17207 23.5463 2.17207 23.287V22.2292V22.2289C2.17225 22.0901 2.20198 21.9529 2.25931 21.8265C2.3164 21.7005 2.39955 21.5881 2.50326 21.4967C3.2263 20.8404 3.85872 20.0907 4.38385 19.2675C4.96363 18.131 5.31164 16.8906 5.40763 15.6184V11.7838V11.7836H5.60763C5.60275 9.75375 6.33241 7.79062 7.66191 6.2567C8.99141 4.72277 10.831 3.72162 12.841 3.43808L23.4271 22.317ZM23.4271 22.317H4.47147C5.06646 21.6968 5.59765 21.0179 6.05676 20.2904L6.06066 20.2842L6.06409 20.2778C6.8279 18.8457 7.27355 17.2657 7.3706 15.6456L7.37096 15.6456V15.6336L7.37096 11.7836L7.37096 11.7827C7.36698 10.9089 7.53541 10.0429 7.8666 9.23422C8.19779 8.42558 8.68524 7.6902 9.30103 7.0702C9.91682 6.45021 10.6489 5.95776 11.4552 5.62107C12.2615 5.28442 13.1263 5.1101 14 5.10808C15.2779 5.10916 16.5271 5.48711 17.5913 6.19463L18.035 6.48962L17.895 5.97553C17.7785 5.54759 17.713 5.10737 17.6998 4.66404V4.17697V4.05247L17.5881 3.99751C16.809 3.61423 15.9756 3.3538 15.1176 3.22513V2.41919C15.1176 2.09077 14.9872 1.77579 14.7549 1.54356C14.5227 1.31133 14.2077 1.18086 13.8793 1.18086C13.5509 1.18086 13.2359 1.31133 13.0037 1.54356C12.7714 1.77579 12.641 2.09077 12.641 2.41919V3.26609" fill="#3F3D3D" stroke="#3F3D3D" stroke-width="0.4"/>
<path d="M23.3332 8.55512C25.481 8.55512 27.2221 6.81401 27.2221 4.66623C27.2221 2.51846 25.481 0.777344 23.3332 0.777344C21.1855 0.777344 19.4443 2.51846 19.4443 4.66623C19.4443 6.81401 21.1855 8.55512 23.3332 8.55512Z" fill="#3F3D3D"/>
</svg>
