<svg width="49" height="48" viewBox="0 0 49 48" fill="none" xmlns="http://www.w3.org/2000/svg">
<path d="M2.06919 33.5008L6.54484 36.0588L9.6155 46.807C9.7114 47.1473 10.0217 47.3824 10.3753 47.3828H47.4949C47.7318 47.3824 47.9564 47.276 48.1063 47.0923C48.2561 46.9086 48.3153 46.6674 48.2681 46.4351L46.5472 38.0965C47.5298 36.6248 48.1275 34.9297 48.2847 33.1668C48.285 31.541 47.569 29.9978 46.3269 28.9486C47.1632 28.6058 47.8112 27.9194 48.1053 27.0647C48.3997 26.2101 48.3112 25.2701 47.8634 24.4853C47.4153 23.7004 46.6508 23.1465 45.7652 22.9653C45.3403 21.0998 45.1256 19.1923 45.1256 17.2789V13.7753C45.1774 10.277 43.8779 6.89335 41.4976 4.32869C39.1173 1.76439 35.8397 0.216518 32.347 0.00819722C32.1171 -0.00273241 31.2815 -0.00273241 31.0516 0.00819722C27.559 0.216572 24.2813 1.76439 21.901 4.32869C19.5207 6.89335 18.2211 10.277 18.273 13.7753V17.2772C18.273 19.1906 18.0583 21.0981 17.6334 22.9636C17.0026 23.0947 16.4273 23.4145 15.9826 23.8806C15.2644 24.6302 14.9651 25.6873 15.1833 26.7023C15.4015 27.7174 16.1096 28.5576 17.0725 28.9455C15.8293 29.9951 15.1128 31.5397 15.1139 33.167C15.2444 34.8033 15.7256 36.3927 16.5246 37.8267L15.7673 41.394L12.7827 35.4248L13.3412 32.6321L13.3408 32.6324C13.453 32.0729 13.3179 31.4929 12.971 31.0401C12.6244 30.5874 12.0991 30.3064 11.53 30.2691C10.9609 30.2317 10.4032 30.4415 10.0002 30.8448L9.39514 31.4498L4.08638 29.3238C3.35091 29.0308 2.51667 29.132 1.87293 29.5924C1.22877 30.0529 0.863457 30.8095 0.903352 31.6004C0.942841 32.3912 1.38251 33.1073 2.06933 33.5012L2.06919 33.5008ZM28.0001 37.9458L26.0824 37.3069L25.4837 33.7135L27.3474 33.2784L30.9096 39.6893V42.156L27.9267 40.6649L28.4993 38.9446C28.6372 38.5307 28.4136 38.0836 28.0001 37.9454L28.0001 37.9458ZM24.5913 16.5812H29.5821C30.5672 16.5833 31.5248 16.2565 32.3032 15.6525C33.0814 15.0482 33.636 14.2016 33.8782 13.2469L34.6112 10.6724L35.4839 13.7736C35.6732 14.5289 36.0966 15.2051 36.6935 15.7054C37.2904 16.2057 38.0302 16.504 38.8072 16.5583V20.4359C38.8072 22.398 37.9967 24.2727 36.567 25.6161C35.1373 26.9598 33.2157 27.6525 31.2579 27.5306C29.4138 27.3755 27.6979 26.5233 26.4596 25.1482C25.2213 23.7728 24.5532 21.9774 24.5913 20.1274L24.5913 16.5812ZM34.899 38.945L35.4716 40.6653L32.4888 42.1564V39.6897L36.0474 33.2837L37.9105 33.7353L37.3157 37.3034L35.3973 37.9462L35.3976 37.9465C34.9848 38.0851 34.7615 38.5318 34.899 38.945ZM31.699 37.8591L29.3794 33.6842C30.9085 34.0128 32.4895 34.0128 34.0186 33.6842L31.699 37.8591ZM31.1635 29.1073C31.3451 29.1193 31.5259 29.1239 31.7061 29.1239C32.7843 29.1253 33.8533 28.9254 34.8582 28.534V31.8155C32.8103 32.5153 30.5878 32.5153 28.5399 31.8155V28.5072C29.3763 28.8482 30.2623 29.0509 31.1635 29.1073ZM42.7556 45.8037V42.6446C42.7556 42.2084 42.402 41.8548 41.9658 41.8548C41.5297 41.8548 41.1761 42.2084 41.1761 42.6446V45.8037H32.4885V43.9223L36.7903 41.7758C37.1415 41.5995 37.31 41.1919 37.1852 40.8192L36.6457 39.1977L38.2662 38.6551L38.2665 38.6555C38.5437 38.5627 38.7468 38.3244 38.7947 38.0363L39.4487 34.1142L43.9261 35.2009C44.2537 35.3084 44.4811 35.6074 44.4969 35.9519L46.5254 45.8038L42.7556 45.8037ZM20.6418 29.2184C21.078 29.2184 21.4316 28.8647 21.4316 28.4286C21.4316 27.9924 21.078 27.6388 20.6418 27.6388H18.4068C17.9844 27.6511 17.5729 27.5034 17.2553 27.2252C16.9372 26.9467 16.7363 26.5585 16.6929 26.1382C16.6714 25.706 16.8279 25.2836 17.1266 24.9698C17.4252 24.6563 17.8395 24.479 18.2724 24.4797C18.6349 24.4797 18.9508 24.2329 19.0386 23.881C19.5787 21.7215 19.8516 19.5038 19.852 17.2776V13.7758C19.8009 10.6836 20.9443 7.6913 23.0439 5.42071C25.1435 3.15049 28.0378 1.77681 31.1246 1.58645C31.3037 1.57623 32.0934 1.57623 32.2726 1.58645C35.3594 1.77685 38.2538 3.15049 40.3534 5.42071C42.453 7.6913 43.5964 10.6837 43.5452 13.7758V17.2776C43.5456 19.5027 43.8188 21.7194 44.3586 23.8779C44.4454 24.2308 44.7613 24.4794 45.1248 24.4797C45.5578 24.479 45.972 24.6564 46.2706 24.9698C46.5693 25.2836 46.7258 25.706 46.7043 26.1382C46.6609 26.5585 46.46 26.9467 46.1419 27.2252C45.8243 27.5034 45.4128 27.6512 44.9904 27.6388H42.7554C42.3192 27.6388 41.9656 27.9925 41.9656 28.4286C41.9656 28.8647 42.3192 29.2184 42.7554 29.2184C43.8022 29.2198 44.806 29.6362 45.5464 30.3762C46.2865 31.1166 46.7028 32.1204 46.7043 33.1673C46.645 34.0343 46.4226 34.8822 46.0488 35.667C45.9907 35.2041 45.7978 34.769 45.4942 34.415C45.1907 34.061 44.7898 33.8044 44.3413 33.6767L36.4372 31.7527V27.7178C36.8698 27.4358 37.2767 27.1167 37.6537 26.7638C39.394 25.119 40.382 22.8315 40.3861 20.4367V16.5819H41.1759C41.612 16.5819 41.9657 16.2283 41.9657 15.7922C41.9657 15.356 41.612 15.0024 41.1759 15.0024H39.0791C38.601 15.002 38.1367 14.8409 37.7615 14.5447C37.3864 14.2482 37.1216 13.8343 37.0105 13.3693L35.3749 7.55877C35.2794 7.21854 34.9695 6.98372 34.6162 6.98301C34.2632 6.98301 33.953 7.21713 33.8564 7.55631L32.3558 12.839V12.8393C32.2017 13.4581 31.8445 14.0074 31.3418 14.3995C30.8387 14.7916 30.2189 15.0038 29.5814 15.0024H22.2213C21.7851 15.0024 21.4315 15.356 21.4315 15.7922C21.4315 16.2283 21.7851 16.5819 22.2213 16.5819H23.011V20.1282C22.9962 23.1399 24.4753 25.9633 26.9599 27.6657V31.7457L18.6545 33.6845C17.9314 33.902 17.356 34.4524 17.1068 35.1653C16.8621 34.5261 16.7221 33.8512 16.6928 33.1672C16.6942 32.1204 17.1106 31.1166 17.8507 30.3762C18.5911 29.6361 19.5949 29.2198 20.6417 29.2183L20.6418 29.2184ZM18.537 35.9558C18.543 35.9301 18.5472 35.9037 18.5497 35.8769C18.5761 35.574 18.776 35.3138 19.0623 35.2105L23.943 34.0724L24.6034 38.0354C24.6514 38.3241 24.8548 38.5628 25.1326 38.6556L26.7524 39.195L26.2129 40.8154C26.0885 41.1881 26.2566 41.5957 26.6078 41.772L30.9089 43.9224V45.8038H22.2213V42.6447C22.2213 42.2085 21.8677 41.8549 21.4316 41.8549C20.9954 41.8549 20.6418 42.2085 20.6418 42.6447V45.8038H17.9706L16.8999 43.6612L18.537 35.9558ZM2.80458 30.865C3.00837 30.7236 3.27034 30.6957 3.49951 30.7909L9.2917 33.1074C9.58469 33.2244 9.91964 33.156 10.1432 32.9328L11.1163 31.959H11.1159C11.2407 31.8349 11.4318 31.8067 11.587 31.8899C11.7421 31.9728 11.825 32.1473 11.7915 32.3197L11.1801 35.3787C11.1452 35.5511 11.1688 35.7299 11.2471 35.8875L16.2047 45.8035H10.97L7.97515 35.3162C7.91839 35.1176 7.78616 34.9495 7.60706 34.8469L2.85251 32.1299V32.1302C2.62051 31.9969 2.47737 31.7501 2.47665 31.4825C2.47489 31.2346 2.59794 31.0023 2.80455 30.8648L2.80458 30.865Z" fill="#40A94C"/>
<path d="M9.93946 17.1916L10.7017 17.4673H10.7014C11.7062 17.8298 12.8137 17.778 13.7801 17.3238C14.7468 16.8697 15.4936 16.0504 15.8564 15.0458C16.0045 14.6358 15.7922 14.1834 15.3826 14.035L14.6203 13.7593C13.717 13.4377 12.7287 13.4483 11.8331 13.79C10.9372 14.1316 10.1926 14.7818 9.73313 15.6233C9.64745 14.9799 9.46376 14.3537 9.18804 13.7663C9.00258 13.3718 8.53224 13.2022 8.13732 13.3877C7.74243 13.5735 7.57284 14.0438 7.75865 14.4387C8.24204 15.464 8.339 16.6296 8.03119 17.7209C7.6095 17.3637 7.12823 17.0831 6.60959 16.8923C4.13059 15.9975 2.34479 16.8338 1.45311 19.3131C1.03247 20.5997 1.0353 21.9874 1.46086 23.2722C1.81944 24.6261 2.79076 25.7339 4.08617 26.2663C4.6087 26.4592 5.16614 26.5399 5.72178 26.5032C6.12584 26.8865 6.60676 27.1802 7.13246 27.3649C7.52841 27.507 7.94656 27.5786 8.36758 27.5765C9.5166 27.4884 10.6174 27.0772 11.5429 26.3907C12.4685 25.7039 13.181 24.7696 13.5982 23.6957C14.0375 22.6972 14.0608 21.5653 13.663 20.5499C13.1433 19.569 12.2457 18.8427 11.1777 18.5398C10.6457 18.3508 10.0837 18.2588 9.51919 18.268C9.63625 17.8798 9.71558 17.4814 9.75613 17.078C9.81148 17.1245 9.87319 17.1626 9.93946 17.1915L9.93946 17.1916ZM13.9782 15.2101C13.6704 15.593 13.2548 15.8747 12.7851 16.0189C12.3151 16.1628 11.813 16.1621 11.3434 16.0172C11.6508 15.6339 12.0665 15.3519 12.5365 15.208C13.0065 15.0638 13.5086 15.0649 13.9782 15.2101ZM10.639 20.0278C11.3036 20.1977 11.8737 20.6236 12.2248 21.2124C12.4389 21.8534 12.398 22.5519 12.1103 23.1632C11.5014 24.8486 9.28999 26.4715 7.6653 25.8834L7.66566 25.8831C7.2623 25.7466 6.90514 25.5005 6.63398 25.1723C6.48413 24.9879 6.25884 24.881 6.02119 24.881C5.96972 24.881 5.91824 24.886 5.86782 24.8958C5.45002 24.9762 5.0181 24.9374 4.62079 24.7848C3.79293 24.4068 3.18222 23.672 2.96225 22.7888C2.64564 21.8372 2.63682 20.8102 2.93722 19.8533C3.5359 18.1948 4.41171 17.784 6.07196 18.382H6.07161C6.73517 18.6238 7.30032 19.0773 7.68041 19.6724C7.87327 19.9682 8.23889 20.1001 8.57596 19.9954C9.24833 19.7796 9.97319 19.7902 10.6389 20.0264L10.639 20.0278Z" fill="#40A94C"/>
</svg>
