<svg width="81" height="81" viewBox="0 0 81 81" fill="none" xmlns="http://www.w3.org/2000/svg">
<path d="M40.1298 80.2595C29.4105 80.2595 19.3331 76.0845 11.7547 68.5048C4.17499 60.9262 0 50.8488 0 40.1298C0 29.4107 4.17499 19.3331 11.7547 11.7547C19.3334 4.17499 29.4107 0 40.1298 0C50.8488 0 60.9264 4.17499 68.5048 11.7547C76.0845 19.3334 80.2595 29.4107 80.2595 40.1298C80.2595 50.8488 76.0845 60.9264 68.5048 68.5048C60.9262 76.0845 50.8488 80.2595 40.1298 80.2595ZM40.1298 2.79133C19.5416 2.79133 2.79133 19.5413 2.79133 40.1298C2.79133 60.7182 19.5423 77.4682 40.1298 77.4682C60.7172 77.4682 77.4682 60.7172 77.4682 40.1298C77.4682 19.5423 60.7172 2.79133 40.1298 2.79133Z" fill="#40A94C"/>
<path d="M27.0076 62.9456C25.7269 62.9456 24.4222 62.7951 23.1107 62.4861C20.2262 61.8094 17.7357 60.3343 15.9079 58.2203C14.07 56.0964 12.9805 53.4163 12.7545 50.4681C12.4973 47.1152 13.3136 43.7704 15.0528 41.0495C17.1936 37.7007 20.711 35.3245 25.2279 34.1763C27.3139 33.6461 29.7828 33.5594 32.396 33.4677C34.3146 33.4009 36.297 33.3312 38.0789 33.071C44.0012 32.2059 49.3634 28.4204 51.4194 23.6515C51.5729 23.2947 51.6885 22.7834 51.8131 22.2412C52.0333 21.2724 52.2815 20.1751 52.9054 19.3248C54.0386 17.783 55.5954 17.0933 57.2937 17.3863C59.1146 17.7002 60.3504 18.7268 60.9673 20.4412C61.2544 21.2405 61.2813 21.9511 61.3022 22.5202C61.3222 23.0405 61.3361 23.4162 61.5155 23.8099C61.8584 24.5564 62.6537 25.1116 63.5427 25.2252C66.3902 25.585 67.4776 27.6003 67.5463 29.3655C67.6101 31.025 66.3562 32.3097 65.0835 32.846C64.2334 33.2048 63.4589 33.2476 62.7772 33.2865C62.537 33.3005 62.3098 33.3134 62.0785 33.3384C56.4423 33.9533 51.5368 37.9489 46.639 45.9134C46.1546 46.7017 45.6662 47.5399 45.1499 48.429C43.8762 50.6227 42.4301 53.1074 40.4537 55.8173C37.0888 60.4289 32.243 62.9456 27.0076 62.9456ZM56.5359 20.1112C56.1462 20.1112 55.6748 20.2747 55.1575 20.9773C54.8775 21.358 54.6971 22.1564 54.5366 22.86C54.3911 23.5019 54.2406 24.1647 53.9844 24.7577C51.5187 30.4718 45.4349 34.8192 38.4831 35.8337C36.5496 36.1158 34.4885 36.1885 32.494 36.2583C30.0343 36.345 27.711 36.4257 25.916 36.8822C17.6696 38.9782 15.147 45.1646 15.5376 50.2566C15.9034 55.0228 19.05 58.6676 23.7493 59.7698C26.4115 60.3937 33.147 61.0984 38.2022 54.1706C40.0939 51.5783 41.4993 49.1582 42.74 47.0254C43.2663 46.1214 43.7616 45.2673 44.264 44.4499C47.6536 38.9382 53.1564 31.5042 61.7786 30.5622C62.0826 30.5283 62.3707 30.5133 62.6228 30.4984C63.1879 30.4665 63.5966 30.4436 64.0032 30.2721C64.4677 30.0758 64.7707 29.7 64.7627 29.4708C64.7278 28.5788 64.2454 28.1233 63.1969 27.9908C61.3451 27.7565 59.7305 26.5994 58.9829 24.9708C58.5713 24.0718 58.5404 23.2675 58.5165 22.6197C58.4995 22.1462 58.4856 21.7745 58.345 21.3838C58.0649 20.6064 57.6673 20.2805 56.8231 20.134C56.7324 20.122 56.6376 20.1112 56.5359 20.1112Z" fill="#40A94C"/>
<path d="M25.2721 52.6422C24.6851 52.6422 24.1389 52.2695 23.9466 51.6804C23.2967 49.6961 23.0077 47.631 23.0884 45.5439C23.1193 44.7734 23.7662 44.1724 24.5366 44.2043C25.307 44.2352 25.907 44.8821 25.8761 45.6525C25.8074 47.4067 26.0505 49.1419 26.5977 50.8114C26.8379 51.5439 26.4382 52.3323 25.7057 52.5725C25.5632 52.6193 25.4167 52.6422 25.2721 52.6422Z" fill="#40A94C"/>
<path d="M32.2916 50.492C31.6906 50.492 31.1345 50.1003 30.9551 49.4933C30.4119 47.6654 30.2215 45.6949 30.3999 43.7964C30.4727 43.0289 31.1534 42.4648 31.9198 42.5376C32.6873 42.6103 33.2514 43.291 33.1786 44.0575C33.0321 45.6053 33.1896 47.2099 33.6311 48.6999C33.8504 49.4384 33.4288 50.2149 32.6903 50.4341C32.5567 50.473 32.4222 50.492 32.2916 50.492Z" fill="#40A94C"/>
<path d="M48.8462 41.6857C48.5661 41.6857 48.2821 41.6009 48.0369 41.4265C47.41 40.979 47.2634 40.1069 47.7119 39.48C48.2502 38.7266 48.0707 37.986 46.9455 36.3065C46.0585 34.9809 44.405 32.5152 46.189 29.9717C46.6316 29.3408 47.5017 29.1873 48.1326 29.6298C48.7635 30.0723 48.9169 30.9424 48.4744 31.5733C47.9482 32.3228 48.1336 33.0654 49.2638 34.7538C50.088 35.9856 51.8063 38.5481 49.9824 41.1026C49.7093 41.4824 49.2817 41.6857 48.8462 41.6857Z" fill="#40A94C"/>
</svg>
