<svg width="87" height="77" viewBox="0 0 87 77" fill="none" xmlns="http://www.w3.org/2000/svg">
<path d="M86.0072 48.4621C81.7245 36.0315 65.9855 35.4833 54.7445 35.7954C49.0288 36.1069 43.1073 37.157 37.1434 38.9177C30.5601 40.8056 26.1047 47.0218 28.262 53.6439V58.5121C28.5394 66.286 37.7541 68.4305 47.6564 68.6647C52.2054 68.6647 56.717 70.0269 60.3599 72.4998C64.0479 75.0036 67.403 76.273 70.3306 76.273C78.1458 76.6438 86.0953 71.0861 85.9462 63.1058V57.141C86.8491 54.2755 86.8769 51.2853 86.0068 48.4623L86.0072 48.4621ZM31.5311 46.611C32.7289 44.3387 35.074 42.5451 37.9648 41.6892C43.7116 39.9916 49.4112 38.9803 54.9105 38.6803C62.0716 38.3771 69.0226 38.7983 75.6769 41.3441C81.639 43.8853 85.3412 50.2396 83.1334 56.4811V56.4824C81.5584 61.4402 75.2705 67.4303 71.093 65.2869C69.5734 64.1595 65.6398 61.7885 65.3113 61.626C59.9141 58.7132 54.0308 57.2156 47.91 57.1937C42.4392 57.2356 34.4274 56.3868 31.1146 53.0949C30.3128 50.8252 30.4431 48.6213 31.5319 46.6108L31.5311 46.611ZM74.9314 72.813C70.1011 73.992 66.9407 73.447 61.9835 70.1099C57.8665 67.3145 52.779 65.775 47.6572 65.775C40.4927 65.775 36.2011 64.2019 33.8617 62.8822C32.166 61.9257 31.1529 60.2919 31.1529 58.5125V56.7408C37.6007 60.8538 47.3283 59.34 54.9425 60.8507C58.0617 61.506 61.0866 62.6212 63.9554 64.178C64.294 64.3606 67.9523 66.5553 69.3674 67.6042C74.1512 70.6201 79.8264 66.6193 83.059 62.5791C83.2834 67.321 79.9205 71.5745 74.9316 72.8128L74.9314 72.813Z" fill="#40A94C"/>
<path d="M43.6045 55.1094C45.2718 55.0391 49.063 54.5863 48.1097 52.2037C47.0029 50.4119 45.2093 52.4933 43.6045 52.2198C41.1935 52.2198 39.2323 50.7918 39.2323 49.0376C39.1175 46.7686 42.721 45.249 45.1358 46.0635C46.9507 46.5789 47.7532 43.821 45.9401 43.2881C35.4231 40.7772 32.1047 54.3399 43.6045 55.1094Z" fill="#40A94C"/>
<path d="M23.7708 46.9725C14.9694 45.0368 14.5579 35.826 17.9918 29.1055C23.8831 36.5762 38.0829 37.4238 40.1138 26.3624C40.7014 22.5022 39.0567 18.5912 36.438 15.7887C49.077 12.6342 65.0936 19.3065 70.2963 29.7428C70.5898 30.3304 70.5208 31.0308 70.1099 31.6159C69.0296 33.1638 71.3883 34.8188 72.4777 33.2741C73.4909 31.8281 73.6457 29.9796 72.8756 28.4394C66.778 16.2487 47.9748 8.8899 33.7551 13.5237C29.6686 10.7638 23.2795 9.05402 18.5711 10.5574L13.1869 5.96061C14.6432 -0.999943 3.96179 -2.41761 3.48445 4.6784C-0.279 5.63684 -1.28256 10.9907 1.90876 13.2333C1.91005 13.2333 1.91134 13.2346 1.91328 13.2352C3.50507 14.4394 5.61414 14.5426 7.28592 13.5983L13.2249 17.5198C13.0979 20.2861 14.1337 23.5491 16.0996 26.5785C11.0598 35.0663 11.784 47.1352 22.9866 49.7539C24.8093 50.2421 25.5981 47.5235 23.7703 46.9727L23.7708 46.9725ZM7.25114 10.3997C6.89446 10.3997 6.53845 10.5326 6.26368 10.7906C5.55098 11.4575 4.43256 11.5149 3.65669 10.9312C2.07004 9.81019 3.07105 7.17861 5.02081 7.37675C6.01536 7.48124 6.83641 6.39896 6.48234 5.46638C6.26176 4.8227 6.37334 4.14676 6.79 3.61083C8.20572 1.72754 11.3668 3.56374 10.2059 5.70827C9.88016 6.3081 10.0182 7.05369 10.5374 7.49745L15.8224 12.0103C15.011 12.7043 14.3415 13.5286 13.8991 14.5032L8.04731 10.6392C7.80414 10.4786 7.52811 10.4 7.25141 10.4L7.25114 10.3997ZM16.1609 16.9934C17.6669 10.1263 28.4954 13.1003 32.629 16.2568V16.2562C32.6445 16.2678 32.6587 16.2787 32.6729 16.2884C32.6755 16.291 32.68 16.2942 32.6845 16.2968C36.0003 18.8277 37.9733 22.6098 37.1348 26.59C34.5103 35.1946 22.7912 32.0852 18.9838 25.707C18.9838 25.7057 18.9825 25.7045 18.9812 25.7038C16.8716 22.7531 15.7927 19.4179 16.1609 16.9934Z" fill="#40A94C"/>
</svg>
