<svg width="19" height="19" viewBox="0 0 19 19" fill="none" xmlns="http://www.w3.org/2000/svg">
<path d="M12.1862 13.2729L12.2865 13.3735L12.3868 13.2729L13.2429 12.4147L13.3426 12.3148L13.243 12.2147L10.2485 9.20678V4.04297V3.9013H10.1069H8.89258H8.75091V4.04297V9.77046V9.82904L8.79228 9.87051L12.1862 13.2729Z" fill="#40A94C" stroke="#40A94C" stroke-width="0.283333"/>
<path d="M9.5 0.858333H9.49998C8.34863 0.858497 7.20902 1.09027 6.14865 1.53993C5.19355 1.94495 4.32024 2.51931 3.57024 3.23451V1V0.858333H3.42857H2.21429H2.07262V1V5.86929V6.01095H2.21429H7.07143H7.21309V5.86929V4.65196V4.5103H7.07143H4.41169C5.5036 3.39948 6.92991 2.6741 8.47519 2.44955C10.1275 2.20944 11.8115 2.55709 13.2348 3.43215C14.6581 4.30722 15.7307 5.65447 16.2664 7.23996C16.8021 8.82547 16.7669 10.549 16.1669 12.1112C15.567 13.6734 14.4402 14.9755 12.9824 15.7914C11.5246 16.6074 9.82785 16.8856 8.18674 16.5779C6.54563 16.2703 5.06378 15.396 3.99859 14.107C2.9334 12.818 2.35218 11.1956 2.35595 9.52157L2.35627 9.37958H2.21429H1H0.858333V9.52125C0.858333 11.2345 1.36511 12.9094 2.31463 14.334C3.26414 15.7586 4.61376 16.869 6.19286 17.5247C7.77196 18.1804 9.50958 18.352 11.186 18.0177C12.8624 17.6834 14.4022 16.8583 15.6107 15.6467C16.8192 14.4352 17.6422 12.8916 17.9756 11.2112C18.309 9.53086 18.1379 7.78911 17.4839 6.20621C16.8299 4.62331 15.7223 3.27032 14.3012 2.31839C12.8801 1.36645 11.2092 0.858333 9.5 0.858333Z" fill="#40A94C" stroke="#40A94C" stroke-width="0.283333"/>
</svg>
