<svg width="18" height="18" viewBox="0 0 18 18" fill="none" xmlns="http://www.w3.org/2000/svg">
<path fill-rule="evenodd" clip-rule="evenodd" d="M9.01305 1.71147C11.2327 -0.00605702 14.301 0.249263 16.2411 2.31292C18.394 4.61108 18.394 8.3223 16.2411 10.6205L10.7403 16.4658C9.78196 17.4665 8.24415 17.4665 7.28577 16.4658L1.78502 10.6205C-0.282714 8.44202 -0.411884 4.93854 1.48915 2.5954C3.39018 0.252268 6.67488 -0.133627 9.01305 1.71147ZM9.49223 15.1595L14.993 9.32356V9.29537C16.4183 7.70803 16.3869 5.20322 14.9221 3.65677C13.449 2.11376 11.0805 2.11376 9.60738 3.65677C9.44106 3.83468 9.21466 3.93475 8.97847 3.93475C8.74229 3.93475 8.51588 3.83468 8.34956 3.65677C6.87648 2.11376 4.50792 2.11376 3.03484 3.65677C1.58995 5.22374 1.58995 7.7284 3.03484 9.29537L8.53558 15.1595C8.66201 15.2949 8.83423 15.3712 9.0139 15.3712C9.19358 15.3712 9.3658 15.2949 9.49223 15.1595Z" fill="black"/>
</svg>
