<svg width="24" height="20" viewBox="0 0 24 20" fill="none" xmlns="http://www.w3.org/2000/svg">
<path d="M0 15.3392V18.8791H9.43953V16.649H2.24189V15.3392C2.24189 14.5841 5.9351 12.8614 9.43953 12.8614C10.5723 12.8732 11.6932 13.0265 12.7788 13.3097L14.5723 11.5162C12.9204 10.9617 11.2094 10.6549 9.43953 10.6195C6.28908 10.6195 0 12.1888 0 15.3392ZM9.43953 0C6.83186 0 4.71976 2.11209 4.71976 4.71976C4.71976 7.32743 6.83186 9.43953 9.43953 9.43953C12.0472 9.43953 14.1593 7.32743 14.1593 4.71976C14.1593 2.11209 12.0472 0 9.43953 0ZM9.43953 7.07965C8.14159 7.07965 7.07965 6.0295 7.07965 4.71976C7.07965 3.41003 8.14159 2.35988 9.43953 2.35988C10.7375 2.35988 11.7994 3.42183 11.7994 4.71976C11.7994 6.0177 10.7493 7.07965 9.43953 7.07965ZM23.2448 11.0324L22.0649 12.2124L19.646 9.85251L20.826 8.67257C20.9473 8.55366 21.1104 8.48705 21.2802 8.48705C21.4501 8.48705 21.6132 8.55366 21.7345 8.67257L23.2448 10.1829C23.4926 10.4307 23.4926 10.8437 23.2448 11.0914M11.7994 17.6283L18.9498 10.4779L21.3687 12.8378L14.2891 20H11.7994V17.6283Z" fill="#40A94C"/>
</svg>
