<svg width="53" height="49" viewBox="0 0 53 49" fill="none" xmlns="http://www.w3.org/2000/svg">
<path d="M49.1881 47.3439C49.1881 47.8192 48.8026 48.2046 48.3273 48.2046H1.84516C1.36981 48.2046 0.984375 47.8192 0.984375 47.3439C0.984375 46.8685 1.36981 46.4831 1.84516 46.4831H7.87062V38.7361C7.87062 33.1383 11.4355 28.2247 16.7528 26.4658C16.8189 26.42 16.8892 26.3801 16.9576 26.3378C16.1272 25.542 15.6176 24.4318 15.6176 23.2416V11.5173C15.6176 5.39043 20.4457 0.227814 26.3808 0.0094215C27.7228 -0.0455297 29.0473 0.140073 30.302 0.561629C30.3116 0.564704 30.3181 0.573158 30.3277 0.576616C30.3796 0.591602 30.4288 0.610432 30.478 0.629262C30.496 0.634258 30.5145 0.635026 30.5325 0.641174C32.0916 1.17955 33.5414 2.08994 34.7254 3.27388C36.8358 5.38471 37.9983 8.19607 37.9983 11.1904V23.2413C37.9983 24.4557 37.468 25.5862 36.6072 26.3839C41.967 28.0305 45.7453 33.0442 45.7453 38.7349V46.4819H48.3277C48.803 46.4819 49.1884 46.8673 49.1884 47.3427L49.1881 47.3439ZM32.0954 30.5464L34.1982 27.0391L30.8527 25.3659L30.1195 28.6692L30.1191 28.6699V28.6707L28.3241 36.7435L28.0836 37.8276L34.1548 34.1847L32.1454 31.5052C31.9352 31.2258 31.9152 30.8465 32.0954 30.5464ZM14.7569 38.7361C14.7569 39.2106 15.1431 39.5968 15.6176 39.5968C16.0922 39.5968 16.4784 39.2106 16.4784 38.7361C16.4784 38.2615 16.0922 37.8753 15.6176 37.8753C15.1431 37.8753 14.7569 38.2615 14.7569 38.7361ZM25.3961 7.74796H25.0864C22.7135 7.74796 20.7825 9.67897 20.7825 12.0519V14.6342C20.7825 16.7831 21.9361 18.7798 23.7932 19.8438C25.6089 20.9149 28.0161 20.9094 29.8141 19.8492C30.5627 19.4223 31.2175 18.827 31.7185 18.1216C32.4479 17.0944 32.8333 15.8886 32.8333 14.6343V8.60881C32.8333 8.13423 32.4471 7.74803 31.9725 7.74803C31.2743 7.74803 30.6241 7.4752 30.1423 6.98025C29.6631 6.51335 29.3902 5.86349 29.3902 5.16572V5.0612L29.3553 5.14266C28.677 6.72552 27.1231 7.74796 25.3961 7.74796ZM28.3788 28.0319C28.4269 28.0073 28.4688 27.9758 28.5149 27.9485L29.2903 24.4592L29.3902 24.0081V21.9384C29.3307 21.9595 29.2688 21.9745 29.2085 21.9941C29.1193 22.0233 29.0298 22.0506 28.9395 22.0763L28.9376 22.0771C28.8872 22.0917 28.8384 22.1094 28.7877 22.1228C28.7085 22.1436 28.6282 22.1578 28.5483 22.1759C28.4338 22.2024 28.3196 22.2278 28.204 22.2493C28.129 22.2627 28.0541 22.2735 27.9784 22.2846C27.8946 22.2973 27.8112 22.3111 27.7267 22.3211C27.6406 22.3315 27.5549 22.3411 27.4685 22.3488C27.4646 22.3492 27.4612 22.3492 27.4573 22.3496C27.2421 22.3672 27.0258 22.3815 26.8079 22.3815C26.5235 22.3815 26.2422 22.3584 25.9625 22.3257C25.8541 22.3138 25.7465 22.3011 25.6389 22.2846C25.3641 22.2435 25.0913 22.1912 24.8235 22.1213C24.7781 22.1094 24.7343 22.0933 24.689 22.0802C24.5337 22.0364 24.3777 21.9926 24.2255 21.9384V24.0081L24.3258 24.4596L25.1013 27.9489C25.147 27.9762 25.1889 28.0077 25.2373 28.0323C25.2662 28.0473 25.2961 28.0619 25.3261 28.0757C25.4629 28.1395 25.6055 28.1964 25.7553 28.2402L25.7569 28.2409C26.4228 28.4358 27.1933 28.4358 27.8596 28.2409L27.8604 28.2405C28.011 28.1964 28.1532 28.1395 28.2904 28.0757C28.32 28.0615 28.3496 28.0469 28.3788 28.0319ZM28.063 29.9813C27.9738 30.0028 27.88 30.0128 27.7886 30.0297C27.7079 30.0447 27.6283 30.0612 27.5465 30.0724C27.3355 30.1008 27.1226 30.1169 26.9078 30.1208C26.874 30.1215 26.8417 30.1285 26.8079 30.1285C26.7741 30.1285 26.7418 30.1215 26.708 30.1208C26.4932 30.1169 26.2799 30.1008 26.0693 30.0724C25.9871 30.0612 25.9079 30.0447 25.8272 30.0297C25.7358 30.0132 25.642 30.0028 25.5529 29.9813L26.8079 35.6294L28.063 29.9813ZM21.4711 31.5057L19.4616 34.1852L25.5329 37.8282L25.2923 36.7441L23.4973 28.6712V28.6705L23.497 28.6697L22.7638 25.3665L19.4182 27.0396L21.521 30.5469C21.7008 30.8466 21.6809 31.2259 21.4711 31.5057ZM33.5072 4.49195C32.9542 3.93898 31.9455 3.19734 31.1116 2.68697V5.16553C31.1116 5.39494 31.1996 5.60744 31.3594 5.76307C31.5305 5.9383 31.7426 6.02631 31.9724 6.02631C33.3965 6.02631 34.5547 7.18447 34.5547 8.60865V14.6341C34.5547 16.2477 34.059 17.7982 33.1218 19.1178C32.5777 19.8845 31.886 20.5416 31.1116 21.0577V23.5709L34.9502 25.4904C35.7556 25.045 36.2763 24.1808 36.2763 23.242V11.1911C36.2763 8.65675 35.2929 6.27775 33.5072 4.49195ZM17.3393 23.2422C17.3393 24.181 17.86 25.0452 18.6654 25.4903L22.504 23.5708V21.0499C21.9752 20.6975 21.4976 20.2868 21.0776 19.8229C21.0695 19.8141 21.0618 19.8048 21.0537 19.7956C20.8554 19.5746 20.6695 19.3452 20.4985 19.1039C20.4773 19.0743 20.4589 19.0436 20.4381 19.0136C20.2836 18.7892 20.138 18.5598 20.0081 18.3204C19.9739 18.2581 19.9462 18.1928 19.914 18.1298C19.8052 17.9153 19.6995 17.7001 19.6108 17.4757C19.5677 17.3681 19.5362 17.2559 19.4982 17.1464C19.4329 16.957 19.3645 16.7694 19.3137 16.575C19.2692 16.4051 19.2423 16.2303 19.2092 16.0566C19.1819 15.9121 19.1458 15.7703 19.1266 15.6239C19.0843 15.2984 19.0609 14.9679 19.0609 14.6344V12.052C19.0609 8.7296 21.7639 6.02655 25.0863 6.02655H25.3961C26.4332 6.02655 27.3658 5.41363 27.7728 4.46524L28.8503 1.94281C28.1955 1.7964 27.523 1.72262 26.839 1.72262C26.7088 1.72262 26.5785 1.72569 26.4474 1.73069C21.4234 1.91553 17.3393 6.3063 17.3393 11.5182V23.2422ZM9.59229 46.4833H15.6177V43.9009C15.6177 43.4256 16.0032 43.0402 16.4785 43.0402C16.9539 43.0402 17.3393 43.4256 17.3393 43.9009V46.4833H25.9471V40.0843L17.757 35.1702C17.548 35.0449 17.4023 34.837 17.3551 34.5976C17.3086 34.3586 17.365 34.1103 17.5115 33.9155L19.7468 30.9354L17.9303 27.9084C17.8031 27.9415 17.6786 27.978 17.5541 28.0145C16.8897 28.5571 16.4785 29.373 16.4785 30.2679V36.3125C17.4784 36.6687 18.2001 37.6156 18.2001 38.7362C18.2001 40.1604 17.0419 41.3185 15.6177 41.3185C14.1935 41.3185 13.0354 40.1604 13.0354 38.7362C13.0354 37.6156 13.757 36.6687 14.7569 36.3125V30.2679C14.7569 29.9078 14.8115 29.5597 14.8907 29.22C11.6416 31.2294 9.5923 34.7862 9.5923 38.7362L9.59229 46.4833ZM44.0235 46.4833V38.7363C44.0235 35.1302 42.2685 31.8431 39.5121 29.7745C39.6435 30.2064 39.7196 30.6603 39.7196 31.1287V35.4153C41.2003 35.8004 42.302 37.1365 42.302 38.7363V40.4578C42.302 40.9332 41.9165 41.3186 41.4412 41.3186C40.9658 41.3186 40.5804 40.9332 40.5804 40.4578V38.7363C40.5804 37.7867 39.8084 37.0147 38.8589 37.0147C37.9093 37.0147 37.1373 37.7867 37.1373 38.7363V40.4578C37.1373 40.9332 36.7519 41.3186 36.2765 41.3186C35.8012 41.3186 35.4157 40.9332 35.4157 40.4578V38.7363C35.4157 37.1365 36.5174 35.8004 37.9981 35.4153V31.1287C37.9981 29.8718 37.1969 28.7605 36.004 28.3627C35.8307 28.3047 35.7008 28.1883 35.5994 28.0518L33.869 30.9358L36.1043 33.9159C36.2507 34.1111 36.3072 34.3589 36.2607 34.598C36.2138 34.837 36.0678 35.0453 35.8588 35.1705L27.6687 40.0843V46.4832H36.2765V43.9009C36.2765 43.4256 36.6619 43.0401 37.1373 43.0401C37.6126 43.0401 37.998 43.4256 37.998 43.9009V46.4832L44.0235 46.4833ZM51.7663 46.4791C51.2909 46.4791 50.9013 46.8687 50.9013 47.3441C50.9013 47.8194 51.2909 48.2091 51.7663 48.2091C52.2416 48.2091 52.6313 47.8194 52.6313 47.3441C52.6313 46.8687 52.2416 46.4791 51.7663 46.4791Z" fill="white"/>
</svg>
